<svg viewBox="0 0 330 200" xmlns="http://www.w3.org/2000/svg"><g><g><g><g><g><line x1="72.29800224304199" y1="176.89999961853027" x2="67.29800224304199" y2="176.89999961853027" style="visibility: inherit;" fill="rgb(0, 0, 0)" stroke="rgb(204, 204, 204)" stroke-width="1px"></line><line x1="72.29800224304199" y1="159.20999965667724" x2="67.29800224304199" y2="159.20999965667724" style="visibility: inherit;" fill="rgb(0, 0, 0)" stroke="rgb(204, 204, 204)" stroke-width="1px"></line><line x1="72.29800224304199" y1="141.51999969482424" x2="67.29800224304199" y2="141.51999969482424" style="visibility: inherit;" fill="rgb(0, 0, 0)" stroke="rgb(204, 204, 204)" stroke-width="1px"></line><line x1="72.29800224304199" y1="123.82999973297119" x2="67.29800224304199" y2="123.82999973297119" style="visibility: inherit;" fill="rgb(0, 0, 0)" stroke="rgb(204, 204, 204)" stroke-width="1px"></line><line x1="72.29800224304199" y1="106.13999977111816" x2="67.29800224304199" y2="106.13999977111816" style="visibility: inherit;" fill="rgb(0, 0, 0)" stroke="rgb(204, 204, 204)" stroke-width="1px"></line><line x1="72.29800224304199" y1="88.44999980926514" x2="67.29800224304199" y2="88.44999980926514" style="visibility: inherit;" fill="rgb(0, 0, 0)" stroke="rgb(204, 204, 204)" stroke-width="1px"></line><line x1="72.29800224304199" y1="70.75999984741212" x2="67.29800224304199" y2="70.75999984741212" style="visibility: inherit;" fill="rgb(0, 0, 0)" stroke="rgb(204, 204, 204)" stroke-width="1px"></line><line x1="72.29800224304199" y1="53.06999988555909" x2="67.29800224304199" y2="53.06999988555909" style="visibility: inherit;" fill="rgb(0, 0, 0)" stroke="rgb(204, 204, 204)" stroke-width="1px"></line><line x1="72.29800224304199" y1="35.379999923706045" x2="67.29800224304199" y2="35.379999923706045" style="visibility: inherit;" fill="rgb(0, 0, 0)" stroke="rgb(204, 204, 204)" stroke-width="1px"></line><line x1="72.29800224304199" y1="17.689999961853022" x2="67.29800224304199" y2="17.689999961853022" style="visibility: inherit;" fill="rgb(0, 0, 0)" stroke="rgb(204, 204, 204)" stroke-width="1px"></line><line x1="72.29800224304199" y1="0" x2="67.29800224304199" y2="0" style="visibility: inherit;" fill="rgb(0, 0, 0)" stroke="rgb(204, 204, 204)" stroke-width="1px"></line></g><g transform="translate(62.29800224304199, 0)"><text style="text-anchor: end; visibility: hidden; font-family: Roboto, sans-serif; font-size: 12px; font-weight: 200;" x="0" y="176.89999961853027" dx="0em" dy="0.3em" fill="rgb(33, 33, 33)" stroke="none" stroke-width="1px">0</text><text style="text-anchor: end; visibility: inherit; font-family: Roboto, sans-serif; font-size: 12px; font-weight: 200;" x="0" y="159.20999965667724" dx="0em" dy="0.3em" fill="rgb(33, 33, 33)" stroke="none" stroke-width="1px">5e-6</text><text style="text-anchor: end; visibility: hidden; font-family: Roboto, sans-serif; font-size: 12px; font-weight: 200;" x="0" y="141.51999969482424" dx="0em" dy="0.3em" fill="rgb(33, 33, 33)" stroke="none" stroke-width="1px">1e-5</text><text style="text-anchor: end; visibility: inherit; font-family: Roboto, sans-serif; font-size: 12px; font-weight: 200;" x="0" y="123.82999973297119" dx="0em" dy="0.3em" fill="rgb(33, 33, 33)" stroke="none" stroke-width="1px">1.5e-5</text><text style="text-anchor: end; visibility: hidden; font-family: Roboto, sans-serif; font-size: 12px; font-weight: 200;" x="0" y="106.13999977111816" dx="0em" dy="0.3em" fill="rgb(33, 33, 33)" stroke="none" stroke-width="1px">2e-5</text><text style="text-anchor: end; visibility: inherit; font-family: Roboto, sans-serif; font-size: 12px; font-weight: 200;" x="0" y="88.44999980926514" dx="0em" dy="0.3em" fill="rgb(33, 33, 33)" stroke="none" stroke-width="1px">2.5e-5</text><text style="text-anchor: end; visibility: hidden; font-family: Roboto, sans-serif; font-size: 12px; font-weight: 200;" x="0" y="70.75999984741212" dx="0em" dy="0.3em" fill="rgb(33, 33, 33)" stroke="none" stroke-width="1px">3e-5</text><text style="text-anchor: end; visibility: inherit; font-family: Roboto, sans-serif; font-size: 12px; font-weight: 200;" x="0" y="53.06999988555909" dx="0em" dy="0.3em" fill="rgb(33, 33, 33)" stroke="none" stroke-width="1px">3.5e-5</text><text style="text-anchor: end; visibility: hidden; font-family: Roboto, sans-serif; font-size: 12px; font-weight: 200;" x="0" y="35.379999923706045" dx="0em" dy="0.3em" fill="rgb(33, 33, 33)" stroke="none" stroke-width="1px">4e-5</text><text style="text-anchor: end; visibility: inherit; font-family: Roboto, sans-serif; font-size: 12px; font-weight: 200;" x="0" y="17.689999961853022" dx="0em" dy="0.3em" fill="rgb(33, 33, 33)" stroke="none" stroke-width="1px">4.5e-5</text><text style="text-anchor: end; visibility: hidden; font-family: Roboto, sans-serif; font-size: 12px; font-weight: 200;" x="0" y="0" dx="0em" dy="0.3em" fill="rgb(33, 33, 33)" stroke="none" stroke-width="1px">5e-5</text></g><line x1="72.29800224304199" y1="0" x2="72.29800224304199" y2="176.89999961853027" fill="rgb(0, 0, 0)" stroke="rgb(204, 204, 204)" stroke-width="1px"></line></g></g><g transform="translate(72, 0)" clip-path="url(#clip_0)"><clipPath id="clip_0"><rect width="257" height="176"></rect></clipPath><g><g><g><line x1="0" y1="0" x2="0" y2="176.89999961853027" fill="rgb(0, 0, 0)" stroke="rgb(66, 66, 66)" stroke-width="1px" opacity="0.25"></line><line x1="28.633555306328667" y1="0" x2="28.633555306328667" y2="176.89999961853027" fill="rgb(0, 0, 0)" stroke="rgb(66, 66, 66)" stroke-width="1px" opacity="0.25"></line><line x1="57.26711061265733" y1="0" x2="57.26711061265733" y2="176.89999961853027" fill="rgb(0, 0, 0)" stroke="rgb(66, 66, 66)" stroke-width="1px" opacity="0.25"></line><line x1="85.900665918986" y1="0" x2="85.900665918986" y2="176.89999961853027" fill="rgb(0, 0, 0)" stroke="rgb(66, 66, 66)" stroke-width="1px" opacity="0.25"></line><line x1="114.53422122531467" y1="0" x2="114.53422122531467" y2="176.89999961853027" fill="rgb(0, 0, 0)" stroke="rgb(66, 66, 66)" stroke-width="1px" opacity="0.25"></line><line x1="143.16777653164334" y1="0" x2="143.16777653164334" y2="176.89999961853027" fill="rgb(0, 0, 0)" stroke="rgb(66, 66, 66)" stroke-width="1px" opacity="0.25"></line><line x1="171.801331837972" y1="0" x2="171.801331837972" y2="176.89999961853027" fill="rgb(0, 0, 0)" stroke="rgb(66, 66, 66)" stroke-width="1px" opacity="0.25"></line><line x1="200.4348871443007" y1="0" x2="200.4348871443007" y2="176.89999961853027" fill="rgb(0, 0, 0)" stroke="rgb(66, 66, 66)" stroke-width="1px" opacity="0.25"></line><line x1="229.06844245062933" y1="0" x2="229.06844245062933" y2="176.89999961853027" fill="rgb(0, 0, 0)" stroke="rgb(66, 66, 66)" stroke-width="1px" opacity="0.25"></line><line x1="257.701997756958" y1="0" x2="257.701997756958" y2="176.89999961853027" fill="rgb(0, 0, 0)" stroke="rgb(66, 66, 66)" stroke-width="1px" opacity="0.25"></line></g><g><line x1="0" y1="176.89999961853027" x2="257.701997756958" y2="176.89999961853027" fill="rgb(0, 0, 0)" stroke="rgb(66, 66, 66)" stroke-width="1px" opacity="0.25"></line><line x1="0" y1="159.20999965667724" x2="257.701997756958" y2="159.20999965667724" fill="rgb(0, 0, 0)" stroke="rgb(66, 66, 66)" stroke-width="1px" opacity="0.25"></line><line x1="0" y1="141.51999969482424" x2="257.701997756958" y2="141.51999969482424" fill="rgb(0, 0, 0)" stroke="rgb(66, 66, 66)" stroke-width="1px" opacity="0.25"></line><line x1="0" y1="123.82999973297119" x2="257.701997756958" y2="123.82999973297119" fill="rgb(0, 0, 0)" stroke="rgb(66, 66, 66)" stroke-width="1px" opacity="0.25"></line><line x1="0" y1="106.13999977111816" x2="257.701997756958" y2="106.13999977111816" fill="rgb(0, 0, 0)" stroke="rgb(66, 66, 66)" stroke-width="1px" opacity="0.25"></line><line x1="0" y1="88.44999980926514" x2="257.701997756958" y2="88.44999980926514" fill="rgb(0, 0, 0)" stroke="rgb(66, 66, 66)" stroke-width="1px" opacity="0.25"></line><line x1="0" y1="70.75999984741212" x2="257.701997756958" y2="70.75999984741212" fill="rgb(0, 0, 0)" stroke="rgb(66, 66, 66)" stroke-width="1px" opacity="0.25"></line><line x1="0" y1="53.06999988555909" x2="257.701997756958" y2="53.06999988555909" fill="rgb(0, 0, 0)" stroke="rgb(66, 66, 66)" stroke-width="1px" opacity="0.25"></line><line x1="0" y1="35.379999923706045" x2="257.701997756958" y2="35.379999923706045" fill="rgb(0, 0, 0)" stroke="rgb(66, 66, 66)" stroke-width="1px" opacity="0.25"></line><line x1="0" y1="17.689999961853022" x2="257.701997756958" y2="17.689999961853022" fill="rgb(0, 0, 0)" stroke="rgb(66, 66, 66)" stroke-width="1px" opacity="0.25"></line><line x1="0" y1="0" x2="257.701997756958" y2="0" fill="rgb(0, 0, 0)" stroke="rgb(66, 66, 66)" stroke-width="1px" opacity="0.25"></line></g></g></g><g><g><line x1="0" y1="176.89999961853027" x2="257.701997756958" y2="176.89999961853027" fill="rgb(0, 0, 0)" stroke="rgb(153, 153, 153)" stroke-width="1.5px"></line></g></g><g><g><line x1="28.633555306328667" y1="0" x2="28.633555306328667" y2="176.89999961853027" fill="rgb(0, 0, 0)" stroke="rgb(153, 153, 153)" stroke-width="1.5px"></line></g></g><g><g><g><g><g><path style="fill: none;" stroke="rgb(255, 112, 67)" stroke-width="2px" d="M28.77672308286031,169.82399965165425L29.0630586359236,160.97900019583926L29.20622641245524,154.66114282603667L29.349394188986885,148.62201348080197L30.0652330716451,130.19643579077078L30.208400848176744,117.13402112730203L30.351568624708385,106.78593375113174L30.781071954303318,92.12938494921404L30.92423973083496,80.63539812388024L31.067407507366603,70.965970651308L31.353743060429892,59.520460769498285L31.496910836961533,49.84321259833967L31.640078613493177,41.21626576361404L31.926414166556466,30.382067872811323L32.06958194308811,21.055258137431256L32.49908527268304,12.731079882745332L32.64225304921468,7.788215239232336L32.78542082574632,4.873172840866501L32.92858860227796,3.1744757191196538L33.07175637880961,2.2054613065895285L33.3580919318729,1.7243439399714289L33.50125970840454,1.4858167121690695L33.64442748493619,1.3928385582036602L33.93076303799947,1.4373241658039795L34.07393081453111,1.5141513154528088L34.21709859106276,1.6103781799547887L34.3602663675944,1.7182500223729105L34.50343414412605,1.8331037169380149L34.932937473720976,2.05242842479511L35.50560857984755,2.384556055013733L35.648776356379194,2.633968370259884L35.791944132910835,2.8337515196811025L35.93511190944248,3.003752030540629L36.078279685974124,3.1558932592217444L36.221447462505765,3.2973086234913866L36.364615239037406,3.432288470003418L36.50778301556905,3.5634121547864805L36.650950792100694,3.6922221427797655L36.93728634516398,3.869779690406213L37.366789674758905,4.1267215512997515L37.50995745129055,4.331012148177712L37.653125227822194,4.503727432147931L37.79629300435384,4.657487231480358L38.08262855741713,4.8500146659819805L38.22579633394877,5.015661755655855L38.36896411048041,5.165185786908873L38.51213188701205,5.305035983113229L38.79846744007534,5.4892176557479075L38.94163521660699,5.64986243678338L39.22797076967028,5.846515711849661L39.51430632273356,6.064774083334543L39.80064187579685,6.296000661138298L39.94380965232849,6.484867236809219L40.08697742886014,6.648328108135816L40.23014520539178,6.796535259920721L40.51648075845507,6.98573110590484L40.65964853498671,7.149389539419494L40.94598408805,7.347845857506266L41.08915186458164,7.517060574282535L41.232319641113286,7.668725181804883L41.51865519417657,7.859995501231519L41.66182297070821,8.024888321876487L41.9481585237715,8.224090420709096L42.377661853366426,8.494019012378482L42.520829629898074,8.70610679636912L42.950332959493,8.983761650665686L43.093500736024644,9.200495489167897L43.523004065619574,9.48093282770383L43.66617184215122,9.699331008281947L43.952507395214504,9.930636323074452L44.095675171746144,10.119555289406538L44.23884294827779,10.283042446662423L44.38201072480943,10.43127051847254L44.52517850134108,10.570337990547658L44.66834627787272,10.703914251249307L44.81151405440437,10.834195785126898L45.09784960746765,11.012641408834273L45.24101738399929,11.169839412047716L45.38418516053094,11.314288842964778L45.52735293706258,11.45109427897163L45.95685626665752,11.68358487294555L46.10002404318915,11.873209858318923L46.67269514931573,12.187522810901765L46.81586292584737,12.426246359908081L47.10219847891066,12.669752044225062L47.2453662554423,12.865986083804268L47.38853403197394,13.033862285008416L47.53170180850559,13.184728931655103L47.67486958503723,13.325379548632121L47.96120513810052,13.51003632526396L48.247540691163806,13.721096797688688L48.39070846769545,13.897874007067708L48.53387624422709,14.054070961684115L48.677044020758736,14.197930060378168L48.820211797290376,14.334376148583617L48.963379573822024,14.466379578963489L49.24971512688531,14.645853192104619L49.392882903416954,14.803673137445914L49.536050679948595,14.948500882107298L49.679218456480235,15.085528157893126L49.82238623301188,15.217880300821248L50.25188956260681,15.447693770480306L50.82456066873338,15.78611981363458L51.11089622179667,16.08944699444037L51.25406399832831,16.321579080380424L51.39723177485996,16.510988960933485L51.5403995513916,16.674770666721923L51.68356732792324,16.823175467651595L51.96990288098653,17.01248475465501L52.11307065751817,17.176206104313646L52.25623843404982,17.32456954309787L52.54257398711311,17.513859161281612L52.82890954017639,17.727704487105076L53.11524509323968,17.95628323751233L53.25841286977132,18.143561116745722L53.40158064630297,18.306063621742332L53.687916199366256,18.503831531185924L53.8310839758979,18.672628054308692L53.97425175242954,18.82404174563896L54.11741952896118,18.965025737893715L54.26058730549283,19.099751910703173L54.546922858556115,19.280848872366892L54.690090635087756,19.439647975289304L54.833258411619404,19.585058066031763L54.976426188151045,19.722445046401468L55.119593964682686,19.85501301207989L55.26276174121433,19.98468442047592L55.40592951774597,20.11261789450254L55.835432847340904,20.33979045975594L55.978600623872545,20.526224627896987L56.121768400404186,20.68822090623822L56.26493617693583,20.83554930223198L56.69443950653076,21.074348523730464L56.98077505959405,21.317899611542753L57.12394283612569,21.514166041686753L57.26711061265733,21.682056528762157L57.410278389188974,21.832921449996412L57.69661394225226,22.023717106117775L57.83978171878391,22.188330277247182L57.98294949531555,22.337233957381443L58.1261172718472,22.476706794451026L58.41245282491048,22.660656903138356L58.55562060144212,22.821167894274954L58.69878837797377,22.967599969478353L58.84195615450541,23.10560528899219L58.98512393103706,23.238539109689487L59.27145948410035,23.41857095702107L59.55779503716363,23.62685647186566L59.70096281369527,23.80196355822903L59.98729836675856,24.00729421649265L60.1304661432902,24.18062838890741L60.27363391982185,24.334769818280485L60.41680169635349,24.477385304893325L60.55996947288513,24.61308522585005L60.84630502594842,24.794776733337294L60.98947280248006,24.953927415286245L61.13264057901171,25.09954845344462L61.562143908606636,25.33732840870946L61.84847946166992,25.580262788313984L61.991647238201566,25.776164342000918L62.134815014733206,25.94384105166967L62.277982791264854,26.094577706459926L62.421150567796495,26.235160625258292L62.56431834432814,26.3696410055263L62.707486120859784,26.50045986267611L62.850653897391425,26.629086954422604L62.993821673923065,26.756398986927124L63.280157226986354,26.933052612875464L63.423325003518,27.08918571436864L63.70966055658129,27.28312683324258L63.85282833311293,27.449632430491164L63.99599610964457,27.599671566296895L64.13916388617622,27.739825676769343L64.28233166270786,27.874053920509407L64.4254994392395,28.004726644210095L64.85500276883442,28.233527313865093L64.99817054536608,28.420948641582314L65.14133832189772,28.583537215669235L65.28450609842936,28.731220989110412L65.57084165149264,28.92010280808833L65.7140094280243,29.08356252846406L65.85717720455592,29.231774138146136L66.00034498108758,29.37083688141198L66.28668053415088,29.55454608228467L66.4298483106825,29.714907380264904L67.14568719334072,30.06179274940088L67.43202274640402,30.370190377328097L67.57519052293566,30.605364731541034L67.86152607599894,30.84674089898199L68.0046938525306,31.041702376903185L68.14786162906222,31.208809892644897L68.29102940559387,31.35921017954654L68.57736495865717,31.549727055068338L68.7205327351888,31.71417295783803L68.86370051172045,31.862971128488834L69.0068682882521,32.00238580833593L69.15003606478372,32.1361652452332L69.29320384131537,32.26657383329575L69.43637161784702,32.3949496151223L69.57953939437867,32.522110861674825L69.86587494744195,32.69867401605198L70.0090427239736,32.854742537667285L70.29537827703687,33.048655205549665L70.43854605356852,33.21513343526812L71.0112171596951,33.5155634829256L71.15438493622673,33.74595728897672L71.29755271275839,33.934329350063955L71.44072048929002,34.09748836417291L71.58388826582167,34.24551440162731L71.72705604235331,34.38446580155654L72.29972714847989,34.66837460287291L72.44289492501153,34.88885566111935L72.58606270154317,35.07128007352381L72.72923047807481,35.230865349955515L72.87239825460647,35.37675229327113L73.0155660311381,35.514420236717115L73.30190158420139,35.697292557697885L73.44506936073303,35.857146579275394L73.58823713726468,36.00319991814608L73.73140491379631,36.14095740198991L73.87457269032797,36.2737476697528L74.0177404668596,36.40355760786716L74.30407601992289,36.58172027411657L74.44724379645453,36.73874850285522L74.59041157298618,36.88310121755501L74.73357934951781,37.019848623831514L74.87674712604947,37.152027696586416L75.16308267911276,37.33160669515259L75.59258600870768,37.589751129726906L75.87892156177097,37.84490934538469L76.0220893383026,38.04814520070356L76.16525711483426,38.2202173428839L76.3084248913659,38.37359640564871L76.45159266789754,38.5157544722966L77.0242637740241,38.80159242211177L77.16743155055576,39.02322582098986L77.45376710361906,39.256472266762316L77.74010265668234,39.49669683760664L77.88327043321398,39.69096220910221L78.02643820974562,39.857657209456185L78.16960598627726,40.00780998712516L78.3127737628089,40.14803743118316L78.45594153934056,40.28230452660694L78.59910931587218,40.413000561317816L78.74227709240384,40.54155395960098L78.88544486893548,40.668821776027485L79.17178042199876,40.845448872329L79.3149481985304,41.00155575909891L79.45811597506206,41.145360817085056L79.6012837515937,41.28177448086578L79.88761930465698,41.463894234047395L80.03078708118862,41.62329671494536L80.3171226342519,41.81921490686496L80.46029041078356,41.986901599473335L80.6034581873152,42.13764424402735L80.74662596384685,42.27822560821639L80.88979374037848,42.41271020418641L81.03296151691013,42.543536739225026L81.17612929344178,42.672163289237226L81.31929706997342,42.79947499670113L81.46246484650506,42.92599779863609L81.6056326230367,43.05204725725367L82.17830372916328,43.32821489378302L82.32147150569492,43.544051253157264L82.46463928222657,43.72368369777081L82.75097483528985,43.931734719452145L82.8941426118215,44.10669596144995L83.46681371794807,44.41221581647508L83.75314927101135,44.69579413593577L83.896317047543,44.91607175660117L84.03948482407465,45.098379254924644L84.46898815366957,45.358165937820914L84.61215593020121,45.564168576547694L84.75532370673285,45.737911085707985L84.8984914832645,45.89228722019316L85.04165925979615,46.03505382680845L85.18482703632779,46.17084441976664L85.32799481285943,46.302454552998164L85.47116258939107,46.431551261926074L85.61433036592271,46.559145064739454L85.75749814245437,46.68583197541647L85.900665918986,46.81198504774688L86.04383369551765,46.93780237166654L86.18700147204929,47.063433691942556L86.33016924858094,47.188943113097146L86.61650480164423,47.364520320703136L86.90284035470751,47.570138200179954L87.04600813123915,47.74364470532264L87.18917590777079,47.89787923739724L87.33234368430244,48.04055573409862L87.76184701389737,48.27657411295687L87.90501479042901,48.46831062079321L88.04818256696065,48.63348830295164L88.19135034349229,48.7827255412357L88.62085367308723,49.022680365043556L88.76402144961887,49.21678388831727L89.05035700268216,49.433512408727125L89.19352477921379,49.613685298429644L89.47986033227708,49.822060587164344L89.62302810880874,49.99722153786178L89.76619588534037,50.152448737269246L89.90936366187202,50.29572083437034L90.1956992149353,50.48195049907661L90.33886699146694,50.643824075357L90.48203476799858,50.79108914704939L90.91153809759352,51.029845225499486L91.05470587412516,51.223234650026136L91.1978736506568,51.38940408219874L91.34104142718846,51.53924151895889L91.48420920372008,51.679279758471594L91.62737698025174,51.813438479635835L91.77054475678338,51.94406434132338L91.91371253331504,52.07257563579253L92.2000480863783,52.24994881891961L92.34321586290996,52.40651365472005L92.48638363944158,52.55058833365694L92.62955141597324,52.68716377000806L93.20222252209982,52.969646993177584L93.34539029863146,53.18927785300348L93.4885580751631,53.37118699788803L93.63172585169474,53.53046826227537L93.77489362822638,53.676167649896804L94.06122918128968,53.86385883738287L94.34756473435296,54.076739956320104L94.63390028741625,54.304735034128065L94.77706806394788,54.491673006737045L94.92023584047953,54.653966419291464L95.20657139354283,54.85161402173731L95.34973917007446,55.02033836066141L95.49290694660611,55.171703593004885L95.7792424996694,55.36279943579179L95.92241027620103,55.52758757045294L96.06557805273268,55.67659622870622L96.20874582926433,55.816132052647205L96.49508138232761,56.00011995345742L96.63824915885925,56.16065361986777L96.7814169353909,56.30710959717056L97.21092026498583,56.545380218986864L97.35408804151747,56.73847836953325L97.49725581804911,56.90447818578529L97.64042359458075,57.0542138529931L97.7835913711124,57.194185882306805L97.92675914764405,57.328304877351655L98.06992692417568,57.45890690336756L98.35626247723897,57.63753452542273L98.49943025377063,57.79485202458001L98.64259803030225,57.9393731530634L98.78576580683391,58.07622675607762L98.92893358336555,58.20846954687518L99.07210135989719,58.33795614727789L99.50160468949213,58.56604514295415L99.64477246602377,58.753034317816535L99.93110801908705,58.96549422917959L100.07427579561869,59.1431111019216L100.21744357215034,59.29981185455582L100.50377912521363,59.49409871258195L100.64694690174527,59.66081175332185L100.79011467827692,59.8109702067548L101.21961800787184,60.05147261118439L101.36278578440347,60.24590983129874L101.50595356093513,60.41270279235634L101.64912133746677,60.56291434644752L101.79228911399842,60.70317705635884L101.93545689053005,60.83747045976224L102.0786246670617,60.96818227926091L102.22179244359334,61.096739999949094L102.36496022012498,61.22400526135102L102.65129577318827,61.40063597310536L102.79446354971992,61.55675532608218L102.93763132625156,61.7005524183897L103.0807991027832,61.836976748165995L103.22396687931484,61.9689568265532L103.36713465584648,62.09828579950972L103.65347020890977,62.27614444126164L104.08297353850472,62.533266958682624L104.65564464463128,62.88807843049402L104.94198019769456,63.201236868494085L105.08514797422622,63.43926256028313L105.22831575075786,63.63221890128078L105.3714835272895,63.79812333486837L105.51465130382114,63.94779662400992L105.65781908035278,64.08773637495146L105.80098685688444,64.22183600297299L105.94415463341606,64.35243670571012L106.08732240994772,64.4809277563414L106.23049018647936,64.60815816417679L106.373657963011,64.73462703786703L106.51682573954264,64.86064413953777L106.65999351607428,64.98638502952922L106.94632906913756,65.16210111843729L107.08949684566922,65.31766654923875L107.51900017526414,65.56140799162185L107.80533572832744,65.80792441196492L107.94850350485908,66.00597004162738L108.09167128139072,66.17493319688145L108.23483905792236,66.3264417190229L108.37800683445401,66.46748260976437L108.6643423875173,66.65238384759006L109.23701349364386,66.96385740317672L109.38018127017551,67.20087216551774L109.52334904670715,67.39322194884652L109.80968459977043,67.6088982252894L109.95285237630209,67.78843976861175L110.09602015283373,67.94629532359417L110.23918792936537,68.09114443404023L110.52552348242865,68.2783254552211L110.81185903549193,68.4909056228428L111.24136236508687,68.76885075885043L111.81403347121345,69.13615837604766L112.38670457734003,69.55708348195861L112.52987235387165,69.859771748728L112.67304013040331,70.09152306048003L112.9593756834666,70.33084540244447L113.10254345999823,70.52456428814453L113.24571123652989,70.69093397125498L113.38887901306153,70.84088641011026L113.53204678959317,70.9809987993476L113.81838234265645,71.16533521356945L113.9615501191881,71.32606769109155L114.10471789571974,71.47264295506142L114.24788567225139,71.61072131666616L114.39105344878303,71.7437041110856L114.53422122531467,71.87362956519387L114.82055677837795,72.05185381833826L114.9637245549096,72.20892414768147L115.10689233144124,72.35329954851022L115.39322788450453,72.54019634392068L115.67956343756782,72.75260855031397L115.82273121409945,72.93018135467136L115.9658989906311,73.0868633889762L116.10906676716274,73.23100838701569L116.53857009675768,73.46789499550783L116.68173787328932,73.6601575895921L116.9680734263526,73.8757892751897L117.11124120288424,74.05530406400484L117.2544089794159,74.21314871475053L117.39757675594754,74.35798613418696L117.54074453247918,74.49502693753922L117.82708008554246,74.67752040023001L117.97024786207412,74.83714710683347L118.2565834151374,75.03319468570876L118.39975119166904,75.20095643625676L118.5429189682007,75.35175441250973L118.68608674473232,75.49236382725056L118.82925452126398,75.62686267931784L119.2587578508589,75.85796417446043L119.40192562739054,76.0467634232364L119.5450934039222,76.210173601491L119.68826118045382,76.35835806013415L119.97459673351712,76.54754029023324L120.40410006311204,76.81144923796113L120.5472678396437,77.01993038405448L120.69043561617534,77.19515227493328L120.83360339270698,77.35042118691716L120.97677116923862,77.49371831156411L121.11993894577026,77.62982978957508L121.5494422753652,77.86190143451768L121.69261005189684,78.05127505047224L121.97894560496012,78.26517077495821L122.12211338149177,78.44364656134017L122.26528115802341,78.60086781062599L122.40844893455505,78.74533118918647L122.5516167110867,78.88214756801315L122.98112004068163,79.11463700497758L123.12428781721327,79.30426644461288L123.26745559374491,79.46817988585065L123.41062337027655,79.61666115381611L124.26963002946641,80.00655943086741L124.55596558252971,80.34076480354383L124.69913335906134,80.59142123037249L124.84230113559299,80.79195086392629L124.98546891212463,80.96240442151517L125.12863668865629,81.11480975929129L125.41497224171957,81.30652451687018L125.55814001825121,81.47168657464033L125.70130779478285,81.62091443829144L125.84447557131449,81.76059208240629L125.98764334784613,81.89452929786421L126.13081112437779,82.02503512729696L126.41714667744107,82.20360245716842L126.56031445397271,82.36087348408033L126.70348223050435,82.50537187768407L126.846650007036,82.6422066913029L127.13298556009929,82.82457656015364L127.27615333663093,82.98413425892068L127.41932111316258,83.13000208140372L127.56248888969421,83.26765855235014L127.8488244427575,83.45051884136362L127.99199221928914,83.61037336646208L128.1351599958208,83.7564167105102L128.27832777235244,83.89418621709703L128.42149554888408,84.02697855003817L128.56466332541572,84.15678972725946L128.850998878479,84.33494026580405L129.28050220807395,84.59223534706682L129.42366998460557,84.79674817328109L129.71000553766885,85.01972999815665L130.28267664379544,85.35404933173943L130.42584442032708,85.6047818578133L130.71217997339036,85.85549035413702L130.855347749922,86.05604608092027L131.14168330298529,86.27664849766963L131.4280188560486,86.50928150263246L131.71435440911185,86.74913028628957L131.85752218564352,86.94317533394045L132.00068996217516,87.10973556575378L132.28702551523844,87.30994325975499L132.43019329177008,87.48019850514474L132.57336106830175,87.63249000406896L132.7165288448334,87.77399553241254L132.859696621365,87.90903720110907L133.00286439789664,88.040192831316L133.1460321744283,88.16902198689678L133.28919995095995,88.29645525770184L133.4323677274916,88.42304842340769L133.57553550402324,88.54914010028779L133.71870328055488,88.67493088387248L134.00503883361816,88.85067690893649L134.43454216321308,89.1065292821109L134.57770993974475,89.31017133500457L134.7208777162764,89.48248976996358L135.00721326933964,89.68614981161839L135.1503810458713,89.85847903983411L135.29354882240295,90.01201492845392L135.4367165989346,90.15427223908242L135.57988437546624,90.28975725444855L136.29572325812444,90.62172457671744L136.4388910346561,90.87103817330159L136.86839436425103,91.17102851515429L137.01156214078267,91.40115592348873L137.15472991731434,91.58936814594598L137.29789769384595,91.75242868264316L137.4410654703776,91.90040335635186L137.87056879997255,92.13959291871308L138.0137365765042,92.33324243358643L138.15690435303583,92.49956534573326L138.30007212956744,92.64949487047797L138.4432399060991,92.78958578854758L138.58640768263075,92.92377611684597L138.7295754591624,93.0544235170478L138.87274323569403,93.18294516039171L139.01591101222567,93.31019134962085L139.15907878875734,93.43667226638117L139.30224656528898,93.56269659389395L139.4454143418206,93.68844696785823L139.7317498948839,93.86416617291621L139.87491767141555,94.0197360476414L140.0180854479472,94.16321117569932L140.16125322447883,94.2994294557569L140.30442100101047,94.43129877548182L140.44758877754214,94.56055357053958L140.59075655407375,94.68823707656325L140.7339243306054,94.81498810610167L140.87709210713703,94.94116677857993L141.30659543673198,95.16728131443668L141.59293098979526,95.40321644239637L141.7360987663269,95.59491587086258L142.0224343193902,95.8102019343879L142.30876987245347,96.03964512741634L142.45193764898514,96.22744424645619L142.59510542551678,96.39026206957051L142.7382732020484,96.53808596666192L142.88144097858003,96.67691093390577L143.16777653164334,96.86047489493147L143.31094430817498,97.0207490490035L143.88361541430154,97.31745150280557L144.02678319083319,97.54560875254342L144.16995096736483,97.73263887984271L144.3131187438965,97.89499273367892L144.45628652042814,98.04253567496963L144.74262207349142,98.23133299465728L144.88578985002306,98.3947471639265L145.17212540308634,98.59306207193362L145.31529317961798,98.76218421996069L145.74479650921293,99.01406226691296L145.88796428574457,99.21532229830711L146.0311320622762,99.38621409460023L146.17429983880783,99.5388849498327L146.3174676153395,99.68062066619497L146.46063539187114,99.81579787346897L146.60380316840278,99.94703997528997L146.74697094493442,100.07592101383915L146.89013872146606,100.2033828401915L147.03330649799773,100.3299957134595L147.17647427452937,100.4560940664093L147.31964205106098,100.58188885563578L147.6059776041243,100.7576347098511L147.89231315718757,100.9633512030597L148.0354809337192,101.13691687644148L148.3218164867825,101.34132783538374L148.46498426331414,101.5141076139719L148.60815203984578,101.66791125858141L148.89448759290906,101.86046242602654L149.03765536944073,102.02612890395021L149.323990922504,102.22579519715003L149.46715869903562,102.39572817629275L149.75349425209893,102.59795694445775L150.0398298051622,102.81956833450381L150.46933313475716,103.10293735243363L150.61250091128878,103.32309196641434L151.04200424088373,103.60558949293879L151.328339793947,103.87535956376666L151.47150757047865,104.08735223525241L151.61467534701032,104.26468361560046L151.90101090007357,104.47135142448869L152.0441786766052,104.64548788727825L152.18734645313685,104.80010554240857L152.6168497827318,105.04327831938897L152.76001755926342,105.23931776303387L153.04635311232673,105.45721298413397L153.33268866539,105.68821652323966L153.47585644192165,105.87695442415969L153.90535977151657,106.14059677438013L154.19169532457988,106.39905373942561L154.33486310111152,106.6042636959095L154.47803087764316,106.77752287302263L154.76436643070645,106.98174735996993L154.90753420723811,107.1544178295949L155.05070198376973,107.30815588882652L155.19386976030137,107.45053450182208L155.337037536833,107.58609744707601L155.48020531336468,107.71756841745118L155.62337308989632,107.84658162866532L155.76654086642796,107.9741227586166L155.9097086429596,108.10078578827776L156.05287641949124,108.22691680929728L156.19604419602288,108.35272862513179L156.48237974908616,108.5284846953119L156.6255475256178,108.68407411487658L156.91188307868111,108.87769674729482L157.19821863174437,109.09414188165894L157.341386408276,109.27414473973404L157.77088973787096,109.5325486384813L157.9140575144026,109.7377241809525L158.2003930674659,109.96109848711461L158.34356084399752,110.1452588482685L158.48672862052916,110.30588826818361L158.6298963970608,110.4524016975893L158.77306417359247,110.59044295845551L159.05939972665576,110.77353926988845L159.2025675031874,110.93353025997102L159.48890305625068,111.1297964089338L159.63207083278232,111.29768930153425L159.9184063858456,111.49868886930633L160.06157416237724,111.66942438742622L160.2047419389089,111.82200404998852L160.34790971544055,111.96368762498253L160.4910774919722,112.09883097320171L160.6342452685038,112.23005275958985L160.77741304503547,112.35891903464557L160.9205808215671,112.48637457713558L161.4932519276937,112.76338586398842L161.63641970422532,112.97972841355671L161.77958748075696,113.1596697207543L161.9227552572886,113.31777028252945L162.06592303382027,113.46275867434977L162.2090908103519,113.59988748689855L162.35225858688355,113.73230055188444L162.4954263634152,113.86188416833257L162.63859413994683,113.98976754142426L163.2112652460734,114.2670381008719L163.35443302260504,114.48353621399707L163.4976007991367,114.663568285095L163.64076857566835,114.82172330521034L163.7839363522,114.96675209473618L164.07027190526327,115.15403320066348L164.2134396817949,115.31653764167648L164.35660745832655,115.46417350950708L164.64294301138983,115.65302658511865L164.7861107879215,115.8164742079422L165.07244634098475,116.01481176231573L165.35878189404806,116.23408327561927L165.5019496705797,116.41578196105802L165.64511744711135,116.57493694977786L166.07462077670627,116.82083470114577L166.2177885532379,117.01850140672177L166.36095632976955,117.18723720752395L166.5041241063012,117.33861189122804L166.64729188283283,117.47957247890712L166.7904596593645,117.61428460897119L166.93362743589614,117.74524766446623L167.2199629889594,117.92409447844264L167.36313076549106,118.08153834428514L167.792634095086,118.32640684769281L167.93580187161763,118.52346630142785L168.5084729777442,118.8422347865601L168.7948085308075,119.13376485831887L168.93797630733914,119.35881867883073L169.08114408387078,119.54398417436063L169.22431186040242,119.7052192491352L169.3674796369341,119.85209607145656L169.5106474134657,119.99035794230595L169.94015074306066,120.22371982295162L170.0833185195923,120.4138701545618L170.22648629612394,120.57809613098456L170.36965407265558,120.72675977159341L170.5128218491872,120.86609630764913L170.7991574022505,121.04996720996196L171.08549295531378,121.26056130626289L171.22866073184542,121.43705354150002L171.3718285083771,121.59308208586513L171.65816406144035,121.7869707673974L171.801331837972,121.95343717953958L171.94449961450366,122.10345280428149L172.0876673910353,122.24359538234943L172.23083516756694,122.37781670664681L172.37400294409858,122.50848270444804L172.51717072063022,122.6370129321178L172.6603384971619,122.76426684617627L172.8035062736935,122.89075368495104L172.94667405022514,123.0167828527894L173.51934515635173,123.29293831485127L173.80568070941501,123.55890185988468L173.94884848594666,123.76861447724444L174.0920162624783,123.944576538L174.23518403900994,124.10028697767613L174.37835181554158,124.24385030605534L174.80785514513653,124.48038919986818L175.09419069819978,124.7225840910691L175.52369402779473,125.01830320969185L175.66686180432637,125.24587174543902L175.95319735738968,125.48268056044982L176.0963651339213,125.67490033979603L176.38270068698458,125.89050247520005L176.95537179311117,126.2203991435675L177.0985395696428,126.4684716349277L177.24170734617445,126.66745090720038L177.3848751227061,126.83697296090371L177.52804289923773,126.98882068346543L178.10071400536432,127.28046985259508L178.38704955842758,127.55572833475229L178.53021733495925,127.7710192015032L178.81655288802253,128.0004614151163L178.95972066455417,128.18825865939002L179.38922399414912,128.4513417640903L179.53239177068073,128.65932740436705L179.67555954721237,128.83425327887284L179.96189510027568,129.0394777842557L180.24823065333896,129.26288532951554L180.3913984298706,129.44706177277735L180.53456620640225,129.60770341619104L180.82090175946553,129.80435738291868L180.96406953599717,129.97248039194426L181.25040508906048,130.1736244651559L181.39357286559212,130.34444539942263L181.53674064212376,130.49707373743925L181.82307619518704,130.68891972092862L181.96624397171868,130.85416308847888L182.10941174825032,131.0034435993487L182.25257952478196,131.14314639621034L182.3957473013136,131.27710385178392L182.53891507784527,131.4076153897016L182.96841840744017,131.63632449635438L183.11158618397184,131.82368058933508L183.39792173703512,132.03636451291982L183.54108951356676,132.21410935741036L183.6842572900984,132.37089075444442L183.82742506663007,132.51509537012143L184.11376061969332,132.70188840732396L184.25692839622496,132.86409871998518L184.4000961727566,133.01156068503852L184.54326394928827,133.15017106729331L184.97276727888317,133.38374205478223L185.11593505541484,133.57402042473217L185.25910283194648,133.73831807569115L185.9749417146047,134.08756911796507L186.26127726766796,134.3973925853595L186.54761282073127,134.6835543593587L186.69078059726291,134.90538591409796L186.83394837379456,135.0886206243981L187.26345170338948,135.3489636344804L187.40661947992112,135.55530264375258L187.54978725645276,135.7292418267725L187.69295503298443,135.88374111404107L187.83612280951607,136.02657388962498L187.9792905860477,136.162409332432L188.12245836257935,136.29404508845587L188.265626139111,136.423159745293L188.55196169217427,136.6009000943085L188.69512946870591,136.7576800811744L188.9814650217692,136.95201705397335L189.12463279830087,137.11875244087554L189.2678005748325,137.26892816335658L189.41096835136412,137.4091655129511L189.84047168095907,137.6437126808438L189.9836394574907,137.83457675903605L190.269975010554,138.0493641866308L190.41314278708566,138.2283724206443L190.55631056361727,138.38591185139205L190.69947834014891,138.53057000018043L190.84264611668056,138.66749937979316L190.98581389321222,138.79979278501742L191.12898166974387,138.92930331849166L191.2721494462755,139.05714541603282L191.41531722280715,139.18398645201412L191.5584849993388,139.310220415475L191.84482055240207,139.48622977423096L191.9879883289337,139.64197116694112L192.274323881997,139.83568498324664L192.41749165852866,140.00204905048656L192.70382721159194,140.20213775862683L192.84699498812356,140.37232547385068L193.13333054118687,140.57470708366444L193.2764983177185,140.74627182700928L193.41966609425015,140.8993451633559L193.5628338707818,141.04132365550356L193.70600164731346,141.1766413797812L193.84916942384507,141.30796779180434L194.13550497690835,141.48703261969766L194.27867275344002,141.64460729389026L194.42184052997166,141.78928658874554L194.70817608303494,141.976364433455L194.85134385956658,142.13874563062038L195.13767941262986,142.33644461671594L195.2808471891615,142.50519849871296L195.42401496569315,142.65658403113397L195.5671827422248,142.7975524151601L195.71035051875646,142.9322640745648L195.8535182952881,143.06322427343042L195.99668607181974,143.19193617020636L196.5693571779463,143.46970384386458L196.71252495447794,143.68649893839924L196.85569273100958,143.86671177257662L197.1420282840729,144.07510716664555L197.2851960606045,144.25028018054354L197.42836383713615,144.40551847922202L197.71469939019946,144.59893172622543L198.00103494326274,144.8152447937562L198.28737049632602,145.04530290207094L198.5737060493893,145.28360803485612L198.86004160245258,145.52686138232355L199.00320937898425,145.7229478811437L199.1463771555159,145.8907355578924L199.28954493204753,146.04154136716443L199.57588048511082,146.23229512052396L199.71904826164246,146.39688186287938L199.8622160381741,146.54576968574924L200.00538381470574,146.68523300846016L200.14855159123738,146.81904549242643L200.29171936776905,146.9494674731459L200.72122269736394,147.17812541971358L200.8643904738956,147.3654559651108L201.29389380349053,147.62825905048518L201.43706158002217,147.83607539204948L201.58022935655384,148.0108996873278L201.8665649096171,148.216065819408L202.00973268614874,148.38929484052818L202.4392360157437,148.64363829845325L202.58240379227533,148.8463775764311L202.72557156880694,149.0181569206744L203.01190712187025,149.2214935078998L203.1550748984019,149.39362995057473L203.44141045146517,149.59718208397604L203.58457822799684,149.76944849791496L203.72774600452848,149.922942836618L203.8709137810601,150.065174573738L204.1572493341234,150.25078002245561L204.58675266371833,150.51254804982221L204.72992044024997,150.7197427130234L205.1594237698449,150.9944636255217L205.30259154637653,151.2094319504773L205.4457593229082,151.38854872290725L205.58892709943984,151.54615263314648L206.01843042903477,151.79112102454292L206.30476598209805,152.03836717870954L206.4479337586297,152.23685000510764L206.59110153516133,152.40607483484465L206.73426931169297,152.5577435794681L206.87743708822464,152.69887867302347L207.02060486475628,152.83369550661328L207.1637726412879,152.9647194535484L207.30694041781953,153.0934695991661L207.59327597088284,153.27098995433303L207.73644374741448,153.4276366577729L207.87961152394612,153.57175981373496L208.02277930047777,153.70836819765194L208.30911485354105,153.89060349579842L208.59545040660433,154.100209794015L208.738618183136,154.27610870684313L209.16812151273092,154.53205345623448L209.31128928926256,154.73575543976742L209.59762484232584,154.95824625412507L209.74079261885748,155.14187523307936L209.88396039538912,155.30218711079164L210.02712817192076,155.44850937131716L210.17029594845243,155.58643786153064L210.31346372498408,155.71933008955688L210.742967054579,155.94946567959948L210.88613483111064,156.13768152396477L211.31563816070556,156.40101578871995L211.45880593723723,156.6091514814712L211.60197371376887,156.78416803102013L211.74514149030048,156.9393124510892L211.88830926683212,157.0825342370288L212.0314770433638,157.21860179893224L212.31781259642707,157.40051260387062L212.46098037295872,157.55979357717337L212.747315926022,157.75562856760064L212.89048370255364,157.92326405219669L213.17681925561692,158.12411496719218L213.46315480868023,158.34489514042735L213.60632258521187,158.52749837826659L213.7494903617435,158.68719481130987L213.89265813827512,158.83314780503397L214.17899369133843,159.0209892255063L214.32216146787007,159.18382921168785L214.60849702093336,159.38180282763466L214.75166479746503,159.55071762619173L215.03800035052828,159.75233741668075L215.18116812705992,159.92344313775544L215.46750368012323,160.12637683819653L215.61067145665487,160.29827154880093L215.7538392331865,160.4515435090617L215.89700700971815,160.5936418191163L216.32651033931307,160.82930556328512L216.46967811584472,161.0208383001261L216.61284589237636,161.18589307612882L216.75601366890803,161.3350604320702L216.89918144543967,161.47469211818247L217.0423492219713,161.60860497663109L217.47185255156623,161.8393580933947L217.61502032809787,162.02794509735108L217.7581881046295,162.19123243362301L217.90135588116115,162.3393393257259L218.04452365769282,162.47833859488577L218.18769143422446,162.61187264672142L218.33085921075607,162.74212821172097L218.47402698728771,162.87041668461885L218.61719476381938,162.9975242586973L218.90353031688267,163.17405456603151L219.18986586994595,163.3802423746699L219.61936919954087,163.65435981798896L219.90570475260418,163.91910055177672L220.3352080821991,164.22834942840615L220.76471141179402,164.56430319074062L220.90787918832567,164.81601058203947L221.19421474138895,165.06730045792668L221.33738251792062,165.26820919557795L221.62371807098387,165.48902438418583L221.7668858475155,165.67164830946945L221.91005362404718,165.8313577985378L222.19638917711046,166.02745311621666L222.3395569536421,166.19524544072215L222.6258925067054,166.3961904596633L222.76906028323702,166.56689228314693L222.91222805976867,166.71944851113523L223.0553958363003,166.86111706004718L223.19856361283198,166.99624914016255L223.48489916589526,167.17759801246967L223.77123471895854,167.38667728187102L223.91440249549018,167.56225933385153L224.05757027202182,167.71774369893797L224.20073804855346,167.86116913010878L224.3439058250851,167.9973592009302L224.48707360161674,168.12920837732122L224.6302413781484,168.25845269527474L225.20291248427498,168.5365385345226L225.34608026080662,168.75352098883954L225.48924803733826,168.93384527354863L225.6324158138699,169.09217530005148L225.77558359040154,169.23730748451365L226.20508691999646,169.47479155332698L226.3482546965281,169.66741712851314L226.49142247305977,169.83312728574379L227.06409357918633,170.1330931112267L227.20726135571797,170.363207579525L227.35042913224962,170.551406889493L227.49359690878126,170.71446144848235L227.77993246184454,170.91256396900343L227.9231002383762,171.081560293435L228.2094357914395,171.28322787322142L228.3526035679711,171.45436339410182L228.6389391210344,171.65731449175752L228.78210689756605,171.8292201233595L229.06844245062933,172.03263344833778L229.211610227161,172.20481609455408L229.49794578022426,172.40839128428138L229.6411135567559,172.58067137112633L229.78428133328757,172.7341742353522L229.9274491098192,172.8764109268963L230.07061688635085,173.0118879148313L230.2137846628825,173.14330891971122L230.35695243941413,173.2722964956477L230.6432879924774,173.44995882633708L231.07279132207233,173.70696090244192L231.35912687513564,173.96143193323232L231.50229465166728,174.16424952471507L231.6454624281989,174.33607078903856L231.9317979812622,174.53943325231532L232.2181335343255,174.76172059585363L232.36130131085713,174.94522789454038L232.79080464045205,175.20573695144364L232.9339724169837,175.41217731837173L233.07714019351536,175.58617639086992L233.220307970047,175.74071076715498L233.64981129964193,175.9838319075985L233.7929790761736,176.17983948442836L233.9361468527052,176.34757892309L234.07931462923685,176.49835749393412L234.2224824057685,176.63895953905995" fill="none"></path></g></g></g></g><g opacity="0.2"><g><g><g><path style="fill: none;" stroke="rgb(255, 112, 67)" stroke-width="2px" d="M28.77672308286031,169.82399965165425L29.0630586359236,155.67200052235026L29.20622641245524,148.59599975102617L29.349394188986885,141.51999737080595L30.0652330716451,106.14000155866611L30.208400848176744,99.0639991784459L30.351568624708385,91.98800323381018L30.781071954303318,70.75999609314954L30.92423973083496,63.68400014851382L31.067407507366603,56.60799776829361L31.353743060429892,42.45600587902217L31.496910836961533,35.380003498801955L31.640078613493177,28.304013989750732L31.926414166556466,14.15199635814131L32.06958194308811,7.0760068490900885L32.49908527268304,0.25068335615290294L32.64225304921468,0.3760099286254257L32.78542082574632,0.5013493722669402L32.92858860227796,0.6266888159084547L33.07175637880961,0.7520282595499692L33.3580919318729,1.0026942756640065L33.50125970840454,1.128033719305521L33.64442748493619,1.2533731629470355L33.93076303799947,1.5040520502300645L34.07393081453111,1.629391493871579L34.21709859106276,1.7547180663441018L34.3602663675944,1.8800575099856163L34.50343414412605,2.0053840824581393L34.932937473720976,2.3814152845516743L35.50560857984755,2.882747316779749L35.648776356379194,3.0080867604212633L35.791944132910835,3.133426204062778L35.93511190944248,3.2587527765353004L36.078279685974124,3.384105091345807L36.221447462505765,3.5094316638183294L36.364615239037406,3.6347582362908524L36.50778301556905,3.760097679932367L36.650950792100694,3.8854371235738814L36.93728634516398,4.13611601085691L37.366789674758905,4.512134341781454L37.50995745129055,4.637448043084985L37.653125227822194,4.762800357895491L37.79629300435384,4.8881269303680135L38.08262855741713,5.138805817651043L38.22579633394877,5.2641323901235655L38.36896411048041,5.38947183376508L38.51213188701205,5.5148112774065945L38.79846744007534,5.7654901646896235L38.94163521660699,5.8908296083311384L39.22797076967028,6.1414956244451755L39.51430632273356,6.3921616405592125L39.80064187579685,6.6428405278422415L39.94380965232849,6.7681671003147645L40.08697742886014,6.8935194151252706L40.23014520539178,7.0188459875977935L40.51648075845507,7.2695248748808226L40.65964853498671,7.394877189691329L40.94598408805,7.6455303346363745L41.08915186458164,7.770882649446881L41.232319641113286,7.8962220930883955L41.51865519417657,8.146900980371424L41.66182297070821,8.272227552843948L41.9481585237715,8.522893568957985L42.377661853366426,8.898911899882528L42.520829629898074,9.02423847235505L42.950332959493,9.400243932110602L43.093500736024644,9.525596246921108L43.523004065619574,9.901588835507669L43.66617184215122,10.026928279149184L43.952507395214504,10.27759429526322L44.095675171746144,10.402933738904736L44.23884294827779,10.528273182546249L44.38201072480943,10.653612626187764L44.52517850134108,10.778939198660286L44.66834627787272,10.9042786423018L44.81151405440437,11.029618085943316L45.09784960746765,11.280309844395337L45.24101738399929,11.405636416867859L45.38418516053094,11.53096298934038L45.52735293706258,11.656302432981896L45.95685626665752,12.03232076390644L46.10002404318915,12.157647336378963L46.67269514931573,12.65899223977603L46.81586292584737,12.784331683417543L47.10219847891066,13.035010570700573L47.2453662554423,13.160337143173095L47.38853403197394,13.28567658681461L47.53170180850559,13.411028901625116L47.67486958503723,13.536355474097638L47.96120513810052,13.787021490211675L48.247540691163806,14.037687506325714L48.39070846769545,14.16303982113622L48.53387624422709,14.288366393608742L48.677044020758736,14.413718708419248L48.820211797290376,14.539045280891772L48.963379573822024,14.664384724533285L49.24971512688531,14.915063611816315L49.392882903416954,15.04040305545783L49.536050679948595,15.165742499099343L49.679218456480235,15.291069071571867L49.82238623301188,15.41640851521338L50.25188956260681,15.792413974968932L50.82456066873338,16.293758878366L51.11089622179667,16.54443776564903L51.25406399832831,16.669777209290544L51.39723177485996,16.795103781763064L51.5403995513916,16.92044322540458L51.68356732792324,17.045782669046094L51.96990288098653,17.296448685160133L52.11307065751817,17.421788128801644L52.25623843404982,17.547114701274168L52.54257398711311,17.797793588557198L52.82890954017639,18.048472475840228L53.11524509323968,18.299151363123254L53.25841286977132,18.424477935595778L53.40158064630297,18.549817379237293L53.687916199366256,18.800483395351332L53.8310839758979,18.925822838992843L53.97425175242954,19.05116228263436L54.11741952896118,19.176501726275873L54.26058730549283,19.301841169917388L54.546922858556115,19.552494314862432L54.690090635087756,19.677846629672942L54.833258411619404,19.803173202145462L54.976426188151045,19.92852551695597L55.119593964682686,20.053864960597483L55.26276174121433,20.179191533070007L55.40592951774597,20.304518105542527L55.835432847340904,20.680549307636063L55.978600623872545,20.805875880108587L56.121768400404186,20.931215323750102L56.26493617693583,21.056541896222626L56.69443950653076,21.432547355978176L56.98077505959405,21.683226243261206L57.12394283612569,21.80856568690272L57.26711061265733,21.93389225937524L57.410278389188974,22.059218831847765L57.69661394225226,22.309910590299786L57.83978171878391,22.4352500339413L57.98294949531555,22.560589477582816L58.1261172718472,22.685916050055337L58.41245282491048,22.936582066169375L58.55562060144212,23.06193438097988L58.69878837797377,23.18724808228341L58.84195615450541,23.31261326826291L58.98512393103706,23.43793984073543L59.27145948410035,23.68861872801846L59.55779503716363,23.9392847441325L59.70096281369527,24.064624187774015L59.98729836675856,24.31529020388805L60.1304661432902,24.440629647529565L60.27363391982185,24.56598196234007L60.41680169635349,24.691308534812595L60.55996947288513,24.816635107285116L60.84630502594842,25.067313994568146L60.98947280248006,25.19265343820966L61.13264057901171,25.317980010682184L61.562143908606636,25.693998341606726L61.84847946166992,25.944664357720765L61.991647238201566,26.07001667253127L62.134815014733206,26.195356116172785L62.277982791264854,26.32068268864531L62.421150567796495,26.446035003455815L62.56431834432814,26.571361575928336L62.707486120859784,26.69668814840086L62.850653897391425,26.822027592042375L62.993821673923065,26.94736703568389L63.280157226986354,27.198033051797925L63.423325003518,27.32338536660843L63.70966055658129,27.57403851155348L63.85282833311293,27.699390826363985L63.99599610964457,27.8247302700055L64.13916388617622,27.95005684247802L64.28233166270786,28.075396286119535L64.4254994392395,28.20073572976105L64.85500276883442,28.57672831834761L64.99817054536608,28.70208063315812L65.14133832189772,28.82742007679963L65.28450609842936,28.952746649272154L65.57084165149264,29.203425536555184L65.7140094280243,29.328752109027704L65.85717720455592,29.45409155266922L66.00034498108758,29.579430996310734L66.28668053415088,29.830109883593764L66.4298483106825,29.95544932723528L67.14568719334072,30.582120803104868L67.43202274640402,30.832786819218903L67.57519052293566,30.958126262860418L67.86152607599894,31.208805150143448L68.0046938525306,31.334144593784963L68.14786162906222,31.459471166257487L68.29102940559387,31.584810609899L68.57736495865717,31.83550236835102L68.7205327351888,31.960841811992534L68.86370051172045,32.086168384465054L69.0068682882521,32.21150782810657L69.15003606478372,32.33683440057909L69.29320384131537,32.4621867153896L69.43637161784702,32.58751328786212L69.57953939437867,32.71285273150364L69.86587494744195,32.96351874761768L70.0090427239736,33.0888453200902L70.29537827703687,33.33952420737323L70.43854605356852,33.46485077984575L71.0112171596951,33.96620855441181L71.15438493622673,34.09154799805332L71.29755271275839,34.21688744169484L71.44072048929002,34.34222688533635L71.58388826582167,34.467553457808876L71.72705604235331,34.59289290145039L72.29972714847989,35.09423780484745L72.44289492501153,35.21957724848897L72.58606270154317,35.34491669213048L72.72923047807481,35.470243264603006L72.87239825460647,35.59558270824452L73.0155660311381,35.720922151886036L73.30190158420139,35.971601039169066L73.44506936073303,36.09692761164159L73.58823713726468,36.222279926452096L73.73140491379631,36.34759362775563L73.87457269032797,36.47293307139714L74.0177404668596,36.59827251503865L74.30407601992289,36.84896427349067L74.44724379645453,36.974290845963196L74.59041157298618,37.09963028960471L74.73357934951781,37.224969733246226L74.87674712604947,37.35029630571875L75.16308267911276,37.60097519300178L75.59258600870768,37.976967781588336L75.87892156177097,38.227646668871365L76.0220893383026,38.35299898368187L76.16525711483426,38.478325556154395L76.3084248913659,38.60366499979591L76.45159266789754,38.728991572268434L77.0242637740241,39.230349346834494L77.16743155055576,39.35567591930702L77.45376710361906,39.60634193542105L77.74010265668234,39.85703369387307L77.88327043321398,39.982360266345594L78.02643820974562,40.10769970998711L78.16960598627726,40.233039153628624L78.3127737628089,40.35837859727014L78.45594153934056,40.48370516974266L78.59910931587218,40.60904461338418L78.74227709240384,40.73438405702569L78.88544486893548,40.85972350066721L79.17178042199876,41.11038951678124L79.3149481985304,41.23571608925376L79.45811597506206,41.36106840406427L79.6012837515937,41.48639497653679L79.88761930465698,41.73707386381982L80.03078708118862,41.86240043629235L80.3171226342519,42.11309219474437L80.46029041078356,42.23843163838588L80.6034581873152,42.36375821085841L80.74662596384685,42.48909765449992L80.88979374037848,42.61443709814143L81.03296151691013,42.739776541782945L81.17612929344178,42.86510311425547L81.31929706997342,42.99044255789698L81.46246484650506,43.1157820015385L81.6056326230367,43.24112144518001L82.17830372916328,43.74246634857708L82.32147150569492,43.8678057922186L82.46463928222657,43.99313236469112L82.75097483528985,44.243811251974144L82.8941426118215,44.36913782444667L83.46681371794807,44.87049559901273L83.75314927101135,45.121161615126766L83.896317047543,45.24648818759929L84.03948482407465,45.371840502409796L84.46898815366957,45.74784596216534L84.61215593020121,45.87317253463787L84.75532370673285,45.99852484944837L84.8984914832645,46.1238514219209L85.04165925979615,46.2492037367314L85.18482703632779,46.37453030920393L85.32799481285943,46.49986975284544L85.47116258939107,46.625196325317965L85.61433036592271,46.75053576895948L85.75749814245437,46.875862341432L85.900665918986,47.00121465624251L86.04383369551765,47.126528357546036L86.18700147204929,47.25188067235654L86.33016924858094,47.377207244829066L86.61650480164423,47.627886132112096L86.90284035470751,47.878565019395126L87.04600813123915,48.00390446303664L87.18917590777079,48.129231035509164L87.33234368430244,48.25457047915068L87.76184701389737,48.630601681244215L87.90501479042901,48.75591538254774L88.04818256696065,48.881254826189256L88.19135034349229,49.00658139866178L88.62085367308723,49.382612600755316L88.76402144961887,49.50793917322784L89.05035700268216,49.75860518934188L89.19352477921379,49.88394463298339L89.47986033227708,50.134623520266416L89.62302810880874,50.25996296390793L89.76619588534037,50.385289536380455L89.90936366187202,50.51062898002197L90.1956992149353,50.76129499613601L90.33886699146694,50.886634439777524L90.48203476799858,51.01198675458803L90.91153809759352,51.38797934317459L91.05470587412516,51.5133187868161L91.1978736506568,51.638658230457615L91.34104142718846,51.76399767409913L91.48420920372008,51.889337117740645L91.62737698025174,52.01467656138216L91.77054475678338,52.140003133854684L91.91371253331504,52.2653425774962L92.2000480863783,52.51600859361024L92.34321586290996,52.641360908420744L92.48638363944158,52.76670035206226L92.62955141597324,52.89202692453478L93.20222252209982,53.393371827931844L93.34539029863146,53.51872414274235L93.4885580751631,53.644050715214874L93.63172585169474,53.76939015885639L93.77489362822638,53.89471673132891L94.06122918128968,54.14539561861194L94.34756473435296,54.39606163472598L94.63390028741625,54.64672765084001L94.77706806394788,54.77207996565052L94.92023584047953,54.89740653812304L95.20657139354283,55.14808542540607L95.34973917007446,55.27342486904759L95.49290694660611,55.39875144152011L95.7792424996694,55.64944319997213L95.92241027620103,55.77476977244466L96.06557805273268,55.90010921608617L96.20874582926433,56.02543578855869L96.49508138232761,56.27610180467273L96.63824915885925,56.40145411948323L96.7814169353909,56.52679356312475L97.21092026498583,56.90278615171131L97.35408804151747,57.028125595352826L97.49725581804911,57.15347791016333L97.64042359458075,57.27881735380485L97.7835913711124,57.40414392627737L97.92675914764405,57.52948336991888L98.06992692417568,57.6548099423914L98.35626247723897,57.90547595850544L98.49943025377063,58.03082827331595L98.64259803030225,58.15615484578847L98.78576580683391,58.28150716059898L98.92893358336555,58.4068337330715L99.07210135989719,58.53218604788201L99.50160468949213,58.90817863646857L99.64477246602377,59.03351808011008L99.93110801908705,59.284184096224116L100.07427579561869,59.40953641103462L100.21744357215034,59.534862983507146L100.50377912521363,59.785528999621185L100.64694690174527,59.91088131443169L100.79011467827692,60.036207886904215L101.21961800787184,60.41222621782876L101.36278578440347,60.537565661470275L101.50595356093513,60.66289223394279L101.64912133746677,60.78823167758431L101.79228911399842,60.91357112122582L101.93545689053005,61.03891056486734L102.0786246670617,61.16425000850885L102.22179244359334,61.289576580981375L102.36496022012498,61.4149031534539L102.65129577318827,61.66558204073693L102.79446354971992,61.790934355547435L102.93763132625156,61.91624805685096L103.0807991027832,62.041613242830465L103.22396687931484,62.16692694413399L103.36713465584648,62.2922792589445L103.65347020890977,62.542932403889544L104.08297353850472,62.91895073481409L104.65564464463128,63.42029563821116L104.94198019769456,63.67097452549418L105.08514797422622,63.796301097966705L105.22831575075786,63.92165341277721L105.3714835272895,64.04697998524973L105.51465130382114,64.17230655772225L105.65781908035278,64.29764600136377L105.80098685688444,64.42298544500528L105.94415463341606,64.5483377598158L106.08732240994772,64.67366433228831L106.23049018647936,64.79900377592983L106.373657963011,64.92433034840235L106.51682573954264,65.04966979204387L106.65999351607428,65.17499636451639L106.94632906913756,65.42567525179942L107.08949684566922,65.55101469544094L107.51900017526414,65.92702015519649L107.80533572832744,66.17769904247952L107.94850350485908,66.30303848612103L108.09167128139072,66.42837792976255L108.23483905792236,66.55370450223506L108.37800683445401,66.67904394587659L108.6643423875173,66.9297357043286L109.23701349364386,67.43106773655667L109.38018127017551,67.5563943090292L109.52334904670715,67.6817466238397L109.80968459977043,67.93241263995374L109.95285237630209,68.05775208359526L110.09602015283373,68.18307865606778L110.23918792936537,68.3084180997093L110.52552348242865,68.55909698699233L110.81185903549193,68.80977587427535L111.24136236508687,69.18576846286192L111.81403347121345,69.68711980184348L112.38670457734003,70.18847114082504L112.52987235387165,70.31380414888206L112.67304013040331,70.43915002810806L112.9593756834666,70.68982891539109L113.10254345999823,70.81514261669463L113.24571123652989,70.94048849592063L113.38887901306153,71.06581506839316L113.53204678959317,71.19116738320366L113.81838234265645,71.4418398349022L113.9615501191881,71.56716640737473L114.10471789571974,71.69250585101624L114.24788567225139,71.81783885907325L114.39105344878303,71.94317830271477L114.53422122531467,72.06851774635628L114.82055677837795,72.31919019805481L114.9637245549096,72.44452964169633L115.10689233144124,72.56986264975335L115.39322788450453,72.82054153703638L115.67956343756782,73.0712268599039L115.82273121409945,73.19654056120743L115.9658989906311,73.32188644043345L116.10906676716274,73.44722588407495L116.53857009675768,73.82322490824602L116.68173787328932,73.94855148071854L116.9680734263526,74.19923680358606L117.11124120288424,74.32457624722758L117.2544089794159,74.44991569086909L117.39757675594754,74.57524226334162L117.54074453247918,74.70058814256763L117.82708008554246,74.95126059426616L117.97024786207412,75.07658716673868L118.2565834151374,75.3272660540217L118.39975119166904,75.45259906207873L118.5429189682007,75.57795137688923L118.68608674473232,75.70327794936176L118.82925452126398,75.82861095741877L119.2587578508589,76.20461641717432L119.40192562739054,76.32996229640034L119.5450934039222,76.45528886887286L119.68826118045382,76.58063474809887L119.97459673351712,76.8313136353819L120.40410006311204,77.20731265955295L120.5472678396437,77.33265210319448L120.69043561617534,77.45798511125149L120.83360339270698,77.58332455489301L120.97677116923862,77.70866399853452L121.11993894577026,77.83399700659153L121.5494422753652,78.21000890193159L121.69261005189684,78.3353354744041L121.97894560496012,78.58601436168713L122.12211338149177,78.71136024091315L122.26528115802341,78.83669968455466L122.40844893455505,78.96202625702719L122.5516167110867,79.0873721362532L122.98112004068163,79.46337116042424L123.12428781721327,79.58871060406577L123.26745559374491,79.71405004770727L123.41062337027655,79.8393830557643L124.26963002946641,80.5914068464444L124.55596558252971,80.84207286255842L124.69913335906134,80.96740587061545L124.84230113559299,81.09274531425696L124.98546891212463,81.21808475789848L125.12863668865629,81.3434177659555L125.41497224171957,81.59409665323852L125.55814001825121,81.71942966129555L125.70130779478285,81.84475623376807L125.84447557131449,81.97010854857858L125.98764334784613,82.0954351210511L126.13081112437779,82.2207938714461L126.41714667744107,82.47145345197563L126.56031445397271,82.59678002444817L126.70348223050435,82.72211946808967L126.846650007036,82.8474589117312L127.13298556009929,83.09813136342973L127.27615333663093,83.22347080707124L127.41932111316258,83.34880381512826L127.56248888969421,83.47414325876977L127.8488244427575,83.72480927488381L127.99199221928914,83.85015515410981L128.1351599958208,83.97548172658234L128.27832777235244,84.10084047697734L128.42149554888408,84.22616704944987L128.56466332541572,84.35150649309138L128.850998878479,84.60216607362092L129.28050220807395,84.97817796896098L129.42366998460557,85.10351741260249L129.71000553766885,85.35420273547001L130.28267664379544,85.8555283321136L130.42584442032708,85.98088064692409L130.71217997339036,86.23155309862263L130.855347749922,86.35687967109516L131.14168330298529,86.60755212279369L131.4280188560486,86.85823101007671L131.71435440911185,87.10890346177524L131.85752218564352,87.23424290541676L132.00068996217516,87.35957591347378L132.28702551523844,87.6102548007568L132.43019329177008,87.73558137322934L132.57336106830175,87.86092725245534L132.7165288448334,87.98625382492787L132.859696621365,88.11159970415387L133.00286439789664,88.23692627662639L133.1460321744283,88.36226572026791L133.28919995095995,88.48760516390942L133.4323677274916,88.61293817196645L133.57553550402324,88.73827761560796L133.71870328055488,88.86361705924948L134.00503883361816,89.11429594653251L134.43454216321308,89.49030784187255L134.57770993974475,89.61563441434508L134.7208777162764,89.7409674224021L135.00721326933964,89.99163987410063L135.1503810458713,90.11697288215764L135.29354882240295,90.24231876138366L135.4367165989346,90.36765820502517L135.57988437546624,90.4929847774977L136.29572325812444,91.11967556012077L136.4388910346561,91.24500856817778L136.86839436425103,91.62101402793334L137.01156214078267,91.74634703599035L137.15472991731434,91.87168647963188L137.29789769384595,91.99701948768889L137.4410654703776,92.1223653669149L137.87056879997255,92.49837726225495L138.0137365765042,92.62371670589647L138.15690435303583,92.74904971395348L138.30007212956744,92.87438915759499L138.4432399060991,92.99972216565202L138.58640768263075,93.12506160929352L138.7295754591624,93.25039461735055L138.87274323569403,93.37572762540756L139.01591101222567,93.50106063346459L139.15907878875734,93.6263936415216L139.30224656528898,93.75173308516312L139.4454143418206,93.87707252880463L139.7317498948839,94.12774498050317L139.87491767141555,94.25309085972918L140.0180854479472,94.3784238677862L140.16125322447883,94.50375687584321L140.30442100101047,94.62910275506923L140.44758877754214,94.75443576312624L140.59075655407375,94.87976233559877L140.7339243306054,95.00511465040927L140.87709210713703,95.1304347872973L141.30659543673198,95.50645311822184L141.59293098979526,95.75711913433588L141.7360987663269,95.88246501356188L142.0224343193902,96.13313102967592L142.30876987245347,96.38380991695895L142.45193764898514,96.50914292501598L142.59510542551678,96.63448880424198L142.7382732020484,96.75982181229901L142.88144097858003,96.88514838477153L143.16777653164334,97.13582083647006L143.31094430817498,97.26116028011157L143.88361541430154,97.76250518350864L144.02678319083319,97.88784462715016L144.16995096736483,98.01318407079167L144.3131187438965,98.13852351443319L144.45628652042814,98.2638500869057L144.74262207349142,98.51452897418874L144.88578985002306,98.63986841783026L145.17212540308634,98.89053443394428L145.31529317961798,99.01586744200131L145.74479650921293,99.39187933734135L145.88796428574457,99.51721234539838L146.0311320622762,99.64255178903989L146.17429983880783,99.76789123268141L146.3174676153395,99.89322424073842L146.46063539187114,100.01856368437994L146.60380316840278,100.14390312802145L146.74697094493442,100.26924257166296L146.89013872146606,100.39457557971998L147.03330649799773,100.51991502336149L147.17647427452937,100.64524159583402L147.31964205106098,100.77058103947553L147.6059776041243,101.02125349117406L147.89231315718757,101.2719259428726L148.0354809337192,101.39726538651412L148.3218164867825,101.64794427379715L148.46498426331414,101.77327728185416L148.60815203984578,101.89861672549567L148.89448759290906,102.1492891771942L149.03765536944073,102.27462862083573L149.323990922504,102.52529463694977L149.46715869903562,102.65062764500678L149.75349425209893,102.90130009670531L150.0398298051622,103.15198541957284L150.46933313475716,103.52799087932839L150.61250091128878,103.65332388738541L151.04200424088373,104.02933578272545L151.328339793947,104.28001467000848L151.47150757047865,104.40534124248101L151.61467534701032,104.53068068612252L151.90101090007357,104.78135313782106L152.0441786766052,104.90669258146256L152.18734645313685,105.03203202510409L152.6168497827318,105.40803748485963L152.76001755926342,105.53337692850116L153.04635311232673,105.78405581578419L153.33268866539,106.03472183189822L153.47585644192165,106.16006127553973L153.90535977151657,106.53606029971078L154.19169532457988,106.78673918699381L154.33486310111152,106.91207863063534L154.47803087764316,107.03741163869235L154.76436643070645,107.28808409039088L154.90753420723811,107.4134235340324L155.05070198376973,107.53876297767391L155.19386976030137,107.66410242131543L155.337037536833,107.78944186495694L155.48020531336468,107.91477487301395L155.62337308989632,108.04010144548648L155.76654086642796,108.1654344535435L155.9097086429596,108.29078033276951L156.05287641949124,108.41611334082653L156.19604419602288,108.54144634888355L156.48237974908616,108.79211880058209L156.6255475256178,108.9174582442236L156.91188307868111,109.16813069592213L157.19821863174437,109.41880958320516L157.341386408276,109.54414902684667L157.77088973787096,109.92015448660223L157.9140575144026,110.04548749465924L158.2003930674659,110.29615994635778L158.34356084399752,110.4214993899993L158.48672862052916,110.54683239805631L158.6298963970608,110.67217184169783L158.77306417359247,110.79750484975484L159.05939972665576,111.04818373703787L159.2025675031874,111.17351674509489L159.48890305625068,111.42419563237792L159.63207083278232,111.54952864043494L159.9184063858456,111.80018822096449L160.06157416237724,111.925527664606L160.2047419389089,112.05087354383201L160.34790971544055,112.17621298747352L160.4910774919722,112.30154599553053L160.6342452685038,112.42688543917205L160.77741304503547,112.55221844722907L160.9205808215671,112.67755789087059L161.4932519276937,113.17890279426766L161.63641970422532,113.30424223790916L161.77958748075696,113.42958168155069L161.9227552572886,113.5549211251922L162.06592303382027,113.68024126208022L162.2090908103519,113.80558070572174L162.35225858688355,113.93092014936325L162.4954263634152,114.05625959300477L162.63859413994683,114.18159260106178L163.2112652460734,114.68294394004334L163.35443302260504,114.80828338368487L163.4976007991367,114.93361639174188L163.64076857566835,115.0589558353834L163.7839363522,115.18429527902491L164.07027190526327,115.43495485955445L164.2134396817949,115.56029430319596L164.35660745832655,115.68562731125299L164.64294301138983,115.93630619853602L164.7861107879215,116.06164564217752L165.07244634098475,116.31231809387606L165.35878189404806,116.56299054557459L165.5019496705797,116.68832998921611L165.64511744711135,116.81366943285762L166.07462077670627,117.18968132819766L166.2177885532379,117.3150014650857L166.36095632976955,117.44034090872721L166.5041241063012,117.56567391678423L166.64729188283283,117.69101336042574L166.7904596593645,117.81635280406726L166.93362743589614,117.94169224770877L167.2199629889594,118.1923646994073L167.36313076549106,118.31770414304881L167.792634095086,118.69370960280438L167.93580187161763,118.81905548203038L168.5084729777442,119.32038751425846L168.7948085308075,119.57105996595699L168.93797630733914,119.6963994095985L169.08114408387078,119.82173241765553L169.22431186040242,119.94707186129703L169.3674796369341,120.07241130493856L169.5106474134657,120.19775074858006L169.94015074306066,120.57376264392012L170.0833185195923,120.69909565197713L170.22648629612394,120.82443509561865L170.36965407265558,120.94975523250667L170.5128218491872,121.07510111173269L170.7991574022505,121.32577356343121L171.08549295531378,121.57645245071424L171.22866073184542,121.70179189435576L171.3718285083771,121.82712490241278L171.65816406144035,122.0778037896958L171.801331837972,122.20313679775283L171.94449961450366,122.32847624139434L172.0876673910353,122.45380924945137L172.23083516756694,122.57914869309288L172.37400294409858,122.70448170114989L172.51717072063022,122.82980827362242L172.6603384971619,122.95514771726393L172.8035062736935,123.0804839431132L172.94667405022514,123.20582660454696L173.51934515635173,123.70717150794403L173.80568070941501,123.95784717743481L173.94884848594666,124.08318340328408L174.0920162624783,124.20851962913333L174.23518403900994,124.33385263719036L174.37835181554158,124.45919529862412L174.80785514513653,124.83519754058743L175.09419069819978,125.08587642787046L175.52369402779473,125.461881887626L175.66686180432637,125.58722454905977L175.95319735738968,125.83789378296605L176.0963651339213,125.96323000881532L176.38270068698458,126.2139056783061L176.95537179311117,126.71524414611868L177.0985395696428,126.84058037196795L177.24170734617445,126.96591981560945L177.3848751227061,127.09125604145872L177.52804289923773,127.21659226730799L178.10071400536432,127.71794360628955L178.38704955842758,127.96861605798809L178.53021733495925,128.0939555016296L178.81655288802253,128.3446247355359L178.95972066455417,128.46995452580066L179.38922399414912,128.8459664211407L179.53239177068073,128.9713058647822L179.67555954721237,129.0966420906315L179.96189510027568,129.34731454233003L180.24823065333896,129.5979966474053L180.3913984298706,129.72332643767007L180.53456620640225,129.84866588131158L180.82090175946553,130.0993383330101L180.96406953599717,130.22466490548263L181.25040508906048,130.47534057497342L181.39357286559212,130.60067680082267L181.53674064212376,130.7260162444642L181.82307619518704,130.97668869616274L181.96624397171868,131.10202813980425L182.10941174825032,131.2273643656535L182.25257952478196,131.35270059150278L182.3957473013136,131.4780400351443L182.53891507784527,131.60338269657805L182.96841840744017,131.9793881563336L183.11158618397184,132.10471472880613L183.39792173703512,132.35539039829692L183.54108951356676,132.48072662414617L183.6842572900984,132.60606284999545L183.82742506663007,132.73140229363696L184.11376061969332,132.98207796312775L184.25692839622496,133.107414188977L184.4000961727566,133.2327536326185L184.54326394928827,133.35808664067554L184.97276727888317,133.73409853601558L185.11593505541484,133.8594379796571L185.25910283194648,133.98476455212963L185.9749417146047,134.61144568137595L186.26127726766796,134.86212778645123L186.54761282073127,135.1127970203575L186.69078059726291,135.2381332462068L186.83394837379456,135.3634726898483L187.26345170338948,135.73947814960385L187.40661947992112,135.86481115766088L187.54978725645276,135.9901506013024L187.69295503298443,136.1154900449439L187.83612280951607,136.24082305300092L187.9792905860477,136.36616249664243L188.12245836257935,136.49149872249168L188.265626139111,136.6168317305487L188.55196169217427,136.86751061783175L188.69512946870591,136.99285006147326L188.9814650217692,137.2435225131718L189.12463279830087,137.36885552122882L189.2678005748325,137.49419174707808L189.41096835136412,137.61952153734285L189.84047168095907,137.9955334326829L189.9836394574907,138.1208728763244L190.269975010554,138.37154532802293L190.41314278708566,138.49688477166447L190.55631056361727,138.62222099751372L190.69947834014891,138.747557223363L190.84264611668056,138.87289344921226L190.98581389321222,138.99823289285376L191.12898166974387,139.12356911870305L191.2721494462755,139.24890856234455L191.41531722280715,139.37424800598606L191.5584849993388,139.49957136066635L191.84482055240207,139.7502438123649L191.9879883289337,139.8755832560064L192.274323881997,140.12625570770493L192.41749165852866,140.25159515134644L192.70382721159194,140.50227082083723L192.84699498812356,140.62760704668648L193.13333054118687,140.878279498385L193.2764983177185,141.00361894202652L193.41966609425015,141.1289551678758L193.5628338707818,141.25429139372505L193.70600164731346,141.3796179661976L193.84916942384507,141.5049574098391L194.13550497690835,141.75562986153764L194.27867275344002,141.88096930517915L194.42184052997166,142.00630553102843L194.70817608303494,142.2569812005192L194.85134385956658,142.38231742636847L195.13767941262986,142.63299309585923L195.2808471891615,142.75832932170852L195.42401496569315,142.88366232976554L195.5671827422248,143.0090049911993L195.71035051875646,143.13433156367182L195.8535182952881,143.25966457172885L195.99668607181974,143.38500401537036L196.5693571779463,143.8863553543519L196.71252495447794,144.0116915802012L196.85569273100958,144.1370310238427L197.1420282840729,144.38770025774897L197.2851960606045,144.51303970139048L197.42836383713615,144.63837592723976L197.71469939019946,144.88905159673055L198.00103494326274,145.13971439505232L198.28737049632602,145.3903900645431L198.5737060493893,145.6410657340339L198.86004160245258,145.89174140352466L199.00320937898425,146.01707762937394L199.1463771555159,146.14241707301545L199.28954493204753,146.26775008107248L199.57588048511082,146.51842575056327L199.71904826164246,146.64376197641252L199.8622160381741,146.76910142005403L200.00538381470574,146.89442799252654L200.14855159123738,147.01976421837583L200.29171936776905,147.14510044422508L200.72122269736394,147.52111233956515L200.8643904738956,147.64645178320666L201.29389380349053,148.0224636785467L201.43706158002217,148.14779990439598L201.58022935655384,148.27313613024523L201.8665649096171,148.52381501752825L202.00973268614874,148.64913837220854L202.4392360157437,149.02515348534084L202.58240379227533,149.15048649339786L202.72557156880694,149.27582593703937L203.01190712187025,149.5264983887379L203.1550748984019,149.65183461458716L203.44141045146517,149.90251028407795L203.58457822799684,150.02784811882333L203.72774600452848,150.1531843446726L203.8709137810601,150.278522179418L204.1572493341234,150.52918819553204L204.58675266371833,150.90520009087209L204.72992044024997,151.0305347078252L205.1594237698449,151.40654499426915L205.30259154637653,151.53188443791066L205.4457593229082,151.65722388155217L205.58892709943984,151.78255849850532L206.01843042903477,152.15857361163762L206.30476598209805,152.4092364099594L206.4479337586297,152.5345742447048L206.59110153516133,152.65991207945018L206.73426931169297,152.78524669640333L206.87743708822464,152.91058131335646L207.02060486475628,153.035920756998L207.1637726412879,153.16125537395112L207.30694041781953,153.28659481759263L207.59327597088284,153.53727048708342L207.73644374741448,153.6626067129327L207.87961152394612,153.78794454767808L208.02277930047777,153.91328077352733L208.30911485354105,154.16395644301812L208.59545040660433,154.41461924133992L208.738618183136,154.5399570760853L209.16812151273092,154.91597058032147L209.31128928926256,155.04130841506688L209.59762484232584,155.2919824756615L209.74079261885748,155.4173187015108L209.88396039538912,155.54265492736005L210.02712817192076,155.66799276210546L210.17029594845243,155.79333059685084L210.31346372498408,155.91866843159622L210.742967054579,156.29466906466342L210.88613483111064,156.42000529051268L211.31563816070556,156.79601718585272L211.45880593723723,156.92135502059813L211.60197371376887,157.0466928553435L211.74514149030048,157.17202908119276L211.88830926683212,157.29736691593817L212.0314770433638,157.42270314178742L212.31781259642707,157.6733788112782L212.46098037295872,157.79871503712747L212.747315926022,158.04938105324152L212.89048370255364,158.17471727909077L213.17681925561692,158.42539133968543L213.46315480868023,158.6760654002801L213.60632258521187,158.80140323502548L213.7494903617435,158.92673946087476L213.89265813827512,159.05207729562014L214.17899369133843,159.3027513562148L214.32216146787007,159.42808919096018L214.60849702093336,159.67876325155484L214.75166479746503,159.80408982402736L215.03800035052828,160.05476710241427L215.18116812705992,160.18010171936743L215.46750368012323,160.4307773888582L215.61067145665487,160.55611361470747L215.7538392331865,160.68145144945285L215.89700700971815,160.80678928419826L216.32651033931307,161.1828011795383L216.46967811584472,161.30813740538755L216.61284589237636,161.43347524013296L216.75601366890803,161.55881146598222L216.89918144543967,161.68413964735086L217.0423492219713,161.80947426430401L217.47185255156623,162.18548776854018L217.61502032809787,162.31082560328556L217.7581881046295,162.43616343803095L217.90135588116115,162.56149966388023L218.04452365769282,162.6868374986256L218.18769143422446,162.8121737244749L218.33085921075607,162.93751155922027L218.47402698728771,163.06284939396568L218.61719476381938,163.18818561981493L218.90353031688267,163.43885002703286L219.18986586994595,163.6895240876275L219.61936919954087,164.06553598296756L219.90570475260418,164.31621165245832L220.3352080821991,164.69222274335033L220.76471141179402,165.0682338342423L220.90787918832567,165.1935716689877L221.19421474138895,165.44423527175755L221.33738251792062,165.56957230205487L221.62371807098387,165.8202471670976L221.7668858475155,165.9455841973949L221.91005362404718,166.07092203214032L222.19638917711046,166.32159609273498L222.3395569536421,166.44693392748036L222.6258925067054,166.69760798807502L222.76906028323702,166.82294501837234L222.91222805976867,166.94828285311775L223.0553958363003,167.07361988341506L223.19856361283198,167.19894726033564L223.48489916589526,167.4496213209303L223.77123471895854,167.70029618597303L223.91440249549018,167.82563241182228L224.05757027202182,167.9509702465677L224.20073804855346,168.076307276865L224.3439058250851,168.20164430716233L224.48707360161674,168.32698214190773L224.6302413781484,168.45231917220505L225.20291248427498,168.95366729339437L225.34608026080662,169.07899467031496L225.48924803733826,169.20433170061227L225.6324158138699,169.32967033980574L225.77558359040154,169.45500576120693L226.20508691999646,169.83101765654698L226.3482546965281,169.95635549129238L226.49142247305977,170.0816925215897L227.06409357918633,170.58304184945112L227.20726135571797,170.70837928197247L227.35042913224962,170.833705854445L227.49359690878126,170.95904328696636L227.77993246184454,171.20971774978506L227.9231002383762,171.33505478008237L228.2094357914395,171.58572924290107L228.3526035679711,171.71106667542242L228.6389391210344,171.9617411382411L228.78210689756605,172.08707857076246L229.06844245062933,172.33775343580518L229.211610227161,172.4630900638785L229.49794578022426,172.71375406887236L229.6411135567559,172.83909150139374L229.78428133328757,172.96442853169106L229.9274491098192,173.0897659642124L230.07061688635085,173.21510339673378L230.2137846628825,173.3404404270311L230.35695243941413,173.46577785955247L230.6432879924774,173.71645232237114L231.07279132207233,174.0924640165992L231.35912687513564,174.34313847941786L231.50229465166728,174.46847591193924L231.6454624281989,174.59380268552377L231.9317979812622,174.84447694723045L232.2181335343255,175.09515161116116L232.36130131085713,175.2204888425705L232.79080464045205,175.59650053679852L232.9339724169837,175.72183786876388L233.07714019351536,175.8471749996172L233.220307970047,175.97251233158255L233.64981129964193,176.34851361826378L233.7929790761736,176.47385084967314L233.9361468527052,176.59918808108247L234.07931462923685,176.72452535020034L234.2224824057685,176.84986260674867" fill="none"></path></g></g></g></g></g></g><g transform="translate(72, 176)" clip-path="url(#clip_1)"><clipPath id="clip_1"><rect width="257" height="23"></rect></clipPath><g><g><line x1="0" y1="0" x2="0" y2="5" style="visibility: inherit;" fill="rgb(0, 0, 0)" stroke="rgb(204, 204, 204)" stroke-width="1px"></line><line x1="28.633555306328667" y1="0" x2="28.633555306328667" y2="5" style="visibility: inherit;" fill="rgb(0, 0, 0)" stroke="rgb(204, 204, 204)" stroke-width="1px"></line><line x1="57.26711061265733" y1="0" x2="57.26711061265733" y2="5" style="visibility: inherit;" fill="rgb(0, 0, 0)" stroke="rgb(204, 204, 204)" stroke-width="1px"></line><line x1="85.900665918986" y1="0" x2="85.900665918986" y2="5" style="visibility: inherit;" fill="rgb(0, 0, 0)" stroke="rgb(204, 204, 204)" stroke-width="1px"></line><line x1="114.53422122531467" y1="0" x2="114.53422122531467" y2="5" style="visibility: inherit;" fill="rgb(0, 0, 0)" stroke="rgb(204, 204, 204)" stroke-width="1px"></line><line x1="143.16777653164334" y1="0" x2="143.16777653164334" y2="5" style="visibility: inherit;" fill="rgb(0, 0, 0)" stroke="rgb(204, 204, 204)" stroke-width="1px"></line><line x1="171.801331837972" y1="0" x2="171.801331837972" y2="5" style="visibility: inherit;" fill="rgb(0, 0, 0)" stroke="rgb(204, 204, 204)" stroke-width="1px"></line><line x1="200.4348871443007" y1="0" x2="200.4348871443007" y2="5" style="visibility: inherit;" fill="rgb(0, 0, 0)" stroke="rgb(204, 204, 204)" stroke-width="1px"></line><line x1="229.06844245062933" y1="0" x2="229.06844245062933" y2="5" style="visibility: inherit;" fill="rgb(0, 0, 0)" stroke="rgb(204, 204, 204)" stroke-width="1px"></line><line x1="257.701997756958" y1="0" x2="257.701997756958" y2="5" style="visibility: inherit;" fill="rgb(0, 0, 0)" stroke="rgb(204, 204, 204)" stroke-width="1px"></line></g><g transform="translate(0, 8)"><text style="text-anchor: middle; visibility: hidden; font-family: Roboto, sans-serif; font-size: 12px; font-weight: 200;" x="0" y="0" dx="0em" dy="0.95em" fill="rgb(33, 33, 33)" stroke="none" stroke-width="1px">-2k</text><text style="text-anchor: middle; visibility: inherit; font-family: Roboto, sans-serif; font-size: 12px; font-weight: 200;" x="28.633555306328667" y="0" dx="0em" dy="0.95em" fill="rgb(33, 33, 33)" stroke="none" stroke-width="1px">0</text><text style="text-anchor: middle; visibility: inherit; font-family: Roboto, sans-serif; font-size: 12px; font-weight: 200;" x="57.26711061265733" y="0" dx="0em" dy="0.95em" fill="rgb(33, 33, 33)" stroke="none" stroke-width="1px">2k</text><text style="text-anchor: middle; visibility: inherit; font-family: Roboto, sans-serif; font-size: 12px; font-weight: 200;" x="85.900665918986" y="0" dx="0em" dy="0.95em" fill="rgb(33, 33, 33)" stroke="none" stroke-width="1px">4k</text><text style="text-anchor: middle; visibility: inherit; font-family: Roboto, sans-serif; font-size: 12px; font-weight: 200;" x="114.53422122531467" y="0" dx="0em" dy="0.95em" fill="rgb(33, 33, 33)" stroke="none" stroke-width="1px">6k</text><text style="text-anchor: middle; visibility: inherit; font-family: Roboto, sans-serif; font-size: 12px; font-weight: 200;" x="143.16777653164334" y="0" dx="0em" dy="0.95em" fill="rgb(33, 33, 33)" stroke="none" stroke-width="1px">8k</text><text style="text-anchor: middle; visibility: inherit; font-family: Roboto, sans-serif; font-size: 12px; font-weight: 200;" x="171.801331837972" y="0" dx="0em" dy="0.95em" fill="rgb(33, 33, 33)" stroke="none" stroke-width="1px">10k</text><text style="text-anchor: middle; visibility: inherit; font-family: Roboto, sans-serif; font-size: 12px; font-weight: 200;" x="200.4348871443007" y="0" dx="0em" dy="0.95em" fill="rgb(33, 33, 33)" stroke="none" stroke-width="1px">12k</text><text style="text-anchor: middle; visibility: inherit; font-family: Roboto, sans-serif; font-size: 12px; font-weight: 200;" x="229.06844245062933" y="0" dx="0em" dy="0.95em" fill="rgb(33, 33, 33)" stroke="none" stroke-width="1px">14k</text><text style="text-anchor: middle; visibility: hidden; font-family: Roboto, sans-serif; font-size: 12px; font-weight: 200;" x="257.701997756958" y="0" dx="0em" dy="0.95em" fill="rgb(33, 33, 33)" stroke="none" stroke-width="1px">16k</text></g><line x1="0" y1="0" x2="257.701997756958" y2="0" fill="rgb(0, 0, 0)" stroke="rgb(204, 204, 204)" stroke-width="1px"></line></g></g></g></g></svg>