<svg viewBox="0 0 330 200" xmlns="http://www.w3.org/2000/svg"><g><g><g><g><g><line x1="72.29800224304199" y1="176.89999961853027" x2="67.29800224304199" y2="176.89999961853027" style="visibility: inherit;" fill="rgb(0, 0, 0)" stroke="rgb(204, 204, 204)" stroke-width="1px"></line><line x1="72.29800224304199" y1="164.26428536006384" x2="67.29800224304199" y2="164.26428536006384" style="visibility: inherit;" fill="rgb(0, 0, 0)" stroke="rgb(204, 204, 204)" stroke-width="1px"></line><line x1="72.29800224304199" y1="151.62857110159737" x2="67.29800224304199" y2="151.62857110159737" style="visibility: inherit;" fill="rgb(0, 0, 0)" stroke="rgb(204, 204, 204)" stroke-width="1px"></line><line x1="72.29800224304199" y1="138.99285684313094" x2="67.29800224304199" y2="138.99285684313094" style="visibility: inherit;" fill="rgb(0, 0, 0)" stroke="rgb(204, 204, 204)" stroke-width="1px"></line><line x1="72.29800224304199" y1="126.35714258466446" x2="67.29800224304199" y2="126.35714258466446" style="visibility: inherit;" fill="rgb(0, 0, 0)" stroke="rgb(204, 204, 204)" stroke-width="1px"></line><line x1="72.29800224304199" y1="113.72142832619802" x2="67.29800224304199" y2="113.72142832619802" style="visibility: inherit;" fill="rgb(0, 0, 0)" stroke="rgb(204, 204, 204)" stroke-width="1px"></line><line x1="72.29800224304199" y1="101.08571406773157" x2="67.29800224304199" y2="101.08571406773157" style="visibility: inherit;" fill="rgb(0, 0, 0)" stroke="rgb(204, 204, 204)" stroke-width="1px"></line><line x1="72.29800224304199" y1="88.44999980926512" x2="67.29800224304199" y2="88.44999980926512" style="visibility: inherit;" fill="rgb(0, 0, 0)" stroke="rgb(204, 204, 204)" stroke-width="1px"></line><line x1="72.29800224304199" y1="75.8142855507987" x2="67.29800224304199" y2="75.8142855507987" style="visibility: inherit;" fill="rgb(0, 0, 0)" stroke="rgb(204, 204, 204)" stroke-width="1px"></line><line x1="72.29800224304199" y1="63.17857129233223" x2="67.29800224304199" y2="63.17857129233223" style="visibility: inherit;" fill="rgb(0, 0, 0)" stroke="rgb(204, 204, 204)" stroke-width="1px"></line><line x1="72.29800224304199" y1="50.54285703386577" x2="67.29800224304199" y2="50.54285703386577" style="visibility: inherit;" fill="rgb(0, 0, 0)" stroke="rgb(204, 204, 204)" stroke-width="1px"></line><line x1="72.29800224304199" y1="37.90714277539933" x2="67.29800224304199" y2="37.90714277539933" style="visibility: inherit;" fill="rgb(0, 0, 0)" stroke="rgb(204, 204, 204)" stroke-width="1px"></line><line x1="72.29800224304199" y1="25.271428516932886" x2="67.29800224304199" y2="25.271428516932886" style="visibility: inherit;" fill="rgb(0, 0, 0)" stroke="rgb(204, 204, 204)" stroke-width="1px"></line><line x1="72.29800224304199" y1="12.635714258466423" x2="67.29800224304199" y2="12.635714258466423" style="visibility: inherit;" fill="rgb(0, 0, 0)" stroke="rgb(204, 204, 204)" stroke-width="1px"></line></g><g transform="translate(62.29800224304199, 0)"><text style="text-anchor: end; visibility: hidden; font-family: Roboto, sans-serif; font-size: 12px; font-weight: 200;" x="0" y="176.89999961853027" dx="0em" dy="0.3em" fill="rgb(33, 33, 33)" stroke="none" stroke-width="1px">-2e-5</text><text style="text-anchor: end; visibility: inherit; font-family: Roboto, sans-serif; font-size: 12px; font-weight: 200;" x="0" y="164.26428536006384" dx="0em" dy="0.3em" fill="rgb(33, 33, 33)" stroke="none" stroke-width="1px">0</text><text style="text-anchor: end; visibility: hidden; font-family: Roboto, sans-serif; font-size: 12px; font-weight: 200;" x="0" y="151.62857110159737" dx="0em" dy="0.3em" fill="rgb(33, 33, 33)" stroke="none" stroke-width="1px">2e-5</text><text style="text-anchor: end; visibility: inherit; font-family: Roboto, sans-serif; font-size: 12px; font-weight: 200;" x="0" y="138.99285684313094" dx="0em" dy="0.3em" fill="rgb(33, 33, 33)" stroke="none" stroke-width="1px">4e-5</text><text style="text-anchor: end; visibility: hidden; font-family: Roboto, sans-serif; font-size: 12px; font-weight: 200;" x="0" y="126.35714258466446" dx="0em" dy="0.3em" fill="rgb(33, 33, 33)" stroke="none" stroke-width="1px">6e-5</text><text style="text-anchor: end; visibility: inherit; font-family: Roboto, sans-serif; font-size: 12px; font-weight: 200;" x="0" y="113.72142832619802" dx="0em" dy="0.3em" fill="rgb(33, 33, 33)" stroke="none" stroke-width="1px">8e-5</text><text style="text-anchor: end; visibility: hidden; font-family: Roboto, sans-serif; font-size: 12px; font-weight: 200;" x="0" y="101.08571406773157" dx="0em" dy="0.3em" fill="rgb(33, 33, 33)" stroke="none" stroke-width="1px">1e-4</text><text style="text-anchor: end; visibility: inherit; font-family: Roboto, sans-serif; font-size: 12px; font-weight: 200;" x="0" y="88.44999980926512" dx="0em" dy="0.3em" fill="rgb(33, 33, 33)" stroke="none" stroke-width="1px">1.2e-4</text><text style="text-anchor: end; visibility: hidden; font-family: Roboto, sans-serif; font-size: 12px; font-weight: 200;" x="0" y="75.8142855507987" dx="0em" dy="0.3em" fill="rgb(33, 33, 33)" stroke="none" stroke-width="1px">1.4e-4</text><text style="text-anchor: end; visibility: inherit; font-family: Roboto, sans-serif; font-size: 12px; font-weight: 200;" x="0" y="63.17857129233223" dx="0em" dy="0.3em" fill="rgb(33, 33, 33)" stroke="none" stroke-width="1px">1.6e-4</text><text style="text-anchor: end; visibility: hidden; font-family: Roboto, sans-serif; font-size: 12px; font-weight: 200;" x="0" y="50.54285703386577" dx="0em" dy="0.3em" fill="rgb(33, 33, 33)" stroke="none" stroke-width="1px">1.8e-4</text><text style="text-anchor: end; visibility: inherit; font-family: Roboto, sans-serif; font-size: 12px; font-weight: 200;" x="0" y="37.90714277539933" dx="0em" dy="0.3em" fill="rgb(33, 33, 33)" stroke="none" stroke-width="1px">2e-4</text><text style="text-anchor: end; visibility: hidden; font-family: Roboto, sans-serif; font-size: 12px; font-weight: 200;" x="0" y="25.271428516932886" dx="0em" dy="0.3em" fill="rgb(33, 33, 33)" stroke="none" stroke-width="1px">2.2e-4</text><text style="text-anchor: end; visibility: inherit; font-family: Roboto, sans-serif; font-size: 12px; font-weight: 200;" x="0" y="12.635714258466423" dx="0em" dy="0.3em" fill="rgb(33, 33, 33)" stroke="none" stroke-width="1px">2.4e-4</text></g><line x1="72.29800224304199" y1="0" x2="72.29800224304199" y2="176.89999961853027" fill="rgb(0, 0, 0)" stroke="rgb(204, 204, 204)" stroke-width="1px"></line></g></g><g transform="translate(72, 0)" clip-path="url(#clip_0)"><clipPath id="clip_0"><rect width="257" height="176"></rect></clipPath><g><g><g><line x1="0" y1="0" x2="0" y2="176.89999961853027" fill="rgb(0, 0, 0)" stroke="rgb(66, 66, 66)" stroke-width="1px" opacity="0.25"></line><line x1="28.633555306328667" y1="0" x2="28.633555306328667" y2="176.89999961853027" fill="rgb(0, 0, 0)" stroke="rgb(66, 66, 66)" stroke-width="1px" opacity="0.25"></line><line x1="57.26711061265733" y1="0" x2="57.26711061265733" y2="176.89999961853027" fill="rgb(0, 0, 0)" stroke="rgb(66, 66, 66)" stroke-width="1px" opacity="0.25"></line><line x1="85.900665918986" y1="0" x2="85.900665918986" y2="176.89999961853027" fill="rgb(0, 0, 0)" stroke="rgb(66, 66, 66)" stroke-width="1px" opacity="0.25"></line><line x1="114.53422122531467" y1="0" x2="114.53422122531467" y2="176.89999961853027" fill="rgb(0, 0, 0)" stroke="rgb(66, 66, 66)" stroke-width="1px" opacity="0.25"></line><line x1="143.16777653164334" y1="0" x2="143.16777653164334" y2="176.89999961853027" fill="rgb(0, 0, 0)" stroke="rgb(66, 66, 66)" stroke-width="1px" opacity="0.25"></line><line x1="171.801331837972" y1="0" x2="171.801331837972" y2="176.89999961853027" fill="rgb(0, 0, 0)" stroke="rgb(66, 66, 66)" stroke-width="1px" opacity="0.25"></line><line x1="200.4348871443007" y1="0" x2="200.4348871443007" y2="176.89999961853027" fill="rgb(0, 0, 0)" stroke="rgb(66, 66, 66)" stroke-width="1px" opacity="0.25"></line><line x1="229.06844245062933" y1="0" x2="229.06844245062933" y2="176.89999961853027" fill="rgb(0, 0, 0)" stroke="rgb(66, 66, 66)" stroke-width="1px" opacity="0.25"></line><line x1="257.701997756958" y1="0" x2="257.701997756958" y2="176.89999961853027" fill="rgb(0, 0, 0)" stroke="rgb(66, 66, 66)" stroke-width="1px" opacity="0.25"></line></g><g><line x1="0" y1="176.89999961853027" x2="257.701997756958" y2="176.89999961853027" fill="rgb(0, 0, 0)" stroke="rgb(66, 66, 66)" stroke-width="1px" opacity="0.25"></line><line x1="0" y1="164.26428536006384" x2="257.701997756958" y2="164.26428536006384" fill="rgb(0, 0, 0)" stroke="rgb(66, 66, 66)" stroke-width="1px" opacity="0.25"></line><line x1="0" y1="151.62857110159737" x2="257.701997756958" y2="151.62857110159737" fill="rgb(0, 0, 0)" stroke="rgb(66, 66, 66)" stroke-width="1px" opacity="0.25"></line><line x1="0" y1="138.99285684313094" x2="257.701997756958" y2="138.99285684313094" fill="rgb(0, 0, 0)" stroke="rgb(66, 66, 66)" stroke-width="1px" opacity="0.25"></line><line x1="0" y1="126.35714258466446" x2="257.701997756958" y2="126.35714258466446" fill="rgb(0, 0, 0)" stroke="rgb(66, 66, 66)" stroke-width="1px" opacity="0.25"></line><line x1="0" y1="113.72142832619802" x2="257.701997756958" y2="113.72142832619802" fill="rgb(0, 0, 0)" stroke="rgb(66, 66, 66)" stroke-width="1px" opacity="0.25"></line><line x1="0" y1="101.08571406773157" x2="257.701997756958" y2="101.08571406773157" fill="rgb(0, 0, 0)" stroke="rgb(66, 66, 66)" stroke-width="1px" opacity="0.25"></line><line x1="0" y1="88.44999980926512" x2="257.701997756958" y2="88.44999980926512" fill="rgb(0, 0, 0)" stroke="rgb(66, 66, 66)" stroke-width="1px" opacity="0.25"></line><line x1="0" y1="75.8142855507987" x2="257.701997756958" y2="75.8142855507987" fill="rgb(0, 0, 0)" stroke="rgb(66, 66, 66)" stroke-width="1px" opacity="0.25"></line><line x1="0" y1="63.17857129233223" x2="257.701997756958" y2="63.17857129233223" fill="rgb(0, 0, 0)" stroke="rgb(66, 66, 66)" stroke-width="1px" opacity="0.25"></line><line x1="0" y1="50.54285703386577" x2="257.701997756958" y2="50.54285703386577" fill="rgb(0, 0, 0)" stroke="rgb(66, 66, 66)" stroke-width="1px" opacity="0.25"></line><line x1="0" y1="37.90714277539933" x2="257.701997756958" y2="37.90714277539933" fill="rgb(0, 0, 0)" stroke="rgb(66, 66, 66)" stroke-width="1px" opacity="0.25"></line><line x1="0" y1="25.271428516932886" x2="257.701997756958" y2="25.271428516932886" fill="rgb(0, 0, 0)" stroke="rgb(66, 66, 66)" stroke-width="1px" opacity="0.25"></line><line x1="0" y1="12.635714258466423" x2="257.701997756958" y2="12.635714258466423" fill="rgb(0, 0, 0)" stroke="rgb(66, 66, 66)" stroke-width="1px" opacity="0.25"></line></g></g></g><g><g><line x1="0" y1="164.26428536006384" x2="257.701997756958" y2="164.26428536006384" fill="rgb(0, 0, 0)" stroke="rgb(153, 153, 153)" stroke-width="1.5px"></line></g></g><g><g><line x1="28.633555306328667" y1="0" x2="28.633555306328667" y2="176.89999961853027" fill="rgb(0, 0, 0)" stroke="rgb(153, 153, 153)" stroke-width="1.5px"></line></g></g><g><g><g><g><g><path style="fill: none;" stroke="rgb(255, 112, 67)" stroke-width="2px" d="M38.51213188701205,-2.278959679830436L38.79846744007534,0.7686717344900343L38.94163521660699,3.337688482897618L39.22797076967028,6.324310161092246L39.51430632273356,9.500540618292797L39.80064187579685,12.706465544522482L39.94380965232849,15.261833088767943L40.08697742886014,17.418709560161755L40.23014520539178,19.306920796456286L40.51648075845507,21.603599798835702L40.65964853498671,23.548317416015298L40.94598408805,25.784631805230436L41.08915186458164,27.646463473224575L41.232319641113286,29.261459742866723L41.51865519417657,31.2318785819312L41.66182297070821,32.885935455930905L41.9481585237715,34.82198807640648L42.377661853366426,37.322294773369364L42.520829629898074,39.24666839179239L42.950332959493,41.61650375707816L43.093500736024644,43.41080466994908L43.523004065619574,45.62496119802227L43.66617184215122,47.319040443953725L43.952507395214504,49.03820233378534L44.095675171746144,50.41581991177948L44.23884294827779,51.57541540759126L44.38201072480943,52.60996026032505L44.52517850134108,53.560523748547546L44.66834627787272,54.4540899921552L44.81151405440437,55.30665455681259L45.09784960746765,56.429856988432256L45.24101738399929,57.40557426296855L45.38418516053094,58.278969452803985L45.52735293706258,59.089415819109334L45.95685626665752,60.42423935827221L46.10002404318915,61.49222862573272L46.67269514931573,63.17138351849454L46.81586292584737,64.43694706991276L47.10219847891066,65.68536755758852L47.2453662554423,66.67565865439073L47.38853403197394,67.5103954609276L47.53170180850559,68.24542662591591L47.67486958503723,68.91851985678359L47.96120513810052,69.78766487687858L48.247540691163806,70.75164429148711L48.39070846769545,71.55136088475729L48.53387624422709,72.24288847334171L48.677044020758736,72.87001382839753L48.820211797290376,73.45394880446683L48.963379573822024,74.02024755354431L49.24971512688531,74.75538130721777L49.392882903416954,75.38524483376207L49.536050679948595,75.95916511109478L49.679218456480235,76.49890162278896L49.82238623301188,77.01362664342975L50.25188956260681,77.86827277060085L50.82456066873338,79.08217508674444L51.11089622179667,80.15362874445857L51.25406399832831,80.96157919762135L51.39723177485996,81.61248316391058L51.5403995513916,82.16827664363062L51.68356732792324,82.65863021661073L51.96990288098653,83.2517918088777L52.11307065751817,83.76128226255466L52.25623843404982,84.22413350814993L52.54257398711311,84.80608191570317L52.82890954017639,85.45217411896702L53.11524509323968,86.13059098718705L53.25841286977132,86.68518883448661L53.40158064630297,87.16083406732044L53.687916199366256,87.720774274045L53.8310839758979,88.19252739220411L53.97425175242954,88.60907351166657L54.11741952896118,88.98897792529945L54.26058730549283,89.35304973421263L54.546922858556115,89.83824228069895L54.690090635087756,90.25689638339142L54.833258411619404,90.63296492656468L54.976426188151045,90.98386643035782L55.119593964682686,91.32244420554818L55.26276174121433,91.65417017141296L55.40592951774597,91.97637916070589L55.835432847340904,92.53569072834635L55.978600623872545,92.9904591775788L56.121768400404186,93.38146470729342L56.26493617693583,93.72858594570951L56.69443950653076,94.27960504784008L56.98077505959405,94.8305175988425L57.12394283612569,95.2675685366353L57.26711061265733,95.64307274139193L57.410278389188974,95.97535306595154L57.69661394225226,96.37964314220467L57.83978171878391,96.72307015196054L57.98294949531555,97.03057323433006L58.1261172718472,118.37806994983517L58.41245282491048,131.40230761850856L58.55562060144212,139.14986589817198L58.69878837797377,143.7042022963348L58.84195615450541,146.52595628725376L58.98512393103706,148.24374844766106L59.27145948410035,149.41720867806143L59.55779503716363,150.13529692248758L59.70096281369527,150.58889276506707L59.98729836675856,150.79259449864762L60.1304661432902,150.9018827720669L60.27363391982185,150.9870272679396L60.41680169635349,151.0185102557196L60.55996947288513,151.08251947160352L60.84630502594842,151.14383062540847L60.98947280248006,151.20388471375168L61.13264057901171,151.2089325855176L61.562143908606636,151.21610674436172L61.84847946166992,151.2186005420018L61.991647238201566,151.2057519027446L62.134815014733206,151.20172663162953L62.277982791264854,151.22290478140695L62.421150567796495,151.2400274016068L62.56431834432814,151.26528301443307L62.707486120859784,151.2948199134771L62.850653897391425,151.3127024828313L62.993821673923065,151.34018017340972L63.280157226986354,151.3832659778474L63.423325003518,151.42464652589854L63.70966055658129,151.45153102397563L63.85282833311293,151.4812752824537L63.99599610964457,151.5188634526662L64.13916388617622,151.54360537289156L64.28233166270786,151.55253254539818L64.4254994392395,151.5367842689172L64.85500276883442,151.53338797024693L64.99817054536608,151.51935242280607L65.14133832189772,151.50901145142336L65.28450609842936,151.50629265696745L65.57084165149264,151.5056280970221L65.7140094280243,151.51167919577358L65.85717720455592,151.5227631812399L66.00034498108758,151.53402099133413L66.28668053415088,151.53588233475077L66.4298483106825,151.54400243578607L67.14568719334072,151.57654521131644L67.43202274640402,151.61755377705109L67.57519052293566,151.65219521051318L67.86152607599894,151.68891963433288L68.0046938525306,151.72545871702457L68.14786162906222,151.7516940082518L68.29102940559387,151.77857380069668L68.57736495865717,151.81178677394632L68.7205327351888,151.83733190379178L68.86370051172045,151.85273023281312L69.0068682882521,151.8661436261407L69.15003606478372,151.87696493937034L69.29320384131537,151.9004780095613L69.43637161784702,151.92782614740688L69.57953939437867,151.9391559748932L69.86587494744195,151.93872533094228L70.0090427239736,151.93966028581113L70.29537827703687,151.94911063965964L70.43854605356852,151.956905054537L71.0112171596951,151.97566873824027L71.15438493622673,151.99199083409127L71.29755271275839,152.00431327630872L71.44072048929002,152.01594641276816L71.58388826582167,152.02998153398974L71.72705604235331,152.042091116008L72.29972714847989,152.06684280797887L72.44289492501153,152.0873484035102L72.58606270154317,152.10830670260674L72.72923047807481,152.12641214756962L72.87239825460647,152.14238480895247L73.0155660311381,152.15840996617797L73.30190158420139,152.17725230962648L73.44506936073303,152.19899163690184L73.58823713726468,152.21277486579947L73.73140491379631,152.23097858749202L73.87457269032797,152.2450184015112L74.0177404668596,152.25234180497392L74.30407601992289,152.26572589890765L74.44724379645453,152.2816905115821L74.59041157298618,152.28851484902253L74.73357934951781,152.29992946916624L74.87674712604947,152.30796652596115L75.16308267911276,152.32730697897617L75.59258600870768,152.34691803726727L75.87892156177097,152.3657867994177L76.0220893383026,152.3796193137152L76.16525711483426,152.39402067576498L76.3084248913659,152.40875001561255L76.45159266789754,152.41800225503644L77.0242637740241,152.43667989263935L77.16743155055576,152.4567432185212L77.45376710361906,152.4780346651862L77.74010265668234,152.4958550314299L77.88327043321398,152.51539480080413L78.02643820974562,152.5329736652661L78.16960598627726,152.5443746182582L78.3127737628089,152.5560510721175L78.45594153934056,152.56037468475213L78.59910931587218,152.5653468008041L78.74227709240384,152.5679471531578L78.88544486893548,152.57457860515277L79.17178042199876,152.59003580098272L79.3149481985304,152.59955421100696L79.45811597506206,152.61426634130814L79.6012837515937,152.62656745606284L79.88761930465698,152.64304022675447L80.03078708118862,152.65747476677726L80.3171226342519,152.6734504519397L80.46029041078356,152.6881071036199L80.6034581873152,152.69921330820046L80.74662596384685,152.70768818829978L80.88979374037848,152.71600653788394L81.03296151691013,152.72495956926085L81.17612929344178,152.73536355547816L81.31929706997342,152.74430291679693L81.46246484650506,152.7562455396814L81.6056326230367,152.76635907079577L82.17830372916328,152.7960011951574L82.32147150569492,152.82313185783156L82.46463928222657,152.84295304470103L82.75097483528985,152.86714553784816L82.8941426118215,152.88651622255395L83.46681371794807,152.9180677998227L83.75314927101135,152.94479959396213L83.896317047543,152.96511511634333L84.03948482407465,152.98216191701258L84.46898815366957,153.00283035420486L84.61215593020121,153.02285712446323L84.75532370673285,153.0433272462228L84.8984914832645,153.0609655643175L85.04165925979615,153.07220774290056L85.18482703632779,153.08268293095037L85.32799481285943,153.09445575861676L85.47116258939107,153.1041957389977L85.61433036592271,153.11628959914097L85.75749814245437,153.12674302166755L85.900665918986,153.13826053623222L86.04383369551765,153.15053464496373L86.18700147204929,153.16248124636368L86.33016924858094,153.17261876976391L86.61650480164423,153.18748401790245L86.90284035470751,153.20245307589633L87.04600813123915,153.21527103842138L87.18917590777079,153.22547123420523L87.33234368430244,153.23695081450674L87.76184701389737,154.67151988952378L87.90501479042901,155.36299879686587L88.04818256696065,155.83635066830843L88.19135034349229,156.071513176585L88.62085367308723,156.15384666999228L88.76402144961887,156.13858431144521L89.05035700268216,156.19931803346898L89.19352477921379,156.24357382436887L89.47986033227708,156.23230674788041L89.62302810880874,156.19014113388334L89.76619588534037,156.14780723300913L89.90936366187202,156.13138338364482L90.1956992149353,156.12650470021075L90.33886699146694,156.14788699121422L90.48203476799858,156.1664523103406L90.91153809759352,156.18187829061753L91.05470587412516,156.19501522576164L91.1978736506568,156.20682240386364L91.34104142718846,156.2166935486539L91.48420920372008,156.22833149424494L91.62737698025174,156.23988306690705L91.77054475678338,156.2505303307084L91.91371253331504,156.25409668518773L92.2000480863783,156.26622590406674L92.34321586290996,156.28472755443957L92.48638363944158,156.30646311820038L92.62955141597324,156.33038886857778L93.20222252209982,156.37504833698378L93.34539029863146,156.39510619090248L93.4885580751631,156.41589467722193L93.63172585169474,156.43929654069908L93.77489362822638,156.45965464465266L94.06122918128968,156.47810581824362L94.34756473435296,156.4988030075925L94.63390028741625,156.53095604105843L94.77706806394788,156.54731001681557L94.92023584047953,156.5661515273176L95.20657139354283,156.59196132170328L95.34973917007446,156.6115627546198L95.49290694660611,156.62470496661325L95.7792424996694,156.64560718282146L95.92241027620103,156.6499481988448L96.06557805273268,156.66034101491036L96.20874582926433,156.67011098964943L96.49508138232761,156.70108140740348L96.63824915885925,156.72358522743696L96.7814169353909,156.73790644758412L97.21092026498583,156.75465122649027L97.35408804151747,156.7700715770457L97.49725581804911,156.78587544223805L97.64042359458075,156.79594156080418L97.7835913711124,156.80468670569743L97.92675914764405,156.80697181486917L98.06992692417568,156.81437807957553L98.35626247723897,156.81935162490873L98.49943025377063,156.82941420552717L98.64259803030225,156.83830547593757L98.78576580683391,156.84540335849337L98.92893358336555,156.85240801402585L99.07210135989719,156.85977366728275L99.50160468949213,156.8707706862763L99.64477246602377,156.87944828099145L99.93110801908705,156.88546939894394L100.07427579561869,156.89630256567744L100.21744357215034,156.903926164739L100.50377912521363,156.91427488220717L100.64694690174527,156.9248584714068L100.79011467827692,156.93245207178813L101.21961800787184,156.94348886560428L101.36278578440347,156.95284767420083L101.50595356093513,156.95993096215068L101.64912133746677,156.9667641325688L101.79228911399842,156.97743269800924L101.93545689053005,156.98749131784788L102.0786246670617,156.99078837839036L102.22179244359334,156.998603230169L102.36496022012498,157.00221303162164L102.65129577318827,157.01569037161389L102.79446354971992,157.02332030879464L102.93763132625156,157.0274275540657L103.0807991027832,157.03884402910435L103.22396687931484,157.04883493904617L103.36713465584648,157.06040637866153L103.65347020890977,157.0726300991942L104.08297353850472,157.08109055880058L104.65564464463128,157.0918308384477L104.94198019769456,157.1010708080148L105.08514797422622,157.1098647599255L105.22831575075786,157.11738692021865L105.3714835272895,157.12451743070363L105.51465130382114,157.12844936464336L105.65781908035278,157.13232065752143L105.80098685688444,157.13559544006904L105.94415463341606,157.14169816058617L106.08732240994772,157.14622652822263L106.23049018647936,157.1526086141749L106.373657963011,157.16153714709003L106.51682573954264,157.1684638599292L106.65999351607428,157.17602615056944L106.94632906913756,157.18527115501232L107.08949684566922,157.1935872977497L107.51900017526414,157.20957654650707L107.80533572832744,157.22020300707308L107.94850350485908,157.22951121151976L108.09167128139072,157.23746879628604L108.23483905792236,157.2445737182602L108.37800683445401,157.2527855920598L108.6643423875173,157.2633314412891L109.23701349364386,157.28490186254743L109.38018127017551,157.30225295036672L109.52334904670715,157.3171710404707L109.80968459977043,157.33541235027982L109.95285237630209,157.3493117589758L110.09602015283373,157.3586588030093L110.23918792936537,157.36840579978713L110.52552348242865,157.3805300717911L110.81185903549193,157.3958049858911L111.24136236508687,157.41217663977494L111.81403347121345,157.4299519459614L112.38670457734003,157.45246894804933L112.52987235387165,157.47027926895686L112.67304013040331,157.4828805075735L112.9593756834666,157.49851630038964L113.10254345999823,157.5106977150197L113.24571123652989,157.5221825686086L113.38887901306153,157.53090808202785L113.53204678959317,157.53988913009835L113.81838234265645,157.5473780579093L113.9615501191881,157.553996306691L114.10471789571974,157.56067181034447L114.24788567225139,157.56462057132987L114.39105344878303,157.57382120086348L114.53422122531467,157.58254420123956L114.82055677837795,157.59054783106376L114.9637245549096,157.5982708449502L115.10689233144124,157.60624035463167L115.39322788450453,157.61523989655063L115.67956343756782,157.6231876534778L115.82273121409945,157.63057214288935L115.9658989906311,157.6375658080618L116.10906676716274,157.64564197508932L116.53857009675768,157.66097170213422L116.68173787328932,157.673178174113L116.9680734263526,158.6026881033452L117.11124120288424,159.02005258025625L117.2544089794159,159.28932155307587L117.39757675594754,159.50017652605604L117.54074453247918,159.68728203184773L117.82708008554246,159.7867081829919L117.97024786207412,159.82536088399152L118.2565834151374,159.78128651130785L118.39975119166904,159.7328943610648L118.5429189682007,159.72173160843326L118.68608674473232,159.73280042214554L118.82925452126398,159.72637379636942L119.2587578508589,159.7481176566591L119.40192562739054,159.78003333641712L119.5450934039222,159.8008681778829L119.68826118045382,159.82790683829626L119.97459673351712,159.84453938368665L120.40410006311204,159.85415748389877L120.5472678396437,159.86779010001462L120.69043561617534,159.87814443755917L120.83360339270698,159.88897790467507L120.97677116923862,159.8974302654699L121.11993894577026,159.90386522141185L121.5494422753652,159.91924037500934L121.69261005189684,159.92275285163737L121.97894560496012,159.93311834173392L122.12211338149177,159.93883485575313L122.26528115802341,159.94728934675976L122.40844893455505,159.95932178123257L122.5516167110867,159.96906927741162L122.98112004068163,159.9750709650143L123.12428781721327,159.9799076097991L123.26745559374491,159.9866277370145L123.41062337027655,159.98950531545358L124.26963002946641,160.00340385122178L124.55596558252971,160.0082273048095L124.69913335906134,160.0152894522136L124.84230113559299,160.02243884264044L124.98546891212463,160.02527690782927L125.12863668865629,160.02545830581505L125.41497224171957,160.01891976042805L125.55814001825121,160.01743054826795L125.70130779478285,160.01610204441266L125.84447557131449,160.01894323084153L125.98764334784613,160.02010792820695L126.13081112437779,160.02682045557415L126.41714667744107,160.04006189025412L126.56031445397271,160.04469610252357L126.70348223050435,160.054622656941L126.846650007036,160.06029657308517L127.13298556009929,160.06633158285553L127.27615333663093,160.069965689729L127.41932111316258,160.07708523511138L127.56248888969421,160.08316133934383L127.8488244427575,160.08793575743542L127.99199221928914,160.0948102371159L128.1351599958208,160.10286856102613L128.27832777235244,160.1057301293551L128.42149554888408,160.10508578544824L128.56466332541572,160.1082307060962L128.850998878479,160.1124564188435L129.28050220807395,160.12226106902224L129.42366998460557,160.13000201923154L129.71000553766885,160.13229966959685L130.28267664379544,160.13557526326733L130.42584442032708,160.13566591072177L130.71217997339036,160.14015683025625L130.855347749922,160.14226252599556L131.14168330298529,160.14684118882377L131.4280188560486,160.14587712284728L131.71435440911185,160.14502264265496L131.85752218564352,160.1455095387172L132.00068996217516,160.14673127355073L132.28702551523844,160.146064574823L132.43019329177008,160.14614055899673L132.57336106830175,160.14671064963738L132.7165288448334,160.1478585311376L132.859696621365,160.14884306708223L133.00286439789664,160.1528834917811L133.1460321744283,160.15925333450213L133.28919995095995,160.16599757010164L133.4323677274916,160.17166714288697L133.57553550402324,160.1781186640823L133.71870328055488,160.1840850490798L134.00503883361816,160.19073637770012L134.43454216321308,160.19509814035004L134.57770993974475,160.20036309619658L134.7208777162764,160.20477804297155L135.00721326933964,160.2069054988501L135.1503810458713,160.2101927477687L135.29354882240295,160.21160152379187L135.4367165989346,160.21271536013734L135.57988437546624,160.21448265291843L136.29572325812444,160.2250683831679L136.4388910346561,160.22971381682038L136.86839436425103,160.23792271218622L137.01156214078267,160.24467678969287L137.15472991731434,160.25207091344637L137.29789769384595,160.2562821422411L137.4410654703776,160.2632789675561L137.87056879997255,160.26999487025793L138.0137365765042,160.27575363044886L138.15690435303583,160.28200560771148L138.30007212956744,160.28898791717057L138.4432399060991,160.2925787934879L138.58640768263075,160.29536136337242L138.7295754591624,160.29893687260426L138.87274323569403,160.3036112479291L139.01591101222567,160.30245729913213L139.15907878875734,160.30425285786737L139.30224656528898,160.30614705265486L139.4454143418206,160.30624617629087L139.7317498948839,160.31083538258835L139.87491767141555,160.31632184627568L140.0180854479472,160.32341818921552L140.16125322447883,160.32954392337936L140.30442100101047,160.3334474823638L140.44758877754214,160.33432621180856L140.59075655407375,160.33685836388818L140.7339243306054,160.34074859341695L140.87709210713703,160.34533323204815L141.30659543673198,160.34993217718872L141.59293098979526,160.35723575645403L141.7360987663269,160.3625697959129L142.0224343193902,160.37022283961124L142.30876987245347,160.37662777684085L142.45193764898514,160.38381816248565L142.59510542551678,160.39144832878404L142.7382732020484,160.39715414982481L142.88144097858003,160.40268081444677L143.16777653164334,160.40956741340364L143.31094430817498,160.41542238560535L143.88361541430154,160.4243665425563L144.02678319083319,160.43102348633943L144.16995096736483,160.4354051667329L144.3131187438965,160.44103947800738L144.45628652042814,160.44557984903514L144.74262207349142,160.45108378446943L144.88578985002306,160.45601457844975L145.17212540308634,160.46130871232535L145.31529317961798,160.46404860719534L145.74479650921293,160.47270710137553L145.88796428574457,160.4792381562723L146.0311320622762,160.48463122758682L146.17429983880783,161.4405780705142L146.3174676153395,161.40169498625326L146.46063539187114,161.40295527421313L146.60380316840278,161.39323557956243L146.74697094493442,161.31034303972814L146.89013872146606,161.21844857640087L147.03330649799773,161.23138188006538L147.17647427452937,161.2448052915416L147.31964205106098,161.26516107311232L147.6059776041243,161.31245778617057L147.89231315718757,161.3561312446926L148.0354809337192,161.39381088633112L148.3218164867825,161.42184812112689L148.46498426331414,161.43215259396385L148.60815203984578,161.43201967085255L148.89448759290906,161.42938326612364L149.03765536944073,161.4349477951055L149.323990922504,161.44753042517488L149.46715869903562,161.46620586467716L149.75349425209893,161.48291964394357L150.0398298051622,161.49783229029347L150.46933313475716,161.51051217234755L150.61250091128878,161.5188454838896L151.04200424088373,161.54212770223492L151.328339793947,161.57086336694672L151.47150757047865,161.58402288138618L151.61467534701032,161.59337291722474L151.90101090007357,161.59744150131996L152.0441786766052,161.5957559481403L152.18734645313685,161.59343600907792L152.6168497827318,161.60935140093065L152.76001755926342,161.6146892355166L153.04635311232673,161.6128189718682L153.33268866539,161.6182421478749L153.47585644192165,161.62202262219606L153.90535977151657,161.62582004763343L154.19169532457988,161.6285010716903L154.33486310111152,161.63253394781978L154.47803087764316,161.6341689918736L154.76436643070645,161.63655803225666L154.90753420723811,161.6386499546858L155.05070198376973,161.6437728944253L155.19386976030137,161.64588223996384L155.337037536833,161.6485335665343L155.48020531336468,161.65450492693753L155.62337308989632,161.659203167878L155.76654086642796,161.66134097477607L155.9097086429596,161.66131367270654L156.05287641949124,161.66193636798948L156.19604419602288,161.66810086199405L156.48237974908616,161.67941814122835L156.6255475256178,161.68871310034936L156.91188307868111,161.69412539381153L157.19821863174437,161.69628182339565L157.341386408276,161.69398554436665L157.77088973787096,161.69902773216847L157.9140575144026,161.70128146423698L158.2003930674659,161.7047727308749L158.34356084399752,161.70883609018648L158.48672862052916,161.71229357131025L158.6298963970608,161.7166990057047L158.77306417359247,161.7176771737742L159.05939972665576,161.71676619232449L159.2025675031874,161.71677432785398L159.48890305625068,161.71646926682553L159.63207083278232,161.7148952245881L159.9184063858456,161.7121926205456L160.06157416237724,161.71209996912253L160.2047419389089,161.71276930089363L160.34790971544055,161.7161205811573L160.4910774919722,161.71878421637837L160.6342452685038,161.72240638883497L160.77741304503547,161.7253398957275L160.9205808215671,161.72831988788843L161.4932519276937,161.73078580305895L161.63641970422532,161.73452562137314L161.77958748075696,161.73877580582825L161.9227552572886,161.74218207908157L162.06592303382027,161.7460353914884L162.2090908103519,161.74893531554466L162.35225858688355,161.74969556716007L162.4954263634152,161.75085377144512L162.63859413994683,161.7535755583689L163.2112652460734,161.75507911438518L163.35443302260504,161.75724400160996L163.4976007991367,161.75907122647925L163.64076857566835,161.7607423970017L163.7839363522,161.75858154985082L164.07027190526327,161.75563167095063L164.2134396817949,161.75222664546396L164.35660745832655,161.74966211798548L164.64294301138983,161.75107894367812L164.7861107879215,161.75293126645778L165.07244634098475,161.75619593774522L165.35878189404806,161.76001404983123L165.5019496705797,161.7639833405036L165.64511744711135,161.76745999856166L166.07462077670627,161.77425626664171L166.2177885532379,161.77910365444276L166.36095632976955,161.7829583478866L166.5041241063012,161.7864772614401L166.64729188283283,161.78922665180653L166.7904596593645,161.79290521895985L166.93362743589614,161.7941438037852L167.2199629889594,161.79787007793655L167.36313076549106,161.80220430265766L167.792634095086,161.8080992821464L167.93580187161763,161.81145894650257L168.5084729777442,161.82036897992862L168.7948085308075,161.82850953763042L168.93797630733914,161.83408224995028L169.08114408387078,161.83643663606824L169.22431186040242,161.83983384110795L169.3674796369341,161.84256479391314L169.5106474134657,161.84444389556677L169.94015074306066,161.84747870291392L170.0833185195923,161.85003565729892L170.22648629612394,161.85296135269542L170.36965407265558,161.85599923252585L170.5128218491872,161.85750891520686L170.7991574022505,161.86214207745007L171.08549295531378,161.86577767769165L171.22866073184542,161.86832167153085L171.3718285083771,161.87123131627692L171.65816406144035,161.86998271759558L171.801331837972,161.8699054449002L171.94449961450366,161.87044586868367L172.0876673910353,161.87105518487056L172.23083516756694,161.87145869856275L172.37400294409858,161.87156215440854L172.51717072063022,161.87130106963738L172.6603384971619,161.8717907927925L172.8035062736935,161.87270830377594L172.94667405022514,161.87280113687927L173.51934515635173,161.87821675925713L173.80568070941501,161.88318862836627L173.94884848594666,161.88779564316602L174.0920162624783,161.8916643017744L174.23518403900994,161.89469277916763L174.37835181554158,161.897028677143L174.80785514513653,161.89902228970183L175.09419069819978,161.90006716354088L175.52369402779473,161.90164023368638L175.66686180432637,162.13572582292372L175.95319735738968,162.26127270753716L176.0963651339213,162.34323167383783L176.38270068698458,162.4106429718142L176.95537179311117,162.45016756581813L177.0985395696428,162.45115189524165L177.24170734617445,162.45102394839466L177.3848751227061,162.4469407990955L177.52804289923773,162.44939608903454L178.10071400536432,162.4674442257882L178.38704955842758,162.4769560539812L178.53021733495925,162.4800536363051L178.81655288802253,162.4994321451202L178.95972066455417,162.51321971060088L179.38922399414912,162.52797311331892L179.53239177068073,162.53419236882462L179.67555954721237,162.5472913175858L179.96189510027568,162.56375994746242L180.24823065333896,162.58320474871272L180.3913984298706,162.5948739278859L180.53456620640225,162.5991810515274L180.82090175946553,162.59503152082772L180.96406953599717,162.59601902915583L181.25040508906048,162.5921146694862L181.39357286559212,162.59151293675114L181.53674064212376,162.5932824203417L181.82307619518704,162.59561870098966L181.96624397171868,162.59358794695854L182.10941174825032,162.59175817147332L182.25257952478196,162.59080688811122L182.3957473013136,162.58679549373284L182.53891507784527,162.5835913916158L182.96841840744017,162.58491505065743L183.11158618397184,162.58456175838253L183.39792173703512,162.58297394698934L183.54108951356676,162.58257299660278L183.6842572900984,162.5827306856221L183.82742506663007,162.58249099340335L184.11376061969332,162.58449723789948L184.25692839622496,162.58610435783967L184.4000961727566,162.5889539687582L184.54326394928827,162.59283005647967L184.97276727888317,162.59786583717278L185.11593505541484,162.60470010209957L185.25910283194648,162.6094333019958L185.9749417146047,162.61072299305755L186.26127726766796,162.61071850419464L186.54761282073127,162.61267722763372L186.69078059726291,162.61127581455463L186.83394837379456,162.6115287287686L187.26345170338948,162.61054132138065L187.40661947992112,162.61018693611365L187.54978725645276,162.60627487815867L187.69295503298443,162.60335395699636L187.83612280951607,162.60288961294907L187.9792905860477,162.60244270449402L188.12245836257935,162.60128363319234L188.265626139111,162.5990154369896L188.55196169217427,162.59968052171203L188.69512946870591,162.60113322712496L188.9814650217692,162.60229807169134L189.12463279830087,162.6041458451848L189.2678005748325,162.60549825704368L189.41096835136412,162.60731434486726L189.84047168095907,162.60995721438738L189.9836394574907,162.61126643580843L190.269975010554,162.61123401736376L190.41314278708566,162.60570168372817L190.55631056361727,162.60218502138991L190.69947834014891,162.60104024674018L190.84264611668056,162.60157849888816L190.98581389321222,162.60304640961147L191.12898166974387,162.60474895720134L191.2721494462755,162.6053708474502L191.41531722280715,162.6071442383725L191.5584849993388,162.609162405788L191.84482055240207,162.6106089520589L191.9879883289337,162.61316972584672L192.274323881997,162.61457483524302L192.41749165852866,162.61492006245157L192.70382721159194,162.61474278752422L192.84699498812356,162.61481363098375L193.13333054118687,162.61549561580816L193.2764983177185,162.61639781844366L193.41966609425015,162.61745576806248L193.5628338707818,162.61549941062614L193.70600164731346,162.61471127154945L193.84916942384507,162.6137772669822L194.13550497690835,162.61489218479153L194.27867275344002,162.61704166467462L194.42184052997166,162.6193260526331L194.70817608303494,162.62149125025113L194.85134385956658,162.62285506943036L195.13767941262986,162.62525594011814L195.2808471891615,162.62706001559422L195.42401496569315,162.6285301473852L195.5671827422248,162.6314217377186L195.71035051875646,162.63341262132352L195.8535182952881,162.63512596302587L195.99668607181974,162.6366763421424L196.5693571779463,162.6387437144085L196.71252495447794,162.64051742937266L196.85569273100958,162.64221573580573L197.1420282840729,162.6452066517078L197.2851960606045,162.6473616514414L197.42836383713615,162.648762562243L197.71469939019946,162.6503558422677L198.00103494326274,162.65254135168468L198.28737049632602,162.6561491267095L198.5737060493893,162.6587596283325L198.86004160245258,162.6635641775192L199.00320937898425,162.6669344600174L199.1463771555159,162.6677307081304L199.28954493204753,162.6665257814948L199.57588048511082,162.66644971667648L199.71904826164246,162.66695541201082L199.8622160381741,162.6676343915352L200.00538381470574,162.66957000072532L200.14855159123738,162.67115835577854L200.29171936776905,162.67169144692213L200.72122269736394,162.67419290729183L200.8643904738956,162.67633136606332L201.29389380349053,162.67947616398396L201.43706158002217,162.68180979871363L201.58022935655384,162.68389370294352L201.8665649096171,162.6869060165795L202.00973268614874,162.68710491086117L202.4392360157437,162.68990438106982L202.58240379227533,162.69171788887618L202.72557156880694,162.6935622896594L203.01190712187025,162.69592363926375L203.1550748984019,162.69634316327176L203.44141045146517,162.69673680529897L203.58457822799684,162.69712629533169L203.72774600452848,162.6975017445919L203.8709137810601,162.6989659216241L204.1572493341234,162.7011032166787L204.58675266371833,162.7045218630006L204.72992044024997,162.70659724169622L205.1594237698449,162.82576587825338L205.30259154637653,162.92467268073017L205.4457593229082,162.98120538862133L205.58892709943984,163.0015322257224L206.01843042903477,163.01465091498898L206.30476598209805,162.99225069051593L206.4479337586297,162.9722113810768L206.59110153516133,162.95974046483025L206.73426931169297,162.9504290024134L206.87743708822464,162.9540997132606L207.02060486475628,162.95819310985976L207.1637726412879,162.9739571895692L207.30694041781953,162.99054046149817L207.59327597088284,163.01439209161467L207.73644374741448,163.03257913028952L207.87961152394612,163.04973398537655L208.02277930047777,163.0640800812588L208.30911485354105,163.07845850442135L208.59545040660433,163.0873678333978L208.738618183136,163.09208176667326L209.16812151273092,163.0928142808645L209.31128928926256,163.09428572386102L209.59762484232584,163.09106231325683L209.74079261885748,163.08371763542027L209.88396039538912,163.07753811249262L210.02712817192076,163.07232760356536L210.17029594845243,163.07527387551693L210.31346372498408,163.0792938059585L210.742967054579,163.08049394940898L210.88613483111064,163.0806084584703L211.31563816070556,163.08235055952744L211.45880593723723,163.08555955560618L211.60197371376887,163.08583031851109L211.74514149030048,163.08925343409152L211.88830926683212,163.0919765180365L212.0314770433638,163.09343384951447L212.31781259642707,163.0986987535418L212.46098037295872,163.10191472557975L212.747315926022,163.0962645405899L212.89048370255364,163.0932826582572L213.17681925561692,163.09510455255636L213.46315480868023,163.09667613462074L213.60632258521187,163.0982965153184L213.7494903617435,163.10070359177672L213.89265813827512,163.10288824590188L214.17899369133843,163.1004273261778L214.32216146787007,163.10000279129642L214.60849702093336,163.09745935817065L214.75166479746503,163.09590158005733L215.03800035052828,163.09136310079282L215.18116812705992,163.0821041025728L215.46750368012323,163.0798769063852L215.61067145665487,163.08036545037098L215.7538392331865,163.0831211359316L215.89700700971815,163.08688358024423L216.32651033931307,163.09237038865544L216.46967811584472,163.09589188505132L216.61284589237636,163.0990488990127L216.75601366890803,163.101981994601L216.89918144543967,163.1015275224725L217.0423492219713,163.10350088691476L217.47185255156623,163.10675796823585L217.61502032809787,163.10906151986913L217.7581881046295,163.11081981650892L217.90135588116115,163.1136538026516L218.04452365769282,163.11597143584308L218.18769143422446,163.11763900446383L218.33085921075607,163.11975330397811L218.47402698728771,163.1223226762029L218.61719476381938,163.12486236101014L218.90353031688267,163.12735745673845L219.18986586994595,163.12579249754864L219.61936919954087,163.1212901906139L219.90570475260418,163.11894911299396L220.3352080821991,163.11696721747697L220.76471141179402,163.1150157219766L220.90787918832567,163.1146563116589L221.19421474138895,163.11645750295054L221.33738251792062,163.11693005499066L221.62371807098387,163.11908553685498L221.7668858475155,163.12162115235384L221.91005362404718,163.12359895973748L222.19638917711046,163.123822173962L222.3395569536421,163.12416640820436L222.6258925067054,163.12381023733042L222.76906028323702,163.1228495473199L222.91222805976867,163.1235668869093L223.0553958363003,163.12344834105147L223.19856361283198,163.12291083477285L223.48489916589526,163.12280719833913L223.77123471895854,163.12290337782593L223.91440249549018,163.12264884474882L224.05757027202182,163.12271838240997L224.20073804855346,163.12149709281906L224.3439058250851,163.11860158918014L224.48707360161674,163.11675419253348L224.6302413781484,163.1154568816326L225.20291248427498,163.1172399726426L225.34608026080662,163.11933067183926L225.48924803733826,163.12045310441454L225.6324158138699,163.12133896697833L225.77558359040154,163.12165854118257L226.20508691999646,163.12375642538797L226.3482546965281,163.1251470566631L226.49142247305977,163.12657810604787L227.06409357918633,163.1289568839433L227.20726135571797,163.13046450929588L227.35042913224962,163.13079028412682L227.49359690878126,163.13125532531703L227.77993246184454,163.13119182753846L227.9231002383762,163.13154017997425L228.2094357914395,163.13219186771212L228.3526035679711,163.13200973984095L228.6389391210344,163.13292389343485L228.78210689756605,163.13370018804414L229.06844245062933,163.13621426195726L229.211610227161,163.13755940334855L229.49794578022426,163.1375295174354L229.6411135567559,163.13745978517838L229.78428133328757,163.13743917750696L229.9274491098192,163.13809160303646L230.07061688635085,163.13796956191803L230.2137846628825,163.13757317896835L230.35695243941413,163.13786568158343L230.6432879924774,163.13934280884703L231.07279132207233,163.14102893642112L231.35912687513564,163.14265253936813L231.50229465166728,163.14384186226263L231.6454624281989,163.1453690690232L231.9317979812622,163.14729649810255L232.2181335343255,163.14878668657474L232.36130131085713,163.1503673386184L232.79080464045205,163.1518451715905L232.9339724169837,163.15296424194256L233.07714019351536,163.15407103420677L233.220307970047,163.15477438386887L233.64981129964193,163.15605787134965L233.7929790761736,163.1569656393779L233.9361468527052,163.15772373750383L234.07931462923685,163.15825444433952L234.2224824057685,163.15902241125613" fill="none"></path></g></g></g></g><g opacity="0.2"><g><g><g><path style="fill: none;" stroke="rgb(255, 112, 67)" stroke-width="2px" d="M38.36896411048041,-0.6823562775858913L38.51213188701205,1.374658788520365L38.79846744007534,5.340118855799687L38.94163521660699,7.19121360542247L39.22797076967028,10.804242678323824L39.51430632273356,14.26488630405518L39.80064187579685,17.515352933843626L39.94380965232849,19.094884405125068L40.08697742886014,20.654024267246736L40.23014520539178,22.13923765089517L40.51648075845507,25.04861830240264L40.65964853498671,26.465393841783595L40.94598408805,29.139103389052423L41.08915186458164,30.43921097521542L41.232319641113286,31.683954147329697L41.51865519417657,34.18750684052777L41.66182297070821,35.36702076693035L41.9481585237715,37.72606700711981L42.377661853366426,41.07275481881362L42.520829629898074,42.133228819426925L42.950332959493,45.171256805006806L43.093500736024644,46.1022560392554L43.523004065619574,48.94619599013205L43.66617184215122,49.860159312850875L43.952507395214504,51.61694516853277L44.095675171746144,52.4822462787707L44.23884294827779,53.31480865130893L44.38201072480943,54.161777539425785L44.52517850134108,54.98636898088128L44.66834627787272,55.79443935756666L44.81151405440437,56.58550140379869L45.09784960746765,58.11466063586175L45.24101738399929,58.86915017477299L45.38418516053094,59.58906223755713L45.52735293706258,60.30508536856734L45.95685626665752,62.42647466701654L46.10002404318915,63.09421252692348L46.67269514931573,65.69011585763725L46.81586292584737,66.3352923970401L47.10219847891066,67.5579982891021L47.2453662554423,68.16109529959411L47.38853403197394,68.76250067073292L47.53170180850559,69.34797337339839L47.67486958503723,69.92815970308513L47.96120513810052,71.09138240702103L48.247540691163806,72.19761341339995L48.39070846769545,72.75093577466251L48.53387624422709,73.28017985621837L48.677044020758736,73.81070186098127L48.820211797290376,74.32985126857075L48.963379573822024,74.86969567716055L49.24971512688531,75.85808193772799L49.392882903416954,76.3300401235785L49.536050679948595,76.82004552709385L49.679218456480235,77.3085063903302L49.82238623301188,77.7857141743909L50.25188956260681,79.15024196135754L50.82456066873338,80.90302856095985L51.11089622179667,81.76080923102975L51.25406399832831,82.17350487736547L51.39723177485996,82.58883911334448L51.5403995513916,83.00196686321061L51.68356732792324,83.39416057608092L51.96990288098653,84.14153419727815L52.11307065751817,84.52551794307016L52.25623843404982,84.91841037654287L52.54257398711311,85.67900452703303L52.82890954017639,86.42131242386279L53.11524509323968,87.14821628951708L53.25841286977132,87.51708560543592L53.40158064630297,87.87430191657118L53.687916199366256,88.56068458413186L53.8310839758979,88.9001570694428L53.97425175242954,89.23389269086027L54.11741952896118,89.55883454574877L54.26058730549283,89.89915744758237L54.546922858556115,90.56603110042845L54.690090635087756,90.8848775374301L54.833258411619404,91.19706774132463L54.976426188151045,91.5102186860475L55.119593964682686,91.83031086833373L55.26276174121433,92.15175912021019L55.40592951774597,92.4596926446453L55.835432847340904,93.37465807980703L55.978600623872545,93.67261185142749L56.121768400404186,93.96797300186533L56.26493617693583,94.24926780333364L56.69443950653076,95.10613370103592L56.98077505959405,95.65688642534617L57.12394283612569,95.92314494332447L57.26711061265733,96.20632904852694L57.410278389188974,96.4737735527909L57.69661394225226,96.98607825658443L57.83978171878391,97.23821066659433L57.98294949531555,97.49182785788432L58.1261172718472,150.39931502309278L58.41245282491048,150.93866412151868L58.55562060144212,150.7712033176671L58.69878837797377,150.53570689357906L58.84195615450541,150.75858727363217L58.98512393103706,150.82043668827203L59.27145948410035,151.177399023662L59.55779503716363,151.21242928912682L59.70096281369527,151.2692865289363L59.98729836675856,151.0981470990184L60.1304661432902,151.0658151821958L60.27363391982185,151.11474401174866L60.41680169635349,151.0657347373896L60.55996947288513,151.1785332954294L60.84630502594842,151.2357973561159L60.98947280248006,151.29396584626642L61.13264057901171,151.2165043931665L61.562143908606636,151.2268679826279L61.84847946166992,151.22234123846198L61.991647238201566,151.18647894385876L62.134815014733206,151.19568872495697L62.277982791264854,151.2546720060731L62.421150567796495,151.26571133190654L62.56431834432814,151.3031664336725L62.707486120859784,151.33912526204315L62.850653897391425,151.3395263368626L62.993821673923065,151.38139670927734L63.280157226986354,151.44789468450392L63.423325003518,151.48671734797526L63.70966055658129,151.49185777109133L63.85282833311293,151.5258916701708L63.99599610964457,151.575245707985L64.13916388617622,151.58071825322952L64.28233166270786,151.56592330415813L64.4254994392395,151.51316185419566L64.85500276883442,151.52829352224157L64.99817054536608,151.49829910164476L65.14133832189772,151.49349999434926L65.28450609842936,151.5022144652836L65.57084165149264,151.5046312571041L65.7140094280243,151.5207558439008L65.85717720455592,151.53938915943937L66.00034498108758,151.55090770647544L66.28668053415088,151.53867434987572L66.4298483106825,151.556182587339L67.14568719334072,151.62535937461203L67.43202274640402,151.67906662565306L67.57519052293566,151.70415736070632L67.86152607599894,151.74400627006244L68.0046938525306,151.78026734106209L68.14786162906222,151.7910469450927L68.29102940559387,151.818893489364L68.57736495865717,151.86160623382077L68.7205327351888,151.87564959855996L68.86370051172045,151.8758277263451L69.0068682882521,151.88626371613205L69.15003606478372,151.89319690921485L69.29320384131537,151.9357476148477L69.43637161784702,151.9688483541753L69.57953939437867,151.95615071612264L69.86587494744195,151.93807936501594L70.0090427239736,151.94106271811438L70.29537827703687,151.96328617043244L70.43854605356852,151.96859667685305L71.0112171596951,152.00381426379516L71.15438493622673,152.01647397786775L71.29755271275839,152.02279693963493L71.44072048929002,152.03339611745733L71.58388826582167,152.05103421582209L71.72705604235331,152.06025548903543L72.29972714847989,152.10397034593512L72.44289492501153,152.1181067968072L72.58606270154317,152.13974415125153L72.72923047807481,152.15357031501398L72.87239825460647,152.16634380102678L73.0155660311381,152.18244770201616L73.30190158420139,152.2055158247993L73.44506936073303,152.23160062781488L73.58823713726468,152.23344970914593L73.73140491379631,152.25828417003086L73.87457269032797,152.26607812253997L74.0177404668596,152.263326910168L74.30407601992289,152.2858020398083L74.44724379645453,152.30563743059375L74.59041157298618,152.29875135518319L74.73357934951781,152.3170513993818L74.87674712604947,152.32002211115352L75.16308267911276,152.3563176584987L75.59258600870768,152.3763346247039L75.87892156177097,152.39408994264338L76.0220893383026,152.4003680851614L76.16525711483426,152.41562271883964L76.3084248913659,152.4308440253839L76.45159266789754,152.43188061417231L77.0242637740241,152.46469634904366L77.16743155055576,152.486838207344L77.45376710361906,152.50997183518362L77.74010265668234,152.52258558079552L77.88327043321398,152.5447044548655L78.02643820974562,152.55934196195906L78.16960598627726,152.56147604774634L78.3127737628089,152.57356575290643L78.45594153934056,152.56686010370404L78.59910931587218,152.5728049748821L78.74227709240384,152.57184768168835L78.88544486893548,152.5845257831452L79.17178042199876,152.61322159472766L79.3149481985304,152.61383182604325L79.45811597506206,152.63633453676L79.6012837515937,152.64501912819483L79.88761930465698,152.66774938279195L80.03078708118862,152.67912657681143L80.3171226342519,152.69741397968335L80.46029041078356,152.7100920811402L80.6034581873152,152.7158726150713L80.74662596384685,152.72040050844876L80.88979374037848,152.72848406226018L81.03296151691013,152.73838911632623L81.17612929344178,152.75096953480414L81.31929706997342,152.75771195877508L81.46246484650506,152.7741594740081L81.6056326230367,152.78152936746736L82.17830372916328,152.8404643816998L82.32147150569492,152.8638278518428L82.46463928222657,152.87268482500525L82.75097483528985,152.9034342775688L82.8941426118215,152.91557224961264L83.46681371794807,152.96539516572582L83.75314927101135,152.98489728517134L83.896317047543,152.99558839991508L84.03948482407465,153.0077321180165L84.46898815366957,153.0338330099933L84.61215593020121,153.05289727985078L84.75532370673285,153.07403242886213L84.8984914832645,153.0874230414596L85.04165925979615,153.08907101077517L85.18482703632779,153.09839571302504L85.32799481285943,153.1121150001164L85.47116258939107,153.1188057095691L85.61433036592271,153.13443038935583L85.75749814245437,153.1424231554574L85.900665918986,153.15553680807926L86.04383369551765,153.168945808061L86.18700147204929,153.18040114846363L86.33016924858094,153.18782505486425L86.61650480164423,153.2097818901103L86.90284035470751,153.22490666288712L87.04600813123915,153.234497982209L87.18917590777079,153.24077152788095L87.33234368430244,153.25417018495904L87.76184701389737,156.8233735020493L87.90501479042901,156.400217157879L88.04818256696065,156.5463784754723L88.19135034349229,156.42425693899986L88.62085367308723,156.27734691010318L88.76402144961887,156.11569077362458L89.05035700268216,156.29041861650467L89.19352477921379,156.3099575107187L89.47986033227708,156.21540613314772L89.62302810880874,156.1268927128877L89.76619588534037,156.08430638169781L89.90936366187202,156.10674760959836L90.1956992149353,156.11918667505967L90.33886699146694,156.17996042771946L90.48203476799858,156.19430028903008L90.91153809759352,156.20501726103296L91.05470587412516,156.21472062847778L91.1978736506568,156.2245331710167L91.34104142718846,156.23150026583923L91.48420920372008,156.24578841263158L91.62737698025174,156.2572104259002L91.77054475678338,156.26650122641038L91.91371253331504,156.25944621690678L92.2000480863783,156.2844197323853L92.34321586290996,156.3124800299988L92.48638363944158,156.3390664638416L92.62955141597324,156.36627749414393L93.20222252209982,156.44203753959275L93.34539029863146,156.42519297178055L93.4885580751631,156.44707740670108L93.63172585169474,156.47439933591482L93.77489362822638,156.49019180058306L94.06122918128968,156.50578257863006L94.34756473435296,156.52984879161582L94.63390028741625,156.57918559125727L94.77706806394788,156.57184098045136L94.92023584047953,156.5944137930706L95.20657139354283,156.6306760132818L95.34973917007446,156.64096490399456L95.49290694660611,156.6444182846035L95.7792424996694,156.67696050713377L95.92241027620103,156.65645972287987L96.06557805273268,156.67593023900866L96.20874582926433,156.68476595175804L96.49508138232761,156.7475370340346L96.63824915885925,156.75734095748714L96.7814169353909,156.7593882778049L97.21092026498583,156.7797683948495L97.35408804151747,156.79320210287887L97.49725581804911,156.8095812400266L97.64042359458075,156.81104073865333L97.7835913711124,156.81780442303733L97.92675914764405,156.81039947862678L98.06992692417568,156.82548747663503L98.35626247723897,156.82681194290853L98.49943025377063,156.84450807645487L98.64259803030225,156.85164238155315L98.78576580683391,156.85605018232707L98.92893358336555,156.86291499732457L99.07210135989719,156.8708221471681L99.50160468949213,156.88726621476658L99.64477246602377,156.89246467306424L99.93110801908705,156.8945010758726L100.07427579561869,156.91255231577773L100.21744357215034,156.91536156333134L100.50377912521363,156.9297979584094L100.64694690174527,156.9407338552063L100.79011467827692,156.9438424723601L101.21961800787184,156.96004405632846L101.36278578440347,156.96688588709563L101.50595356093513,156.97055589407555L101.64912133746677,156.97701388819598L101.79228911399842,156.99343554616988L101.93545689053005,157.00257924760584L102.0786246670617,156.9957339692041L102.22179244359334,157.01032550783697L102.36496022012498,157.00762773380055L102.65129577318827,157.03590638160227L102.79446354971992,157.0347652145658L102.93763132625156,157.03358842197227L103.0807991027832,157.05596874166238L103.22396687931484,157.06382130395886L103.36713465584648,157.07776353808455L103.65347020890977,157.09096567999325L104.08297353850472,157.09378124821018L104.65564464463128,157.10794125791836L104.94198019769456,157.11493076236547L105.08514797422622,157.1230556877915L105.22831575075786,157.1286701606584L105.3714835272895,157.1352131964311L105.51465130382114,157.13434726555295L105.65781908035278,157.1381275968385L105.80098685688444,157.1405076138905L105.94415463341606,157.15085224136183L106.08732240994772,157.15301907967736L106.23049018647936,157.16218174310333L106.373657963011,157.17492994646275L106.51682573954264,157.17885392918794L106.65999351607428,157.1873695865298L106.94632906913756,157.1991386616766L107.08949684566922,157.20606151185575L107.51900017526414,157.23356041964314L107.80533572832744,157.2361426979221L107.94850350485908,157.2434735181898L108.09167128139072,157.2494051734354L108.23483905792236,157.25523110122145L108.37800683445401,157.26510340275925L108.6643423875173,157.27915021513303L109.23701349364386,157.31725749443493L109.38018127017551,157.3282795820956L109.52334904670715,157.33954817562673L109.80968459977043,157.36277431499346L109.95285237630209,157.37016087201974L110.09602015283373,157.3726793690595L110.23918792936537,157.38302629495388L110.52552348242865,157.39871647979712L110.81185903549193,157.41871735704106L111.24136236508687,157.4367341206007L111.81403347121345,157.4566149052411L112.38670457734003,157.48624445118122L112.52987235387165,157.49699475031812L112.67304013040331,157.50178236549843L112.9593756834666,157.52196998961392L113.10254345999823,157.52896983696468L113.24571123652989,157.53940984899194L113.38887901306153,157.54399635215677L113.53204678959317,157.55336070220403L113.81838234265645,157.55861144962574L113.9615501191881,157.56392367986362L114.10471789571974,157.5706850658246L114.24788567225139,157.570543712808L114.39105344878303,157.5876221451639L114.53422122531467,157.59562870180366L114.82055677837795,157.60255327580006L114.9637245549096,157.60985536577985L115.10689233144124,157.61819461915383L115.39322788450453,157.62873920942917L115.67956343756782,157.63510928886853L115.82273121409945,157.6416488770067L115.9658989906311,157.6480563058204L116.10906676716274,157.65775622563064L116.53857009675768,157.6839662927016L116.68173787328932,157.69148788208113L116.9680734263526,159.99695299719352L117.11124120288424,159.6460992956228L117.2544089794159,159.6932250123053L117.39757675594754,159.8164589855263L117.54074453247918,159.96794029053524L117.82708008554246,159.93584740970815L117.97024786207412,159.88333993549097L118.2565834151374,159.7151749522823L118.39975119166904,159.6603061357003L118.5429189682007,159.7049874794859L118.68608674473232,159.74940364271393L118.82925452126398,159.71673385770526L119.2587578508589,159.7807334470936L119.40192562739054,159.82790685605408L119.5450934039222,159.8321204400816L119.68826118045382,159.86846482891627L119.97459673351712,159.86948820177224L120.40410006311204,159.86858463421692L120.5472678396437,159.88823902418847L120.69043561617534,159.89367594387593L120.83360339270698,159.90522810534893L120.97677116923862,159.9101088066621L121.11993894577026,159.91351765532477L121.5494422753652,159.94230310540559L121.69261005189684,159.92802156657945L121.97894560496012,159.94866657687874L122.12211338149177,159.94740962678188L122.26528115802341,159.95997108326975L122.40844893455505,159.97737043294183L122.5516167110867,159.98369052168022L122.98112004068163,159.9840734964183L123.12428781721327,159.98716257697632L123.26745559374491,159.99670792783752L123.41062337027655,159.99382168311226L124.26963002946641,160.02425165487406L124.55596558252971,160.01546248519114L124.69913335906134,160.02588267331973L124.84230113559299,160.0331629282807L124.98546891212463,160.0295340056125L125.12863668865629,160.02573040279373L125.41497224171957,160.00911194234754L125.55814001825121,160.0151967300278L125.70130779478285,160.01410928862973L125.84447557131449,160.02320501048484L125.98764334784613,160.02185497425512L126.13081112437779,160.03688924662492L126.41714667744107,160.05992404227408L126.56031445397271,160.0516474209278L126.70348223050435,160.06951248856717L126.846650007036,160.06880744730142L127.13298556009929,160.075384097511L127.27615333663093,160.07541685003923L127.41932111316258,160.0877645531849L127.56248888969421,160.0922754956925L127.8488244427575,160.0950973845728L127.99199221928914,160.10512195663662L128.1351599958208,160.11495604689148L128.27832777235244,160.1100224818485L128.42149554888408,160.10411926958793L128.56466332541572,160.1129480870682L128.850998878479,160.11879498796443L129.28050220807395,160.1369680442904L129.42366998460557,160.14161344454547L129.71000553766885,160.13574614514482L130.28267664379544,160.14048865377308L130.42584442032708,160.1358018819034L130.71217997339036,160.146893209558L130.855347749922,160.14542106960457L131.14168330298529,160.153709183066L131.4280188560486,160.14443102388256L131.71435440911185,160.14374092236653L131.85752218564352,160.1462398828105L132.00068996217516,160.148563875801L132.28702551523844,160.14506452673137L132.43019329177008,160.14625453525736L132.57336106830175,160.14756578559837L132.7165288448334,160.14958035338788L132.859696621365,160.15031987099917L133.00286439789664,160.15894412882938L133.1460321744283,160.1688080985837L133.28919995095995,160.1761139235009L133.4323677274916,160.18017150206495L133.57553550402324,160.1877959458753L133.71870328055488,160.19303462657606L134.00503883361816,160.2007133706306L134.43454216321308,160.2016407843249L134.57770993974475,160.2082605299664L134.7208777162764,160.21140046313405L135.00721326933964,160.21009668266788L135.1503810458713,160.21512362114663L135.29354882240295,160.21371468782664L135.4367165989346,160.21438611465553L135.57988437546624,160.21713359209008L136.29572325812444,160.24094697854207L136.4388910346561,160.23668196729915L136.86839436425103,160.25023605523492L137.01156214078267,160.2548079059529L137.15472991731434,160.2631620990766L137.29789769384595,160.26259898543321L137.4410654703776,160.27377420552855L137.87056879997255,160.28006872431072L138.0137365765042,160.28439177073523L138.15690435303583,160.29138357360537L138.30007212956744,160.2994613813592L138.4432399060991,160.29796510796393L138.58640768263075,160.2995352181992L138.7295754591624,160.30430013645204L138.87274323569403,160.31062281091636L139.01591101222567,160.30072637593668L139.15907878875734,160.3069461959702L139.30224656528898,160.30898834483614L139.4454143418206,160.30639486174488L139.7317498948839,160.31771919203456L139.87491767141555,160.32455154180673L140.0180854479472,160.33406270362528L140.16125322447883,160.3387325246251L140.30442100101047,160.33930282084046L140.44758877754214,160.3356443059757L140.59075655407375,160.34065659200763L140.7339243306054,160.34658393771005L140.87709210713703,160.352210189995L141.30659543673198,160.35683059489958L141.59293098979526,160.36819112535204L141.7360987663269,160.3705708551011L142.0224343193902,160.38170240515882L142.30876987245347,160.38623518268523L142.45193764898514,160.39460374095287L142.59510542551678,160.4028935782316L142.7382732020484,160.405712881386L142.88144097858003,160.41097081137968L143.16777653164334,160.41989731183892L143.31094430817498,160.42420484390794L143.88361541430154,160.43778277798273L144.02678319083319,160.44100890201415L144.16995096736483,160.44197768732306L144.3131187438965,160.44949094491912L144.45628652042814,160.4523904055768L144.74262207349142,160.45933968762083L144.88578985002306,160.46341076942022L145.17212540308634,160.4692499131387L145.31529317961798,160.46815844950032L145.74479650921293,160.4856948426458L145.88796428574457,160.48903473861745L146.0311320622762,160.49272083455858L146.17429983880783,162.8744983349052L146.3174676153395,161.3433703598619L146.46063539187114,161.4048457061529L146.60380316840278,161.3786560375864L146.74697094493442,161.1860042299767L146.89013872146606,161.08060688141L147.03330649799773,161.25078183556215L147.17647427452937,161.26494040875593L147.31964205106098,161.29569474546844L147.6059776041243,161.38340285575785L147.89231315718757,161.4216414324756L148.0354809337192,161.45033034878898L148.3218164867825,161.46390397332055L148.46498426331414,161.4476093032193L148.60815203984578,161.4318202861856L148.89448759290906,161.42542865903027L149.03765536944073,161.44329458857828L149.323990922504,161.46640437027892L149.46715869903562,161.49421902393064L149.75349425209893,161.50799031284316L150.0398298051622,161.5202012598183L150.46933313475716,161.52953199542867L150.61250091128878,161.5313454512027L151.04200424088373,161.5770510297529L151.328339793947,161.61396686401446L151.47150757047865,161.6037621530453L151.61467534701032,161.6073979709826L151.90101090007357,161.6035443774628L152.0441786766052,161.59322761837078L152.18734645313685,161.58995610048441L152.6168497827318,161.6332244887097L152.76001755926342,161.62269598739562L153.04635311232673,161.61001357639554L153.33268866539,161.62637691188493L153.47585644192165,161.6276933336778L153.90535977151657,161.6315161857895L154.19169532457988,161.6325226077756L154.33486310111152,161.638583262014L154.47803087764316,161.6366215579543L154.76436643070645,161.64014159283124L154.90753420723811,161.6417878383295L155.05070198376973,161.65145730403455L155.19386976030137,161.64904625827162L155.337037536833,161.65251055638998L155.48020531336468,161.6634619675424L155.62337308989632,161.66625052928865L155.76654086642796,161.66454768512318L155.9097086429596,161.66127271960227L156.05287641949124,161.66287041091394L156.19604419602288,161.67734760300084L156.48237974908616,161.69639406007983L156.6255475256178,161.70265553903084L156.91188307868111,161.70224383400483L157.19821863174437,161.69951646777182L157.341386408276,161.69054112582313L157.77088973787096,161.70659101387122L157.9140575144026,161.70466206233974L158.2003930674659,161.71000963083176L158.34356084399752,161.71493112915385L158.48672862052916,161.7174797929959L158.6298963970608,161.72330715729635L158.77306417359247,161.71914442587848L159.05939972665576,161.71539972014995L159.2025675031874,161.71678653114822L159.48890305625068,161.7160116752828L159.63207083278232,161.712534161232L159.9184063858456,161.7081387144819L160.06157416237724,161.71196099198784L160.2047419389089,161.71377329855034L160.34790971544055,161.72114750155282L160.4910774919722,161.72277966920998L160.6342452685038,161.72783964751986L160.77741304503547,161.7297401560663L160.9205808215671,161.73278987612989L161.4932519276937,161.73448467581474L161.63641970422532,161.7401353488444L161.77958748075696,161.7451510825109L161.9227552572886,161.7472914889615L162.06592303382027,161.75181536009865L162.2090908103519,161.75328520162907L162.35225858688355,161.7508359445832L162.4954263634152,161.7525910778727L162.63859413994683,161.75765823875457L163.2112652460734,161.7573344484096L163.35443302260504,161.76049133244715L163.4976007991367,161.7618120637832L163.64076857566835,161.76324915278536L163.7839363522,161.75534027912454L164.07027190526327,161.75120685260035L164.2134396817949,161.74711910723394L164.35660745832655,161.74581532676777L164.64294301138983,161.7532041822171L164.7861107879215,161.7557097506273L165.07244634098475,161.76109294467634L165.35878189404806,161.76574121796023L165.5019496705797,161.7699372765121L165.64511744711135,161.77267498564876L166.07462077670627,161.7844506687618L166.2177885532379,161.78637473614432L166.36095632976955,161.78874038805233L166.5041241063012,161.79175563177037L166.64729188283283,161.79335073735615L166.7904596593645,161.79842306968982L166.93362743589614,161.79600168102326L167.2199629889594,161.8034594891636L167.36313076549106,161.80870563973926L167.792634095086,161.81694175137955L167.93580187161763,161.81649844303683L168.5084729777442,161.83373403006772L168.7948085308075,161.84072037418315L168.93797630733914,161.84244131843002L169.08114408387078,161.8399682152452L169.22431186040242,161.8449296486675L169.3674796369341,161.8466612231209L169.5106474134657,161.84726254804724L169.94015074306066,161.85203091393464L170.0833185195923,161.85387108887642L170.22648629612394,161.85734989579018L170.36965407265558,161.8605560522715L170.5128218491872,161.85977343922835L170.7991574022505,161.8690918208149L171.08549295531378,161.87123107805402L171.22866073184542,161.8721376622896L171.3718285083771,161.87559578339605L171.65816406144035,161.86810981957353L171.801331837972,161.86978953585722L171.94449961450366,161.87125650435885L172.0876673910353,161.8719691591509L172.23083516756694,161.87206396910108L172.37400294409858,161.8717173381772L172.51717072063022,161.87090944248067L172.6603384971619,161.8725253775252L172.8035062736935,161.87408457025103L172.94667405022514,161.87294038653428L173.51934515635173,161.88634019282392L173.80568070941501,161.89064643203L173.94884848594666,161.89470616536568L174.0920162624783,161.89746728968697L174.23518403900994,161.8992354952575L174.37835181554158,161.900532524106L174.80785514513653,161.90201270854007L175.09419069819978,161.9016344742995L175.52369402779473,161.9039998389046L175.66686180432637,162.48685420677975L175.95319735738968,162.4495930344573L176.0963651339213,162.4661701232889L176.38270068698458,162.51175991877878L176.95537179311117,162.509454456824L177.0985395696428,162.4526283893769L177.24170734617445,162.4508320281242L177.3848751227061,162.44081607514676L177.52804289923773,162.45307902394308L178.10071400536432,162.4945164309187L178.38704955842758,162.49122379627073L178.53021733495925,162.4847000097909L178.81655288802253,162.5284999083429L178.95972066455417,162.5339010588219L179.38922399414912,162.550103217396L179.53239177068073,162.54352125208314L179.67555954721237,162.56693974072755L179.96189510027568,162.58846289227736L180.24823065333896,162.61237195058814L180.3913984298706,162.61237769664575L180.53456620640225,162.60564173698958L180.82090175946553,162.58880722477818L180.96406953599717,162.59750029164798L181.25040508906048,162.58625812998176L181.39357286559212,162.59061033764854L181.53674064212376,162.5959366457275L181.82307619518704,162.5991231219616L181.96624397171868,162.59054181591182L182.10941174825032,162.5890135082455L182.25257952478196,162.58937996306804L182.3957473013136,162.58077840216527L182.53891507784527,162.57878523844025L182.96841840744017,162.58690053921984L183.11158618397184,162.58403181997022L183.39792173703512,162.58059222989948L183.54108951356676,162.58197157102293L183.6842572900984,162.58296721915107L183.82742506663007,162.58213145507523L184.11376061969332,162.5875066046437L184.25692839622496,162.58851503774994L184.4000961727566,162.59322838513597L184.54326394928827,162.59864418806185L184.97276727888317,162.60541950821246L185.11593505541484,162.61495149948976L185.25910283194648,162.6165331018402L185.9749417146047,162.61265752965014L186.26127726766796,162.61071177090022L186.54761282073127,162.61561531279236L186.69078059726291,162.60917369493603L186.83394837379456,162.61190810008955L187.26345170338948,162.60906021029868L187.40661947992112,162.60965535821313L187.54978725645276,162.60040679122622L187.69295503298443,162.59897257525287L187.83612280951607,162.60219309687815L187.9792905860477,162.60177234181143L188.12245836257935,162.5995450262398L188.265626139111,162.59561314268544L188.55196169217427,162.6006781487957L188.69512946870591,162.60331228524439L188.9814650217692,162.60404533854089L189.12463279830087,162.60691750542503L189.2678005748325,162.607526874832L189.41096835136412,162.61003847660265L189.84047168095907,162.61392151866755L189.9836394574907,162.61323026794L190.269975010554,162.61118538969671L190.41314278708566,162.5974031832748L190.55631056361727,162.5969100278825L190.69947834014891,162.5993230847656L190.84264611668056,162.60238587711015L190.98581389321222,162.60524827569643L191.12898166974387,162.60730277858616L191.2721494462755,162.60630368282344L191.41531722280715,162.60980432475603L191.5584849993388,162.61218965691126L191.84482055240207,162.6127787714652L191.9879883289337,162.61701088652845L192.274323881997,162.61668249933743L192.41749165852866,162.6154379032644L192.70382721159194,162.6144768751332L192.84699498812356,162.61491989617306L193.13333054118687,162.6165185930448L193.2764983177185,162.61775112239692L193.41966609425015,162.61904269249072L193.5628338707818,162.6125648744716L193.70600164731346,162.61352906293445L193.84916942384507,162.61237626013136L194.13550497690835,162.6165645615055L194.27867275344002,162.62026588449925L194.42184052997166,162.62275263457084L194.70817608303494,162.6247390466782L194.85134385956658,162.62490079819923L195.13767941262986,162.62885724614978L195.2808471891615,162.62976612880837L195.42401496569315,162.63073534507166L195.5671827422248,162.63575912321875L195.71035051875646,162.63639894673088L195.8535182952881,162.6376959755794L195.99668607181974,162.63900191081717L196.5693571779463,162.64184477280764L196.71252495447794,162.64317800181894L196.85569273100958,162.64476319545534L197.1420282840729,162.6496930255609L197.2851960606045,162.6505941510418L197.42836383713615,162.65086392844543L197.71469939019946,162.6527457623047L198.00103494326274,162.65581961581012L198.28737049632602,162.66156078924678L198.5737060493893,162.66267538076693L198.86004160245258,162.67077100129927L199.00320937898425,162.67198988376464L199.1463771555159,162.6689250802999L199.28954493204753,162.6647183915415L199.57588048511082,162.66633561944897L199.71904826164246,162.6677139550123L199.8622160381741,162.6686528608218L200.00538381470574,162.67247341451045L200.14855159123738,162.67354088835842L200.29171936776905,162.67249108363754L200.72122269736394,162.67794509784633L200.8643904738956,162.67953905422058L201.29389380349053,162.68419336086492L201.43706158002217,162.6853102508081L201.58022935655384,162.6870195592884L201.8665649096171,162.69142448703352L202.00973268614874,162.68740325228367L202.4392360157437,162.6941035863828L202.58240379227533,162.6944381505857L202.72557156880694,162.69632889083425L203.01190712187025,162.69946566367022L203.1550748984019,162.69697244928383L203.44141045146517,162.69732726833973L203.58457822799684,162.6977105303807L203.72774600452848,162.6980649184823L203.8709137810601,162.70116218717237L204.1572493341234,162.70430915926056L204.58675266371833,162.70964983248348L204.72992044024997,162.7097103097396L205.1594237698449,163.00451883308912L205.30259154637653,163.07303288444535L205.4457593229082,163.06600445045808L205.58892709943984,163.032022481374L206.01843042903477,163.03432894888888L206.30476598209805,162.95865035380635L206.4479337586297,162.94215241691802L206.59110153516133,162.94103409046045L206.73426931169297,162.93646180878815L206.87743708822464,162.95960577953142L207.02060486475628,162.9643332047585L207.1637726412879,162.99760330913344L207.30694041781953,163.01541536939158L207.59327597088284,163.0501695367894L207.73644374741448,163.05985968830177L207.87961152394612,163.07546626800712L208.02277930047777,163.08559922508215L208.30911485354105,163.1000261391652L208.59545040660433,163.10073182686241L208.738618183136,163.09915266658646L209.16812151273092,163.09391305215132L209.31128928926256,163.0964928883558L209.59762484232584,163.08622719735055L209.74079261885748,163.07270061866546L209.88396039538912,163.0682688281011L210.02712817192076,163.0645118401745L210.17029594845243,163.07969328344424L210.31346372498408,163.08532370162092L210.742967054579,163.08229416458465L210.88613483111064,163.0807802220623L211.31563816070556,163.0849637111132L211.45880593723723,163.09037304972426L211.60197371376887,163.0862364628684L211.74514149030048,163.0943881074622L211.88830926683212,163.096061143954L212.0314770433638,163.0956198467314L212.31781259642707,163.10659610958285L212.46098037295872,163.10673868363668L212.747315926022,163.08778926310518L212.89048370255364,163.0888098347581L213.17681925561692,163.09783739400513L213.46315480868023,163.09903350771728L213.60632258521187,163.1007270863649L213.7494903617435,163.10431420646415L213.89265813827512,163.10616522708966L214.17899369133843,163.09673594659168L214.32216146787007,163.09936598897434L214.60849702093336,163.09364420848203L214.75166479746503,163.09356491288736L215.03800035052828,163.08455538189602L215.18116812705992,163.06821560524273L215.46750368012323,163.07653611210384L215.61067145665487,163.08109826634964L215.7538392331865,163.0872546642726L215.89700700971815,163.09252724671313L216.32651033931307,163.1006006012723L216.46967811584472,163.10117412964507L216.61284589237636,163.10378441995476L216.75601366890803,163.10638163798347L216.89918144543967,163.10084581427978L217.0423492219713,163.10646093357815L217.47185255156623,163.11164359021745L217.61502032809787,163.11251684731906L217.7581881046295,163.11345726146865L217.90135588116115,163.1179047818656L218.04452365769282,163.11944788563022L218.18769143422446,163.12014035739503L218.33085921075607,163.12292475324955L218.47402698728771,163.12617673454014L218.61719476381938,163.12867188822094L218.90353031688267,163.1311001003309L219.18986586994595,163.12344505876393L219.61936919954087,163.11453673021182L219.90570475260418,163.11543749656408L220.3352080821991,163.11399437420147L220.76471141179402,163.11208847872604L220.90787918832567,163.11411719618235L221.19421474138895,163.119159289888L221.33738251792062,163.11763888305083L221.62371807098387,163.12231875965142L221.7668858475155,163.12542457560218L221.91005362404718,163.12656567081294L222.19638917711046,163.1241569952988L222.3395569536421,163.12468275956786L222.6258925067054,163.12327598101948L222.76906028323702,163.12140851230416L222.91222805976867,163.12464289629338L223.0553958363003,163.12327052226476L223.19856361283198,163.12210457535494L223.48489916589526,163.12265174368852L223.77123471895854,163.12304764705615L223.91440249549018,163.12226704513316L224.05757027202182,163.1228226889017L224.20073804855346,163.1196651584327L224.3439058250851,163.1142583337218L224.48707360161674,163.11398309756345L224.6302413781484,163.11351091528135L225.20291248427498,163.11991460915763L225.34608026080662,163.12246672063426L225.48924803733826,163.1221367532774L225.6324158138699,163.12266776082404L225.77558359040154,163.12213790248893L226.20508691999646,163.1269032516961L226.3482546965281,163.12723300357578L226.49142247305977,163.128724680125L227.06409357918633,163.1325250507864L227.20726135571797,163.13272594732476L227.35042913224962,163.13127894637324L227.49359690878126,163.1319528871023L227.77993246184454,163.13109658087063L227.9231002383762,163.13206270862793L228.2094357914395,163.13316939931892L228.3526035679711,163.13173654803424L228.6389391210344,163.13429512382567L228.78210689756605,163.1348646299581L229.06844245062933,163.13998537282694L229.211610227161,163.1395771154355L229.49794578022426,163.1374846885657L229.6411135567559,163.13735518679286L229.78428133328757,163.1374082659998L229.9274491098192,163.1390702413307L230.07061688635085,163.1377865002404L230.2137846628825,163.13697860454386L230.35695243941413,163.138304435506L230.6432879924774,163.14155849974244L231.07279132207233,163.14355812778223L231.35912687513564,163.1450879437887L231.50229465166728,163.14562584660442L231.6454624281989,163.147659879164L231.9317979812622,163.15018764172163L232.2181335343255,163.15102196928305L232.36130131085713,163.15273831668384L232.79080464045205,163.1540619210487L232.9339724169837,163.1546428474706L233.07714019351536,163.15573122260304L233.220307970047,163.15582940836202L233.64981129964193,163.15798310257082L233.7929790761736,163.1583272914202L233.9361468527052,163.15886088469276L234.07931462923685,163.15905050459307L234.2224824057685,163.1601743616311" fill="none"></path></g></g></g></g></g></g><g transform="translate(72, 176)" clip-path="url(#clip_1)"><clipPath id="clip_1"><rect width="257" height="23"></rect></clipPath><g><g><line x1="0" y1="0" x2="0" y2="5" style="visibility: inherit;" fill="rgb(0, 0, 0)" stroke="rgb(204, 204, 204)" stroke-width="1px"></line><line x1="28.633555306328667" y1="0" x2="28.633555306328667" y2="5" style="visibility: inherit;" fill="rgb(0, 0, 0)" stroke="rgb(204, 204, 204)" stroke-width="1px"></line><line x1="57.26711061265733" y1="0" x2="57.26711061265733" y2="5" style="visibility: inherit;" fill="rgb(0, 0, 0)" stroke="rgb(204, 204, 204)" stroke-width="1px"></line><line x1="85.900665918986" y1="0" x2="85.900665918986" y2="5" style="visibility: inherit;" fill="rgb(0, 0, 0)" stroke="rgb(204, 204, 204)" stroke-width="1px"></line><line x1="114.53422122531467" y1="0" x2="114.53422122531467" y2="5" style="visibility: inherit;" fill="rgb(0, 0, 0)" stroke="rgb(204, 204, 204)" stroke-width="1px"></line><line x1="143.16777653164334" y1="0" x2="143.16777653164334" y2="5" style="visibility: inherit;" fill="rgb(0, 0, 0)" stroke="rgb(204, 204, 204)" stroke-width="1px"></line><line x1="171.801331837972" y1="0" x2="171.801331837972" y2="5" style="visibility: inherit;" fill="rgb(0, 0, 0)" stroke="rgb(204, 204, 204)" stroke-width="1px"></line><line x1="200.4348871443007" y1="0" x2="200.4348871443007" y2="5" style="visibility: inherit;" fill="rgb(0, 0, 0)" stroke="rgb(204, 204, 204)" stroke-width="1px"></line><line x1="229.06844245062933" y1="0" x2="229.06844245062933" y2="5" style="visibility: inherit;" fill="rgb(0, 0, 0)" stroke="rgb(204, 204, 204)" stroke-width="1px"></line><line x1="257.701997756958" y1="0" x2="257.701997756958" y2="5" style="visibility: inherit;" fill="rgb(0, 0, 0)" stroke="rgb(204, 204, 204)" stroke-width="1px"></line></g><g transform="translate(0, 8)"><text style="text-anchor: middle; visibility: hidden; font-family: Roboto, sans-serif; font-size: 12px; font-weight: 200;" x="0" y="0" dx="0em" dy="0.95em" fill="rgb(33, 33, 33)" stroke="none" stroke-width="1px">-2k</text><text style="text-anchor: middle; visibility: inherit; font-family: Roboto, sans-serif; font-size: 12px; font-weight: 200;" x="28.633555306328667" y="0" dx="0em" dy="0.95em" fill="rgb(33, 33, 33)" stroke="none" stroke-width="1px">0</text><text style="text-anchor: middle; visibility: inherit; font-family: Roboto, sans-serif; font-size: 12px; font-weight: 200;" x="57.26711061265733" y="0" dx="0em" dy="0.95em" fill="rgb(33, 33, 33)" stroke="none" stroke-width="1px">2k</text><text style="text-anchor: middle; visibility: inherit; font-family: Roboto, sans-serif; font-size: 12px; font-weight: 200;" x="85.900665918986" y="0" dx="0em" dy="0.95em" fill="rgb(33, 33, 33)" stroke="none" stroke-width="1px">4k</text><text style="text-anchor: middle; visibility: inherit; font-family: Roboto, sans-serif; font-size: 12px; font-weight: 200;" x="114.53422122531467" y="0" dx="0em" dy="0.95em" fill="rgb(33, 33, 33)" stroke="none" stroke-width="1px">6k</text><text style="text-anchor: middle; visibility: inherit; font-family: Roboto, sans-serif; font-size: 12px; font-weight: 200;" x="143.16777653164334" y="0" dx="0em" dy="0.95em" fill="rgb(33, 33, 33)" stroke="none" stroke-width="1px">8k</text><text style="text-anchor: middle; visibility: inherit; font-family: Roboto, sans-serif; font-size: 12px; font-weight: 200;" x="171.801331837972" y="0" dx="0em" dy="0.95em" fill="rgb(33, 33, 33)" stroke="none" stroke-width="1px">10k</text><text style="text-anchor: middle; visibility: inherit; font-family: Roboto, sans-serif; font-size: 12px; font-weight: 200;" x="200.4348871443007" y="0" dx="0em" dy="0.95em" fill="rgb(33, 33, 33)" stroke="none" stroke-width="1px">12k</text><text style="text-anchor: middle; visibility: inherit; font-family: Roboto, sans-serif; font-size: 12px; font-weight: 200;" x="229.06844245062933" y="0" dx="0em" dy="0.95em" fill="rgb(33, 33, 33)" stroke="none" stroke-width="1px">14k</text><text style="text-anchor: middle; visibility: hidden; font-family: Roboto, sans-serif; font-size: 12px; font-weight: 200;" x="257.701997756958" y="0" dx="0em" dy="0.95em" fill="rgb(33, 33, 33)" stroke="none" stroke-width="1px">16k</text></g><line x1="0" y1="0" x2="257.701997756958" y2="0" fill="rgb(0, 0, 0)" stroke="rgb(204, 204, 204)" stroke-width="1px"></line></g></g></g></g></svg>