<svg viewBox="0 0 330 200" xmlns="http://www.w3.org/2000/svg"><g><g><g><g><g><line x1="41.149001121520996" y1="176.89999961853027" x2="36.149001121520996" y2="176.89999961853027" style="visibility: inherit;" fill="rgb(0, 0, 0)" stroke="rgb(204, 204, 204)" stroke-width="1px"></line><line x1="41.149001121520996" y1="164.26428536006384" x2="36.149001121520996" y2="164.26428536006384" style="visibility: inherit;" fill="rgb(0, 0, 0)" stroke="rgb(204, 204, 204)" stroke-width="1px"></line><line x1="41.149001121520996" y1="151.6285711015974" x2="36.149001121520996" y2="151.6285711015974" style="visibility: inherit;" fill="rgb(0, 0, 0)" stroke="rgb(204, 204, 204)" stroke-width="1px"></line><line x1="41.149001121520996" y1="138.99285684313094" x2="36.149001121520996" y2="138.99285684313094" style="visibility: inherit;" fill="rgb(0, 0, 0)" stroke="rgb(204, 204, 204)" stroke-width="1px"></line><line x1="41.149001121520996" y1="126.35714258466449" x2="36.149001121520996" y2="126.35714258466449" style="visibility: inherit;" fill="rgb(0, 0, 0)" stroke="rgb(204, 204, 204)" stroke-width="1px"></line><line x1="41.149001121520996" y1="113.72142832619802" x2="36.149001121520996" y2="113.72142832619802" style="visibility: inherit;" fill="rgb(0, 0, 0)" stroke="rgb(204, 204, 204)" stroke-width="1px"></line><line x1="41.149001121520996" y1="101.08571406773157" x2="36.149001121520996" y2="101.08571406773157" style="visibility: inherit;" fill="rgb(0, 0, 0)" stroke="rgb(204, 204, 204)" stroke-width="1px"></line><line x1="41.149001121520996" y1="88.44999980926514" x2="36.149001121520996" y2="88.44999980926514" style="visibility: inherit;" fill="rgb(0, 0, 0)" stroke="rgb(204, 204, 204)" stroke-width="1px"></line><line x1="41.149001121520996" y1="75.8142855507987" x2="36.149001121520996" y2="75.8142855507987" style="visibility: inherit;" fill="rgb(0, 0, 0)" stroke="rgb(204, 204, 204)" stroke-width="1px"></line><line x1="41.149001121520996" y1="63.17857129233223" x2="36.149001121520996" y2="63.17857129233223" style="visibility: inherit;" fill="rgb(0, 0, 0)" stroke="rgb(204, 204, 204)" stroke-width="1px"></line><line x1="41.149001121520996" y1="50.542857033865786" x2="36.149001121520996" y2="50.542857033865786" style="visibility: inherit;" fill="rgb(0, 0, 0)" stroke="rgb(204, 204, 204)" stroke-width="1px"></line><line x1="41.149001121520996" y1="37.90714277539935" x2="36.149001121520996" y2="37.90714277539935" style="visibility: inherit;" fill="rgb(0, 0, 0)" stroke="rgb(204, 204, 204)" stroke-width="1px"></line><line x1="41.149001121520996" y1="25.271428516932904" x2="36.149001121520996" y2="25.271428516932904" style="visibility: inherit;" fill="rgb(0, 0, 0)" stroke="rgb(204, 204, 204)" stroke-width="1px"></line><line x1="41.149001121520996" y1="12.635714258466443" x2="36.149001121520996" y2="12.635714258466443" style="visibility: inherit;" fill="rgb(0, 0, 0)" stroke="rgb(204, 204, 204)" stroke-width="1px"></line><line x1="41.149001121520996" y1="0" x2="36.149001121520996" y2="0" style="visibility: inherit;" fill="rgb(0, 0, 0)" stroke="rgb(204, 204, 204)" stroke-width="1px"></line></g><g transform="translate(31.149001121520996, 0)"><text style="text-anchor: end; visibility: hidden; font-family: Roboto, sans-serif; font-size: 12px; font-weight: 200;" x="0" y="176.89999961853027" dx="0em" dy="0.3em" fill="rgb(33, 33, 33)" stroke="none" stroke-width="1px">0</text><text style="text-anchor: end; visibility: inherit; font-family: Roboto, sans-serif; font-size: 12px; font-weight: 200;" x="0" y="164.26428536006384" dx="0em" dy="0.3em" fill="rgb(33, 33, 33)" stroke="none" stroke-width="1px">0.5</text><text style="text-anchor: end; visibility: hidden; font-family: Roboto, sans-serif; font-size: 12px; font-weight: 200;" x="0" y="151.6285711015974" dx="0em" dy="0.3em" fill="rgb(33, 33, 33)" stroke="none" stroke-width="1px">1</text><text style="text-anchor: end; visibility: inherit; font-family: Roboto, sans-serif; font-size: 12px; font-weight: 200;" x="0" y="138.99285684313094" dx="0em" dy="0.3em" fill="rgb(33, 33, 33)" stroke="none" stroke-width="1px">1.5</text><text style="text-anchor: end; visibility: hidden; font-family: Roboto, sans-serif; font-size: 12px; font-weight: 200;" x="0" y="126.35714258466449" dx="0em" dy="0.3em" fill="rgb(33, 33, 33)" stroke="none" stroke-width="1px">2</text><text style="text-anchor: end; visibility: inherit; font-family: Roboto, sans-serif; font-size: 12px; font-weight: 200;" x="0" y="113.72142832619802" dx="0em" dy="0.3em" fill="rgb(33, 33, 33)" stroke="none" stroke-width="1px">2.5</text><text style="text-anchor: end; visibility: hidden; font-family: Roboto, sans-serif; font-size: 12px; font-weight: 200;" x="0" y="101.08571406773157" dx="0em" dy="0.3em" fill="rgb(33, 33, 33)" stroke="none" stroke-width="1px">3</text><text style="text-anchor: end; visibility: inherit; font-family: Roboto, sans-serif; font-size: 12px; font-weight: 200;" x="0" y="88.44999980926514" dx="0em" dy="0.3em" fill="rgb(33, 33, 33)" stroke="none" stroke-width="1px">3.5</text><text style="text-anchor: end; visibility: hidden; font-family: Roboto, sans-serif; font-size: 12px; font-weight: 200;" x="0" y="75.8142855507987" dx="0em" dy="0.3em" fill="rgb(33, 33, 33)" stroke="none" stroke-width="1px">4</text><text style="text-anchor: end; visibility: inherit; font-family: Roboto, sans-serif; font-size: 12px; font-weight: 200;" x="0" y="63.17857129233223" dx="0em" dy="0.3em" fill="rgb(33, 33, 33)" stroke="none" stroke-width="1px">4.5</text><text style="text-anchor: end; visibility: hidden; font-family: Roboto, sans-serif; font-size: 12px; font-weight: 200;" x="0" y="50.542857033865786" dx="0em" dy="0.3em" fill="rgb(33, 33, 33)" stroke="none" stroke-width="1px">5</text><text style="text-anchor: end; visibility: inherit; font-family: Roboto, sans-serif; font-size: 12px; font-weight: 200;" x="0" y="37.90714277539935" dx="0em" dy="0.3em" fill="rgb(33, 33, 33)" stroke="none" stroke-width="1px">5.5</text><text style="text-anchor: end; visibility: hidden; font-family: Roboto, sans-serif; font-size: 12px; font-weight: 200;" x="0" y="25.271428516932904" dx="0em" dy="0.3em" fill="rgb(33, 33, 33)" stroke="none" stroke-width="1px">6</text><text style="text-anchor: end; visibility: inherit; font-family: Roboto, sans-serif; font-size: 12px; font-weight: 200;" x="0" y="12.635714258466443" dx="0em" dy="0.3em" fill="rgb(33, 33, 33)" stroke="none" stroke-width="1px">6.5</text><text style="text-anchor: end; visibility: hidden; font-family: Roboto, sans-serif; font-size: 12px; font-weight: 200;" x="0" y="0" dx="0em" dy="0.3em" fill="rgb(33, 33, 33)" stroke="none" stroke-width="1px">7</text></g><line x1="41.149001121520996" y1="0" x2="41.149001121520996" y2="176.89999961853027" fill="rgb(0, 0, 0)" stroke="rgb(204, 204, 204)" stroke-width="1px"></line></g></g><g transform="translate(41, 0)" clip-path="url(#clip_0)"><clipPath id="clip_0"><rect width="288" height="176"></rect></clipPath><g><g><g><line x1="0" y1="0" x2="0" y2="176.89999961853027" fill="rgb(0, 0, 0)" stroke="rgb(66, 66, 66)" stroke-width="1px" opacity="0.25"></line><line x1="32.09455543094211" y1="0" x2="32.09455543094211" y2="176.89999961853027" fill="rgb(0, 0, 0)" stroke="rgb(66, 66, 66)" stroke-width="1px" opacity="0.25"></line><line x1="64.18911086188422" y1="0" x2="64.18911086188422" y2="176.89999961853027" fill="rgb(0, 0, 0)" stroke="rgb(66, 66, 66)" stroke-width="1px" opacity="0.25"></line><line x1="96.28366629282633" y1="0" x2="96.28366629282633" y2="176.89999961853027" fill="rgb(0, 0, 0)" stroke="rgb(66, 66, 66)" stroke-width="1px" opacity="0.25"></line><line x1="128.37822172376843" y1="0" x2="128.37822172376843" y2="176.89999961853027" fill="rgb(0, 0, 0)" stroke="rgb(66, 66, 66)" stroke-width="1px" opacity="0.25"></line><line x1="160.47277715471057" y1="0" x2="160.47277715471057" y2="176.89999961853027" fill="rgb(0, 0, 0)" stroke="rgb(66, 66, 66)" stroke-width="1px" opacity="0.25"></line><line x1="192.56733258565265" y1="0" x2="192.56733258565265" y2="176.89999961853027" fill="rgb(0, 0, 0)" stroke="rgb(66, 66, 66)" stroke-width="1px" opacity="0.25"></line><line x1="224.6618880165948" y1="0" x2="224.6618880165948" y2="176.89999961853027" fill="rgb(0, 0, 0)" stroke="rgb(66, 66, 66)" stroke-width="1px" opacity="0.25"></line><line x1="256.75644344753687" y1="0" x2="256.75644344753687" y2="176.89999961853027" fill="rgb(0, 0, 0)" stroke="rgb(66, 66, 66)" stroke-width="1px" opacity="0.25"></line><line x1="288.850998878479" y1="0" x2="288.850998878479" y2="176.89999961853027" fill="rgb(0, 0, 0)" stroke="rgb(66, 66, 66)" stroke-width="1px" opacity="0.25"></line></g><g><line x1="0" y1="176.89999961853027" x2="288.850998878479" y2="176.89999961853027" fill="rgb(0, 0, 0)" stroke="rgb(66, 66, 66)" stroke-width="1px" opacity="0.25"></line><line x1="0" y1="164.26428536006384" x2="288.850998878479" y2="164.26428536006384" fill="rgb(0, 0, 0)" stroke="rgb(66, 66, 66)" stroke-width="1px" opacity="0.25"></line><line x1="0" y1="151.6285711015974" x2="288.850998878479" y2="151.6285711015974" fill="rgb(0, 0, 0)" stroke="rgb(66, 66, 66)" stroke-width="1px" opacity="0.25"></line><line x1="0" y1="138.99285684313094" x2="288.850998878479" y2="138.99285684313094" fill="rgb(0, 0, 0)" stroke="rgb(66, 66, 66)" stroke-width="1px" opacity="0.25"></line><line x1="0" y1="126.35714258466449" x2="288.850998878479" y2="126.35714258466449" fill="rgb(0, 0, 0)" stroke="rgb(66, 66, 66)" stroke-width="1px" opacity="0.25"></line><line x1="0" y1="113.72142832619802" x2="288.850998878479" y2="113.72142832619802" fill="rgb(0, 0, 0)" stroke="rgb(66, 66, 66)" stroke-width="1px" opacity="0.25"></line><line x1="0" y1="101.08571406773157" x2="288.850998878479" y2="101.08571406773157" fill="rgb(0, 0, 0)" stroke="rgb(66, 66, 66)" stroke-width="1px" opacity="0.25"></line><line x1="0" y1="88.44999980926514" x2="288.850998878479" y2="88.44999980926514" fill="rgb(0, 0, 0)" stroke="rgb(66, 66, 66)" stroke-width="1px" opacity="0.25"></line><line x1="0" y1="75.8142855507987" x2="288.850998878479" y2="75.8142855507987" fill="rgb(0, 0, 0)" stroke="rgb(66, 66, 66)" stroke-width="1px" opacity="0.25"></line><line x1="0" y1="63.17857129233223" x2="288.850998878479" y2="63.17857129233223" fill="rgb(0, 0, 0)" stroke="rgb(66, 66, 66)" stroke-width="1px" opacity="0.25"></line><line x1="0" y1="50.542857033865786" x2="288.850998878479" y2="50.542857033865786" fill="rgb(0, 0, 0)" stroke="rgb(66, 66, 66)" stroke-width="1px" opacity="0.25"></line><line x1="0" y1="37.90714277539935" x2="288.850998878479" y2="37.90714277539935" fill="rgb(0, 0, 0)" stroke="rgb(66, 66, 66)" stroke-width="1px" opacity="0.25"></line><line x1="0" y1="25.271428516932904" x2="288.850998878479" y2="25.271428516932904" fill="rgb(0, 0, 0)" stroke="rgb(66, 66, 66)" stroke-width="1px" opacity="0.25"></line><line x1="0" y1="12.635714258466443" x2="288.850998878479" y2="12.635714258466443" fill="rgb(0, 0, 0)" stroke="rgb(66, 66, 66)" stroke-width="1px" opacity="0.25"></line><line x1="0" y1="0" x2="288.850998878479" y2="0" fill="rgb(0, 0, 0)" stroke="rgb(66, 66, 66)" stroke-width="1px" opacity="0.25"></line></g></g></g><g><g><line x1="0" y1="176.89999961853027" x2="288.850998878479" y2="176.89999961853027" fill="rgb(0, 0, 0)" stroke="rgb(153, 153, 153)" stroke-width="1.5px"></line></g></g><g><g><line x1="32.09455543094211" y1="0" x2="32.09455543094211" y2="176.89999961853027" fill="rgb(0, 0, 0)" stroke="rgb(153, 153, 153)" stroke-width="1.5px"></line></g></g><g><g><g><g><g><path style="fill: none;" stroke="rgb(255, 112, 67)" stroke-width="2px" d="M32.255028208096824,176.77684450788107L32.57597376240624,176.62290061956952L32.73644653956095,176.512940699347L32.89691931671566,176.4078319520755L33.69928320248922,176.08714170223277L33.85975597964393,175.8597953085516L34.02022875679864,175.67969072577853L34.50164708826277,175.42459909682674L34.66211986541748,175.22455056910553L34.82259264257219,175.0562578725371L35.143538196881615,174.85705305845676L35.30401097403632,174.68862416425063L35.46448375119103,174.53847534939365L35.78542930550046,174.34991030931542L35.94590208265517,174.1875806457985L36.4273204141193,173.94240383514935L36.58779319127401,173.7460716767546L36.74826596842871,173.57902664250486L36.90873874558343,173.4295454716584L37.06921152273814,173.29059864058317L37.39015707704756,173.10870761871533L37.55062985420227,172.95031290430842L37.71110263135699,172.8060148636855L38.0320481856664,172.62091228858574L38.19252096282111,172.4605891582069L38.35299373997582,172.31513333043L38.51346651713053,172.17859793553993L38.67393929428525,172.04741475118743L39.15535762574938,171.82091866724434L39.79724873436822,171.48797284968808L39.95772151152293,171.23894339312528L40.11819428867764,171.0402637298054L40.27866706583235,170.87179378234913L40.43913984298707,170.72144996163976L40.59961262014177,170.58198151389234L40.76008539729648,170.4490382890384L40.920558174451195,170.3200104987259L41.081030951605904,170.19333166763477L41.40197650591533,170.018800355857L41.883394837379456,169.7662953984052L42.043867614534165,169.56553026687882L42.20434039168887,169.39580933206952L42.36481316884359,169.24471461399017L42.68575872315301,169.0555337699488L42.846231500307724,168.89276310630805L43.006704277462426,168.74583885215847L43.167177054617135,168.60842214244096L43.48812260892656,168.4274481034069L43.648595386081276,168.2696015227566L43.969540940390694,168.07636956116238L44.29048649470011,167.86190637100168L44.61143204900954,167.6347041424421L44.771904826164246,167.44912094933383L44.932377603318955,167.28850887623722L45.09285038047367,167.14287947514757L45.41379593478309,166.95697782128914L45.5742687119378,166.79617497300126L45.895214266247216,166.60116894956496L46.05568704340193,166.43490347953036L46.21615982055664,166.2858820402778L46.537105374866066,166.09794516352164L46.69757815202077,165.93592088023615L47.01852370633019,165.74018229706024L47.49994203779433,165.47495297671824L47.660414814949036,165.2665532272813L48.14183314641316,164.99372750844157L48.30230592356788,164.78076991990596L48.78372425503201,164.5052094976071L48.94419703218672,164.29061078573707L49.26514258649614,164.06332784666932L49.42561536365085,163.87769562473798L49.58608814080556,163.71705443560631L49.746560917960274,163.57140786615446L49.90703369511498,163.43475746599265L50.0675064722697,163.3035053699227L50.22797924942441,163.17549225630785L50.548924803733826,163.0001600736754L50.709397580888535,162.84569890812304L50.869870358043244,162.70376035281873L51.03034313519796,162.5693347611455L51.511761466662094,162.34089323570512L51.672234243816796,162.15456646446805L52.31412535243564,161.84572237531648L52.474598129590355,161.61115346333486L52.79554368389978,161.37188840420015L52.95601646105448,161.17906691022864L53.11648923820919,161.01411215787286L53.27696201536391,160.86587745048652L53.437434792518616,160.72767477008185L53.75838034682804,160.5462288473755L54.07932590113746,160.33883697928812L54.23979867829217,160.16514000246283L54.40027145544688,160.01165996039478L54.560744232601586,159.87030947666327L54.7212170097563,159.7362373304515L54.88168978691101,159.60653218675154L55.202635341220436,159.43018478606803L55.363108118375145,159.27511448968505L55.52358089552985,159.1328098533646L55.68405367268456,158.99816521559944L55.84452644983927,158.86811657696745L56.325944781303406,158.64230122335186L56.96783588992225,158.30976398477318L57.28878144423167,158.01171732716244L57.44925422138638,157.78362747662314L57.60972699854109,157.59751110780886L57.7701997756958,157.43657943054743L57.93067255285051,157.29075856821765L58.25161810715993,157.1047417363563L58.412090884314644,156.94386978126659L58.57256366146935,156.79808475223987L58.89350921577878,156.61208942036032L59.214454770088196,156.40196790676902L59.535400324397614,156.1773712866685L59.69587310155233,155.9933508561175L59.85634587870704,155.83367674181403L60.177291433016464,155.63934795876838L60.33776421017117,155.47348883296814L60.498236987325875,155.3247115015151L60.65870976448059,155.1861826441526L60.8191825416353,155.05380347376223L61.140128095944725,154.87585225958227L61.300600873099434,154.71981907258362L61.46107365025415,154.57693730441153L61.62154642740886,154.44194638753544L61.78201920456356,154.31168937891908L61.94249198171827,154.1842733177764L62.102964758872986,154.05856182511792L62.58438309033712,153.8353487590864L62.74485586749183,153.65215846097684L62.90532864464654,153.49298242613818L63.06580142180125,153.34821494926214L63.54721975326538,153.11356829270008L63.868165307574806,152.8742559842993L64.02863808472952,152.68140674328595L64.18911086188422,152.51643534270508L64.34958363903893,152.36819004386587L64.67052919334836,152.1807191526166L64.83100197050307,152.01897415937637L64.99147474765778,151.87266530745936L65.15194752481248,151.73561814033627L65.4728930791219,151.55486612811666L65.63336585627661,151.39715185977641L65.79383863343132,151.25326144279938L65.95431141058604,151.1176653366403L66.11478418774075,150.98704581697197L66.43572974205017,150.81015039322526L66.75667529635959,150.60548822199584L66.9171480735143,150.43342906328533L67.23809362782373,150.23166985611326L67.39856640497844,150.06135247583717L67.55903918213315,149.90990019169863L67.71951195928786,149.76976576020704L67.87998473644257,149.6364232453392L68.20093029075198,149.45789402447272L68.36140306790669,149.30151463598L68.5218758450614,149.15842514691147L69.00329417652554,148.92478468051613L69.32423973083496,148.68607668873318L69.48471250798967,148.49359003769052L69.64518528514438,148.32883619109208L69.80565806229909,148.18072082212453L69.96613083945381,148.0425897447711L70.12660361660852,147.91044924238616L70.28707639376323,147.78190308498236L70.44754917091794,147.65551353456718L70.60802194807265,147.53041794834522L70.92896750238206,147.35683567963068L71.08944027953677,147.2034244624291L71.4103858338462,147.01285402016237L71.57085861100092,146.8492498988295L71.73133138815561,146.70182436502125L71.89180416531033,146.56410718876344L72.05227694246504,146.43221502703588L72.21274971961975,146.3038178740265L72.69416805108388,146.07899401430222L72.8546408282386,145.89483663745918L73.0151136053933,145.7350803553805L73.17558638254802,145.5899647301604L73.49653193685742,145.40437164308258L73.65700471401215,145.24375393486304L73.81747749116685,145.0981202489228L73.97795026832156,144.96147818138581L74.298895822631,144.78096922891788L74.45936859978569,144.6234020014642L75.26173248555925,144.28255118009204L75.58267803986867,143.979516975323L75.74315081702339,143.74843459648872L76.0640963713328,143.51126025220677L76.22456914848752,143.31969378966474L76.38504192564223,143.15549205616665L76.54551470279694,143.00770916009492L76.86646025710637,142.82051450547053L77.02693303426106,142.658935856723L77.18740581141579,142.5127268115016L77.3478785885705,142.37573952839594L77.50835136572519,142.2442853025596L77.66882414287991,142.116150911085L77.82929692003462,141.9900084202273L77.98976969718933,141.86505986470422L78.31071525149876,141.69156701944465L78.47118802865346,141.538209456316L78.79213358296289,141.3476712064931L78.95260636011758,141.18408519559082L79.59449746873644,140.888886165158L79.75497024589114,140.66250489092542L79.91544302304585,140.477414270413L80.07591580020056,140.31709683709707L80.23638857735529,140.17164452113462L80.39686135450998,140.0351112755843L81.03875246312883,139.756142699327L81.19922524028354,139.53949969759972L81.35969801743826,139.36025204059052L81.52017079459296,139.20344159041213L81.68064357174768,139.0600934643322L81.84111634890239,138.92482273271136L82.16206190321181,138.7451353767575L82.32253468036652,138.58806110721233L82.48300745752123,138.44455468951233L82.64348023467593,138.3091889829195L82.80395301183066,138.1787077029909L82.96442578898535,138.05115707906086L83.28537134329478,137.8761017877215L83.44584412044948,137.721806756945L83.6063168976042,137.57996788250622L83.76678967475891,137.4456027018701L83.92726245191362,137.31572173751553L84.24820800622305,137.13926824192143L84.72962633768718,136.88561057664637L85.0505718919966,136.63489226553557L85.2110446691513,136.4351982178606L85.37151744630602,136.26611993328274L85.53199022346072,136.11541110656316L85.69246300061545,135.97572395455853L86.33435410923427,135.69486303442866L86.49482688638899,135.47708462637786L86.81577244069842,135.24789386960165L87.13671799500784,135.01185570359016L87.29719077216255,134.8209697429748L87.45766354931725,134.65717631063268L87.61813632647197,134.50963839525457L87.77860910362666,134.37185379005481L87.93908188078139,134.23992117096208L88.0995546579361,134.11149974353359L88.26002743509082,133.98518382606798L88.42050021224551,133.86013241961575L88.74144576655495,133.68657786379868L88.90191854370964,133.53318327433556L89.06239132086436,133.39188466468482L89.22286409801907,133.25784243788587L89.54380965232849,133.07889338986078L89.7042824294832,132.92226210507283L90.02522798379262,132.7297596222543L90.18570076094734,132.56499627659034L90.34617353810204,132.41687520818346L90.50664631525676,132.27874071116648L90.66711909241147,132.1465981569834L90.82759186956618,132.01805076850067L90.98806464672089,131.89166047943817L91.1485374238756,131.76656445002783L91.3090102010303,131.6422437713731L91.46948297818501,131.5183895082074L92.11137408680386,131.2470295264165L92.27184686395856,131.03495168136908L92.43231964111328,130.85844191333211L92.75326519542271,130.65401234056424L92.91373797257741,130.4820927409306L93.55562908119626,130.18189235222334L93.87657463550568,129.9032484070532L94.03704741266039,129.68680018397828L94.19752018981511,129.50766939416044L94.67893852127924,129.2524041473155L94.83941129843393,129.04998314323566L94.99988407558865,128.8792686848149L95.16035685274336,128.72757815378955L95.32082962989807,128.58730197920147L95.48130240705278,128.45387321344015L95.6417751842075,128.32455409801048L95.8022479613622,128.1977007727798L95.96272073851691,128.07232692166852L96.12319351567163,127.94784075502889L96.28366629282633,127.82388719907223L96.44413906998105,127.70025200448974L96.60461184713576,127.57680903176738L96.76508462429047,127.4534813921611L97.0860301785999,127.28096109645158L97.4069757329093,127.07892520708013L97.56744851006403,126.90844061244874L97.72792128721872,126.75688799969707L97.88839406437344,126.61669457607317L98.36981239583757,126.38479295398025L98.53028517299228,126.19639012475157L98.69075795014699,126.03408657124155L98.8512307273017,125.88744258316262L99.33264905876584,125.65166821232542L99.49312183592055,125.46094173385025L99.81406739022997,125.2479821348194L99.97454016738467,125.07094451942801L100.29548572169409,124.86619823824742L100.45595849884882,124.6940886135662L100.61643127600352,124.54156098278462L100.77690405315823,124.40078254834275L101.09784960746765,124.21778936566069L101.25832238462236,124.05873160007857L101.41879516177707,123.91403508475642L101.90021349324121,123.67943160764452L102.06068627039592,123.4894076654045L102.22115904755061,123.32613144408764L102.38163182470534,123.1789038553246L102.54210460186005,123.04130544609394L102.70257737901476,122.90948454458268L102.86305015616946,122.78113014770302L103.02352293332419,122.65485565360237L103.34446848763359,122.480564835125L103.50494126478831,122.32672848806573L103.66541404194301,122.18516482385726L103.82588681909773,122.05096476935933L104.46777792771658,121.77339731276906L104.62825070487128,121.55759498284203L104.78872348202599,121.37885172891293L104.94919625918071,121.22234392058262L105.1096690363354,121.07917737961155L105.43061459064484,120.89475133301192L105.75156014495425,120.68557199310642L106.07250569926369,120.46154067721736L106.23297847641838,120.27786003171106L106.3934512535731,120.1183897884344L106.71439680788252,119.92418393052267L106.87486958503723,119.75839855980274L107.03534236219195,119.60966548139793L107.35628791650136,119.42189951233806L107.51676069365608,119.25997807492926L107.67723347081078,119.11356335651112L107.8377062479655,118.97645266948734L108.15865180227492,118.79566254532736L108.31912457942963,118.63792661485849L108.47959735658434,118.49402320060426L108.96101568804848,118.25989558413315L109.12148846520317,118.07015715827758L109.2819612423579,117.90704983672015L109.4424340195126,117.7599235878128L109.6029067966673,117.62238598249556L109.76337957382202,117.49060156333229L109.92385235097673,117.36226905586147L110.24479790528615,117.18674583943326L110.40527068244087,117.03217005360344L110.56574345959557,116.89016272613267L110.72621623675029,116.75569647367736L110.886689013905,116.62575486623129L111.0471617910597,116.49852804579078L111.52858012252385,116.27440397553661L111.68905289967854,116.09066767741125L112.00999845398798,115.88190218659028L112.17047123114267,115.70738103612481L112.3309440082974,115.55340648987269L112.65188956260681,115.36249805017565L112.81236233976152,115.19869113038455L112.97283511691624,115.05114512253705L113.45425344838037,114.81482953983867L113.61472622553507,114.62377833424678L113.77519900268979,114.45988575491877L113.9356717798445,114.31228835134908L114.0961445569992,114.1744680532344L114.25661733415392,114.04251401839274L114.41709011130864,113.91407974151484L114.57756288846333,113.78775731941525L114.73803566561804,113.66270201018261L115.05898121992746,113.4891451126973L115.21945399708218,113.33574911823322L115.37992677423689,113.19444966558191L115.5403995513916,113.06040572794703L115.70087232854631,112.93071750939322L115.86134510570102,112.80364272228805L116.18229066001044,112.6288741380792L116.66370899147458,112.37622741963528L117.30560010009341,112.02759196467744L117.62654565440283,111.71988456968577L117.78701843155756,111.48599827671788L117.94749120871226,111.2964046449643L118.10796398586697,111.13338660993925L118.26843676302168,110.98631393295136L118.42890954017639,110.84880847078577L118.5893823173311,110.71704333751352L118.74985509448581,110.5887224015773L118.91032787164053,110.4624679840427L119.07080064879523,110.33745347754906L119.23127342594995,110.21318291768L119.39174620310466,110.08935872578571L119.55221898025935,109.96580235467627L119.87316453456879,109.79314240999359L120.0336373117235,109.64028458721114L120.51505564318762,109.40078432562306L120.83600119749705,109.15856045672444L120.99647397465175,108.96396427941241L121.15694675180647,108.79794471705232L121.31741952896118,108.6490711236634L121.47789230611589,108.51048511165716L121.79883786042532,108.32880738243642L122.44072896904414,108.02275332101252L122.60120174619887,107.7898590281853L122.76167452335358,107.60086059651609L123.082620077663,107.38893782556883L123.24309285481772,107.2125223070276L123.40356563197243,107.05741113992998L123.56403840912712,106.91508258369852L123.88498396343654,106.7311593279427L124.20592951774597,106.52228166254345L124.6873478492101,106.24916949538529L125.32923895782895,105.88825477119892L125.97113006644778,105.47465610272435L126.1316028436025,105.17723504566672L126.29207562075722,104.94952055545929L126.61302117506663,104.71436814938909L126.77349395222134,104.52401484977406L126.93396672937605,104.36054101403221L127.09443950653076,104.21319485661421L127.25491228368547,104.07552530619054L127.57585783799489,103.8943998639906L127.73633061514961,103.73646274269775L127.8968033923043,103.59243620387797L128.05727616945904,103.4567584246132L128.21774894661374,103.32608990108146L128.37822172376843,103.19842693098956L128.69916727807785,103.02330543698866L128.85964005523257,102.86897068461526L129.0201128323873,102.72710797721835L129.34105838669672,102.54346664083445L129.66200394100613,102.33475812705836L129.82247671816083,102.16027116281984L129.98294949531555,102.00631471823263L130.14342227247025,101.86467899550742L130.6248406039344,101.63191199395371L130.7853133810891,101.44298993704857L131.10625893539853,101.23111299095976L131.26673171255322,101.05472496733361L131.42720448970795,100.89963029718504L131.58767726686264,100.75731163912302L131.74815004401736,100.62265858831293L132.06909559832678,100.4433406358099L132.2295683754815,100.28648800833523L132.55051392979092,100.09385271990465L132.71098670694562,99.92900969087346L132.87145948410034,99.78084201748186L133.03193226125506,99.64267955747401L133.19240503840976,99.51052022549644L133.6738233698739,99.2834390583913L133.8342961470286,99.09792850215531L133.99476892418332,98.93735790236964L134.155241701338,98.79175368652537L134.47618725564746,98.60586744507305L134.95760558711157,98.34655013228304L135.1180783642663,98.14169788863614L135.278551141421,97.96952468647517L135.4390239185757,97.81695890920568L135.5994966957304,97.67615758687113L135.75996947288513,97.54241493749751L136.24138780434927,97.3143813698835L136.40186058150397,97.12829937334222L136.72280613581339,96.91812646347171L136.8832789129681,96.74276086157653L137.0437516901228,96.58827964446655L137.20422446727753,96.44632905822768L137.36469724443225,96.31189685051149L137.84611557589636,96.08345195796318L138.0065883530511,95.8971231664613L138.16706113020578,95.73606162551607L138.3275339073605,95.59016284497606L139.29037057028876,95.20705244081483L139.61131612459818,94.87866248637232L139.7717889017529,94.63236665773397L139.93226167890762,94.43532730457807L140.09273445606232,94.26784183671167L140.25320723321704,94.11808628994773L140.57415278752646,93.92970924994358L140.73462556468115,93.76742116996826L140.89509834183588,93.62078646601019L141.05557111899057,93.48354378766247L141.2160438961453,93.35193632468096L141.37651667330002,93.22370999091918L141.69746222760944,93.04825047871637L141.85793500476413,92.89371291542183L142.01840778191882,92.75172852147222L142.17888055907355,92.61727602912958L142.49982611338297,92.43807841170701L142.6602988905377,92.28129798528062L142.8207716676924,92.1379678734519L142.9812444448471,92.00270795038179L143.30218999915652,91.82302828459397L143.46266277631122,91.66595862914843L143.62313555346594,91.52245497990822L143.78360833062067,91.38709093439121L143.9440811077754,91.25661065110818L144.10455388493008,91.12906062516544L144.4254994392395,90.95400448758282L144.90691777070364,90.70118523711464L145.06739054785834,90.50023183086086L145.38833610216776,90.28113607516286L146.0302272107866,89.95263119785254L146.19069998794131,89.7062664154935L146.51164554225073,89.4599214240611L146.67211831940546,89.26285257322877L146.99306387371485,89.04608755078362L147.3140094280243,88.8175048253708L147.6349549823337,88.58183147817738L147.79542775948843,88.39116561388843L147.95590053664313,88.2275042393422L148.27684609095255,88.03078370266871L148.43731886810724,87.86348711462051L148.597791645262,87.71384730581873L148.7582644224167,87.57480156456478L148.91873719957138,87.44211226383953L149.0792099767261,87.31323682743151L149.23968275388083,87.18664970961383L149.40015553103555,87.06143558295035L149.56062830819025,86.9370452509794L149.72110108534494,86.81314919582393L149.88157386249964,86.6895497067578L150.20251941680908,86.51686630137236L150.6839377482732,86.26546828015127L150.84441052542795,86.06536761144572L151.00488330258264,85.89604535424954L151.32582885689203,85.69592828798609L151.48630163404678,85.52659619225513L151.64677441120148,85.37573507884369L151.8072471883562,85.23595655482393L151.9677199655109,85.10282758443923L152.77008385128445,84.77663851227281L152.93055662843918,84.53166321300009L153.4119749599033,84.23689246551783L153.57244773705798,84.01076816105558L153.73292051421274,83.82583172240538L153.89339329136743,83.6656080032424L154.05386606852213,83.52021191577171L154.53528439998627,83.28518869537069L154.695757177141,83.09491049708599L154.85622995429569,82.93148172214228L155.01670273145038,82.78416260120319L155.17717550860513,82.64650927266686L155.33764828575983,82.5146554195722L155.49812106291452,82.38628125174252L155.65859384006924,82.25999489507186L155.81906661722394,82.13496122509656L155.97953939437866,82.01067916713853L156.14001217153339,81.88684807639083L156.30048494868808,81.76328756596934L156.62143050299753,81.59062513769945L156.78190328015222,81.43776582476468L156.94237605730692,81.29678838103091L157.10284883446164,81.1629400588178L157.26332161161633,81.03336920951705L157.42379438877106,80.90636484396374L157.58426716592578,80.78090036865886L157.74473994308048,80.65635982750308L157.90521272023517,80.53237364683673L158.3866310516993,80.31019637051831L158.70757660600873,80.07836388271026L158.86804938316345,79.89000253405258L159.18899493747287,79.6784620129122L159.5099404917823,79.45301398828227L159.670413268937,79.2684833175314L159.8308860460917,79.10850305910802L159.99135882324643,78.96325304808111L160.15183160040112,78.82684118549211L160.47277715471057,78.64647035599295L160.63324993186527,78.48898600232059L161.2751410404841,78.19744555615443L161.43561381763882,77.97325943248187L161.59608659479352,77.78948590230547L161.75655937194827,77.62995992822675L161.91703214910297,77.48498248780666L162.23797770341235,77.29947231160887L162.39845048056708,77.1389043499173L162.71939603487652,76.94403986095661L162.87986881203122,76.77785690153608L163.36128714349536,76.53036155796516L163.52175992065006,76.33260249584976L163.68223269780478,76.16468520260764L163.84270547495947,76.01467297068949L164.0031782521142,75.87540377556572L164.16365102926892,75.74258040251858L164.32412380642361,75.61362452271743L164.4845965835783,75.48698913886388L164.64506936073303,75.36174605257888L164.80554213788776,75.237338344835L164.96601491504245,75.11343186421578L165.12648769219717,74.98982611987138L165.4474332465066,74.817138961319L165.768378800816,74.61500295424185L165.9288515779707,74.4444546738802L166.24979713228015,74.24360199371748L166.41026990943485,74.07382852964697L166.57074268658957,73.92270259523178L166.89168824089896,73.73350332263692L167.0521610180537,73.57072190310713L167.3731065723631,73.37452933944351L167.53357934951782,73.2075519452725L167.85452490382724,73.0088417968241L168.17547045813666,72.79109199580935L168.6568887896008,72.51265654728188L168.8173615667555,72.2963334221925L169.29877989821964,72.01875397922026L169.61972545252905,71.75368260149119L169.78019822968375,71.54537791888086L169.9406710068385,71.37113325334178L170.2616165611479,71.16805792193014L170.4220893383026,70.99695086711029L170.5825621154573,70.84502477824549L171.06398044692145,70.60608355700799L171.22445322407614,70.41345696829264L171.5453987783856,70.19935730311767L171.866344332695,69.97237379206696L172.0268171098497,69.78692182946364L172.50823544131384,69.52786508398304L172.8291809956233,69.27390732474893L172.98965377277798,69.07227081323559L173.15012654993268,68.90202705035473L173.4710721042421,68.70135708068044L173.63154488139685,68.531693242903L173.79201765855154,68.38063308426369L173.95249043570624,68.24073513310721L174.11296321286093,68.107529686298L174.27343599001568,67.97834456223961L174.43390876717038,67.85157163183169L174.5943815443251,67.72624601761407L174.7548543214798,67.6017887931106L174.9153270986345,67.47785260243568L175.07579987578924,67.35422903205783L175.39674543009863,67.18153117788538L175.55721820725333,67.02865060940906L175.87816376156277,66.83839855637751L176.1991093158722,66.62572361261283L176.3595820930269,66.44885679038114L176.84100042449103,66.1949511291235L177.00147320164575,65.99334587639606L177.32241875595517,65.77385901281386L177.4828915331099,65.59290503869165L177.6433643102646,65.43507079824545L177.80383708741928,65.29110839800488L177.96430986457403,65.15546910188765L178.28525541888342,64.97555699212911L178.44572819603815,64.81834787030111L178.76667375034756,64.62549868525856L178.9271465275023,64.46052731826019L179.24809208181168,64.26302078611539L179.4085648589664,64.09525501085562L179.56903763612112,63.94533368972691L179.72951041327582,63.80611904107679L179.88998319043054,63.67332839591386L180.05045596758524,63.54439215284323L180.21092874473996,63.41776855102799L180.37140152189468,63.29253253396595L181.01329263051352,63.02034349983725L181.1737654076682,62.807768223387164L181.33423818482294,62.63096120154422L181.49471096197763,62.47561513246559L181.65518373913235,62.333145635045554L181.81565651628708,62.19840208062064L181.97612929344177,62.068294091992826L182.13660207059647,61.94096744284327L182.2970748477512,61.81530959738066L182.93896595637003,61.54286264606913L183.09943873352472,61.33013261930937L183.25991151067947,61.153232747280605L183.42038428783417,60.9978309680905L183.58085706498886,60.85532804460355L183.9018026192983,60.67130257856563L184.062275396453,60.51162544297001L184.22274817360773,60.36655730563977L184.54369372791712,60.18099271129589L184.70416650507187,60.020392098716705L185.02511205938126,59.82550801922342L185.3460576136907,59.61005385958171L185.50653039084543,59.4315195078238L185.66700316800012,59.27513704079619L186.14842149946426,59.03352199266101L186.30889427661896,58.83929110780703L186.46936705377365,58.67348590077931L186.62983983092838,58.52474092058981L186.79031260808307,58.38623207650323L186.95078538523782,58.253864914078406L187.11125816239252,58.12518276065065L187.4322037167019,57.94944975664824L187.59267649385666,57.79474809827392L188.07409482532077,57.55414153533073L188.23456760247547,57.36051574159193L188.87645871109433,57.047292841457164L189.19740426540375,56.76083538943055L189.35787704255847,56.53969906224171L189.51834981971317,56.35775540995554L189.67882259686786,56.199327362610966L189.8392953740226,56.055008678231346L189.9997681511773,55.91915561163071L190.48118648264145,55.6898582037517L190.64165925979614,55.50301308290895L190.80213203695087,55.34164415443043L190.96260481410556,55.19556094137046L191.12307759126026,55.05864915756158L191.4440231455697,54.87797837533053L191.76496869987912,54.67105219404614L191.92544147703381,54.49763462930264L192.08591425418854,54.34432223448367L192.40685980849796,54.153811085646545L192.56733258565265,53.99024254037141L192.7278053628074,53.84283955723343L192.8882781399621,53.705135911377766L193.0487509171168,53.57325186789151L193.20922369427151,53.44485958582688L193.3696964714262,53.31856236061524L193.53016924858093,53.193522169515376L193.69064202573566,53.069236198882585L193.85111480289035,52.945402760530044L194.4930059115092,52.67405527362702L194.8139514658186,52.41271824939701L194.97442424297333,52.20665417888611L195.13489702012805,52.033753880606724L195.29536979728275,51.88075184566623L195.45584257443744,51.739688768729046L195.93726090590158,51.50726535464812L196.258206460211,51.26928759425381L196.73962479167514,50.97871537009861L196.90009756882984,50.75511017963262L197.22104312313928,50.52242335340727L197.38151590029398,50.3335494016992L197.7024614546034,50.1217013187286L198.34435256322223,49.79754504505476L198.50482534037695,49.55378942487755L198.66529811753168,49.35827419679839L198.8257708946864,49.19169838383555L198.9862436718411,49.042491040084954L199.62813478045993,48.755919209943094L199.94908033476935,48.48545239991225L200.10955311192407,48.27391045792089L200.4304986662335,48.04846158078033L200.59097144338818,47.863930398523095L201.07238977485233,47.60542612125014L201.23286255200705,47.401061698913516L201.39333532916174,47.22918118953864L201.7142808834712,47.02752917196799L202.03522643778058,46.808014249479854L202.1956992149353,46.62704344001412L202.35617199209003,46.46919909836177L202.67711754639944,46.27596878142462L202.83759032355414,46.11076873528947L203.15853587786359,45.91312017552016L203.31900865501828,45.74526918368571L203.47948143217297,45.59529673261217L203.80042698648242,45.406789550022296L203.96089976363712,45.244423384495526L204.12137254079184,45.09774182920656L204.28184531794653,44.960471040060334L204.44231809510123,44.8288467105997L204.60279087225598,44.70061025695047L205.0842092037201,44.47588281684228L205.24468198087482,44.291784496804524L205.56562753518423,44.082801792836094L205.72610031233893,43.908150314482185L205.88657308949362,43.75409757149696L206.04704586664838,43.61240406973297L206.36799142095776,43.428864256728815L206.5284641981125,43.269478512953455L206.68893697526718,43.12458521071536L206.8494097524219,42.98838737339965L207.33082808388602,42.758878282949134L207.49130086104077,42.571910972705936L207.65177363819546,42.41046873058715L208.45413752396902,42.06729410545153L208.7750830782784,41.762865618424414L209.09602863258786,41.48168481426238L209.25650140974255,41.26371447579231L209.41697418689728,41.08367041673739L209.89839251836142,40.827858413385805L210.0588652955161,40.625109355401996L210.2193380726708,40.4541980646388L210.37981084982556,40.30238943420804L210.54028362698025,40.16204239997672L210.70075640413498,40.02857232346504L210.86122918128967,39.89922842158516L211.02170195844437,39.77236022448437L211.3426475127538,39.597710774135685L211.5031202899085,39.44365924795359L211.82406584421793,39.25270462029857L211.98453862137265,39.08886998773273L212.14501139852737,38.94130735222031L212.30548417568207,38.80350791494001L212.7869025071462,38.5730426846532L212.9473752843009,38.38550169050825L213.26832083861032,38.174453382075534L213.42879361576504,37.99856254104303L213.58926639291977,37.84376618045067L213.74973917007446,37.70162650812237L213.91021194722916,37.56708084875251L214.0706847243839,37.43709159715773L214.2311575015386,37.30983619022797L214.3916302786933,37.18422109009727L214.55210305584802,37.059590174045965L214.71257583300272,36.935549768442314L215.03352138731216,36.762601813134374L215.19399416446686,36.609571183976726L215.51493971877628,36.419224274393954L215.675412495931,36.25575427267141L215.99635805024042,36.05914855969216L216.1568308273951,35.891923275931724L216.47777638170456,35.69306439372971L216.63824915885925,35.52448720843563L216.79872193601395,35.37407904128631L216.95919471316867,35.23457228502384L217.1196674903234,35.10160637529349L217.2801402674781,34.97256497348241L217.6010858217875,34.79661642045003L217.76155859894223,34.64178543265771L217.92203137609695,34.49962498400943L218.24297693040634,34.31580500287474L218.40344970756107,34.15625115822106L218.72439526187048,33.96199513948309L218.8848680390252,33.79617967226745L219.0453408161799,33.64742853596518L219.2058135933346,33.508915998210945L219.36628637048935,33.37654661958554L219.52675914764404,33.24785831629498L219.68723192479874,33.12138347834773L220.3291230334176,32.84845115168792L220.4895958105723,32.635429899719156L220.650068587727,32.458355292565024L220.97101414203644,32.25358681632679L221.13148691919113,32.081463874610996L221.29195969634586,31.928928253608632L221.6129052506553,31.73888316906146L221.9338508049647,31.526332406387418L222.25479635927414,31.30027823683724L222.57574191358353,31.06612202316141L222.89668746789295,30.82710458301015L223.0571602450477,30.634432262946543L223.2176330222024,30.469567014935503L223.3781057993571,30.321386010155987L223.69905135366653,30.13394887520007L223.85952413082123,29.972224738253647L224.01999690797595,29.825928400112947L224.18046968513065,29.688888741255635L224.34094246228534,29.557403089968382L224.5014152394401,29.429249843223147L224.9828335709042,29.204572327257388L225.14330634805893,29.020503961705074L225.62472467952304,28.762277374455063L225.78519745667774,28.558079566132182L225.9456702338325,28.386299025165552L226.26661578814188,28.184706988639874L226.4270885652966,28.01448991075158L226.90850689676074,27.764574096099988L227.06897967391544,27.565362751336153L227.22945245107013,27.396574088504995L227.55039800537958,27.19677717886053L227.71087078253427,27.027632356958527L228.0318163368437,26.82762175187155L228.1922891139984,26.658353532846508L228.35276189115314,26.507530745458638L228.51323466830783,26.367775217053023L228.83418022261728,26.185398188063893L229.3155985540814,25.928186402751834L229.47607133123608,25.724597475591708L229.95748966270023,25.45465855137701L230.11796243985492,25.24343334087532L230.27843521700967,25.06743635860145L230.43890799416437,24.912576313264225L230.92032632562848,24.671874718143314L231.24127187993793,24.428930049125007L231.40174465709262,24.23390139174115L231.56221743424732,24.067622341337977L231.72269021140204,23.91859305512317L231.88316298855676,23.779908807278975L232.04363576571146,23.647436402599563L232.20410854286618,23.51869110381905L232.36458132002087,23.392182068577842L232.68552687433032,23.217752935487397L232.84599965148502,23.063833599660253L233.0064724286397,22.9222201421911L233.16694520579443,22.787990211736737L233.48789076010385,22.60892854151837L233.80883631441327,22.40296782744159L233.96930909156802,22.23012954302265L234.4507274230321,21.978641004452676L234.61120020018683,21.778486025337802L234.93214575449628,21.559869325923152L235.09261853165097,21.379437450301506L235.25309130880566,21.221916468955634L235.41356408596036,21.078142024175225L235.5740368631151,20.9426155013341L235.7345096402698,20.81203773165656L236.21592797173395,20.585900681788996L236.37640074888867,20.40095659589557L236.85781908035278,20.142204576440893L237.0182918575075,19.937691508795204L237.1787646346622,19.76572181223491L237.33923741181692,19.61327813832588L237.49971018897162,19.472550078007597L237.66018296612634,19.338851385843732L237.98112852043576,19.160108458599666L238.14160129759046,19.00360084628036L238.4625468518999,18.81117256694304L238.6230196290546,18.646453743367754L238.943965183364,18.44909873727686L239.26491073767346,18.23216202167657L239.42538351482816,18.05273813634352L239.58585629198285,17.895821949170802L239.74632906913757,17.752410380894343L240.067274623447,17.567834907840226L240.22774740060171,17.407827768034885L240.5486929549111,17.213299772205946L240.70916573206586,17.0473211187357L241.03011128637525,16.84921021470781L241.19058406352997,16.681081816318194L241.5115296178394,16.48168106533869L241.6720023949941,16.31277875877811L241.8324751721488,16.16217551886889L241.9929479493035,16.0225517189505L242.47436628076764,15.790991871080836L242.63483905792236,15.602794106386169L242.79531183507706,15.44061359159649L242.95578461223178,15.294043426749807L243.1162573893865,15.156839471868937L243.2767301665412,15.025255242967528L243.75814849800534,14.798519137708055L243.91862127516004,14.613215618579526L244.07909405231476,14.452766830987057L244.23956682946945,14.30723570245872L244.40003960662418,14.170655169368837L244.5605123837789,14.03944499354205L244.7209851609336,13.911457032073073L244.8814579380883,13.785402399218848L245.04193071524304,13.660507763533403L245.36287626955243,13.487047270176422L245.68382182386185,13.284447262216474L246.165240155326,13.015101689521886L246.48618570963544,12.754970633959378L246.96760404109955,12.451106432703273L247.4490223725637,12.121002344030986L247.60949514971838,11.873678034854725L247.9304407040278,11.626759737403251L248.09091348118253,11.429346902959475L248.41185903549194,11.212370670205017L248.57233181264664,11.032923074579474L248.7328045898014,10.875992661231262L249.05375014411078,10.68331070127661L249.2142229212655,10.518439669330924L249.53516847557492,10.320993338217777L249.69564125272964,10.153263683577014L249.85611402988434,10.003364034819686L250.01658680703903,9.864162389592437L250.17705958419378,9.731379546483184L250.49800513850317,9.553186128671902L250.8189506928126,9.347746366039397L250.97942346996732,9.175220652486992L251.13989624712204,9.022443368382698L251.30036902427673,8.881515141947247L251.46084180143143,8.747696350113078L251.62131457858615,8.61814321903974L251.78178735574087,8.491149484422857L252.4236784643597,8.217900999618765L252.58415124151443,8.004690052763433L252.74462401866913,7.8275016286773385L252.90509679582382,7.67192671825282L253.06556957297855,7.529319916025252L253.5469879044427,7.295970266770102L253.70746068159738,7.106698621244123L253.8679334587521,6.943873777955691L254.50982456737094,6.649131448091137L254.67029734452566,6.423024194199517L254.83077012168036,6.2380979858916445L254.99124289883508,6.077880404934084L255.31218845314447,5.883226144413779L255.47266123029922,5.717171732128743L255.7936067846086,5.519015372811976L255.95407956176334,5.350859701249055L256.27502511607275,5.151442586365542L256.4354978932275,4.982525641320099L256.75644344753687,4.782651762347076L256.9169162246916,4.613465578990401L257.23786177900104,4.413430157030655L257.3983345561557,4.244147047881936L257.5588073333105,4.093315326419819L257.71928011046515,3.9535544375696725L257.8797528876199,3.820436048286732L258.0402256647746,3.6913031587440988L258.20069844192926,3.5645615690456385L258.5216439962387,3.3899929032808167L259.0030623277028,3.1374661359033182L259.32400788201227,2.8874263635310617L259.484480659167,2.688140644134832L259.64495343632166,2.5193073565242248L259.9658989906311,2.3194836720121037L260.2868445449405,2.1010657493591056L260.4473173220952,1.9207531397944146L260.9287356535594,1.6647751859945314L261.08920843071405,1.4619265577417329L261.2496812078688,1.2909555248171656L261.4101539850235,1.1391110490895369L261.8915723164876,0.9002187957343654L262.05204509364233,0.7076215877483899L262.21251787079706,0.5428014069839321L262.3729906479518,0.3946474425524005L262.53346342510645,0.2564932079205815" fill="none"></path></g></g></g></g><g opacity="0.2"><g><g><g><path style="fill: none;" stroke="rgb(255, 112, 67)" stroke-width="2px" d="M32.255028208096824,176.77684450788107L32.57597376240624,176.53053428658262L32.73644653956095,176.4073791759334L32.89691931671566,176.28422406528418L33.69928320248922,175.66844851203808L33.85975597964393,175.54529340138885L34.02022875679864,175.42213829073964L34.50164708826277,175.0526730529354L34.66211986541748,174.92951784814278L34.82259264257219,174.80636283163696L35.143538196881615,174.56005261033852L35.30401097403632,174.4368974055459L35.46448375119103,174.31374238904007L35.78542930550046,174.06743216774163L35.94590208265517,173.94427696294903L36.4273204141193,173.57481153685796L36.58779319127401,173.45165652035215L36.74826596842871,173.32850150384633L36.90873874558343,173.20534648734053L37.06921152273814,173.08219109426108L37.39015707704756,172.83588106124947L37.55062985420227,172.71272604474365L37.71110263135699,172.58957065166422L38.0320481856664,172.34326061865258L38.19252096282111,172.22010560214676L38.35299373997582,172.09695020906733L38.51346651713053,171.9737951925615L38.67393929428525,171.85064017605572L39.15535762574938,171.48117474996465L39.79724873436822,170.98855430736776L39.95772151152293,170.86539929086194L40.11819428867764,170.74224427435615L40.27866706583235,170.6190888812767L40.43913984298707,170.49593424134451L40.59961262014177,170.37277884826509L40.76008539729648,170.24962345518563L40.920558174451195,170.12646881525345L41.081030951605904,170.00331342217402L41.40197650591533,169.7570033891624L41.883394837379456,169.38753796307134L42.043867614534165,169.26438256999188L42.20434039168887,169.1412279300597L42.36481316884359,169.01807253698027L42.68575872315301,168.77176250396863L42.846231500307724,168.6486071108892L43.006704277462426,168.52545247095702L43.167177054617135,168.4022970778776L43.48812260892656,168.15598704486595L43.648595386081276,168.03283165178652L43.969540940390694,167.78652161877488L44.29048649470011,167.54021158576327L44.61143204900954,167.2939007996044L44.771904826164246,167.1707461596722L44.932377603318955,167.04759076659278L45.09285038047367,166.92443537351332L45.41379593478309,166.6781253405017L45.5742687119378,166.55497070056953L45.895214266247216,166.30865991441064L46.05568704340193,166.18550527447846L46.21615982055664,166.062349881399L46.537105374866066,165.8160398483874L46.69757815202077,165.69288445530796L47.01852370633019,165.44657442229632L47.49994203779433,165.07710899620525L47.660414814949036,164.95395360312583L48.14183314641316,164.584488930182L48.30230592356788,164.46133353710258L48.78372425503201,164.09186886415878L48.94419703218672,163.96871271793208L49.26514258649614,163.72240343806772L49.42561536365085,163.599247291841L49.58608814080556,163.47609265190883L49.746560917960274,163.35293801197665L49.90703369511498,163.22978186574994L50.0675064722697,163.10662722581776L50.22797924942441,162.98347258588558L50.548924803733826,162.7371617997267L50.709397580888535,162.6140071597945L50.869870358043244,162.49085251986233L51.03034313519796,162.36769637363562L51.511761466662094,161.99823094754456L51.672234243816796,161.87507630761237L52.31412535243564,161.38245624158915L52.474598129590355,161.25930009536245L52.79554368389978,161.01299081549809L52.95601646105448,160.88983466927138L53.11648923820919,160.7666800293392L53.27696201536391,160.64352538940702L53.437434792518616,160.52037074947484L53.75838034682804,160.27405996331595L54.07932590113746,160.02774917715706L54.23979867829217,159.90459453722488L54.40027145544688,159.7814398972927L54.560744232601586,159.658283751066L54.7212170097563,159.5351291111338L54.88168978691101,159.41197447120163L55.202635341220436,159.16566368504274L55.363108118375145,159.04250904511056L55.52358089552985,158.9193528988839L55.68405367268456,158.7961982589517L55.84452644983927,158.67304361901952L56.325944781303406,158.30357819292846L56.96783588992225,157.8109581269052L57.28878144423167,157.56464734074632L57.44925422138638,157.44149270081414L57.60972699854109,157.31833655458743L57.7701997756958,157.19518191465525L57.93067255285051,157.07202727472307L58.25161810715993,156.82571648856418L58.412090884314644,156.702561848632L58.57256366146935,156.57940720869982L58.89350921577878,156.33309642254093L59.214454770088196,156.08678563638207L59.535400324397614,155.8404763565177L59.69587310155233,155.717320210291L59.85634587870704,155.59416557035883L60.177291433016464,155.34785478419994L60.33776421017117,155.22470014426776L60.498236987325875,155.10154550433558L60.65870976448059,154.97838935810887L60.8191825416353,154.8552347181767L61.140128095944725,154.60892543831233L61.300600873099434,154.48576929208565L61.46107365025415,154.36261465215347L61.62154642740886,154.2394600122213L61.78201920456356,154.11630386599455L61.94249198171827,153.99314922606237L62.102964758872986,153.8699945861302L62.58438309033712,153.50052916003912L62.74485586749183,153.37737301381244L62.90532864464654,153.25421837388026L63.06580142180125,153.13106373394808L63.54721975326538,152.761598307857L63.868165307574806,152.5152875216981L64.02863808472952,152.39213288176592L64.18911086188422,152.26897824183374L64.34958363903893,152.14582209560706L64.67052919334836,151.8995128157427L64.83100197050307,151.77635666951602L64.99147474765778,151.65320202958384L65.15194752481248,151.53004738965166L65.4728930791219,151.2837381097873L65.63336585627661,151.16058045726604L65.79383863343132,151.03742581733385L65.95431141058604,150.91427117740167L66.11478418774075,150.7911165374695L66.43572974205017,150.54480725760513L66.75667529635959,150.29849496515175L66.9171480735143,150.17534032521957L67.23809362782373,149.9290310453552L67.39856640497844,149.80587640542302L67.55903918213315,149.68272176549084L67.71951195928786,149.5595641129696L67.87998473644257,149.43640947303743L68.20093029075198,149.19010019317307L68.36140306790669,149.06694555324088L68.5218758450614,148.9437909133087L69.00329417652554,148.5743239809231L69.32423973083496,148.32801470105875L69.48471250798967,148.20486006112657L69.64518528514438,148.08170542119439L69.80565806229909,147.95854776867318L69.96613083945381,147.835393128741L70.12660361660852,147.71223848880882L70.28707639376323,147.58908384887664L70.44754917091794,147.46592920894446L70.60802194807265,147.34277456901228L70.92896750238206,147.09646227655884L71.08944027953677,146.97330763662666L71.4103858338462,146.7269983567623L71.57085861100092,146.6038437168301L71.73133138815561,146.48068606430894L71.89180416531033,146.35753142437676L72.05227694246504,146.23437678444458L72.21274971961975,146.1112221445124L72.69416805108388,145.74175822471585L72.8546408282386,145.6186005721946L73.0151136053933,145.4954459322624L73.17558638254802,145.37229129233023L73.49653193685742,145.12598201246587L73.65700471401215,145.0028273725337L73.81747749116685,144.8796697200125L73.97795026832156,144.7565150800803L74.298895822631,144.51020580021594L74.45936859978569,144.38705116028376L75.26173248555925,143.7712749480338L75.58267803986867,143.52496566816944L75.74315081702339,143.40181102823726L76.0640963713328,143.15549873578385L76.22456914848752,143.03234409585167L76.38504192564223,142.9091894559195L76.54551470279694,142.7860348159873L76.86646025710637,142.53972252353392L77.02693303426106,142.41656788360174L77.18740581141579,142.29341324366956L77.3478785885705,142.17025860373738L77.50835136572519,142.0471039638052L77.66882414287991,141.92394932387302L77.82929692003462,141.80079468394084L77.98976969718933,141.67763703141958L78.31071525149876,141.43132775155522L78.47118802865346,141.30817311162303L78.79213358296289,141.06186383175867L78.95260636011758,140.9387061792375L79.59449746873644,140.44608761950877L79.75497024589114,140.3229329795766L79.91544302304585,140.1997783396444L80.07591580020056,140.07662068712315L80.23638857735529,139.95346604719097L80.39686135450998,139.8303114072588L81.03875246312883,139.33768983494105L81.19922524028354,139.21453519500886L81.35969801743826,139.09138055507668L81.52017079459296,138.9682259151445L81.68064357174768,138.84507127521232L81.84111634890239,138.72191663528014L82.16206190321181,138.47560434282673L82.32253468036652,138.35244970289455L82.48300745752123,138.22929506296236L82.64348023467593,138.10614042303018L82.80395301183066,137.982985783098L82.96442578898535,137.85983114316582L83.28537134329478,137.6135188507124L83.44584412044948,137.49036421078023L83.6063168976042,137.36720957084805L83.76678967475891,137.24405493091587L83.92726245191362,137.12090029098368L84.24820800622305,136.8745879985303L84.72962633768718,136.50512407873376L85.0505718919966,136.2588147988694L85.2110446691513,136.13565714634814L85.37151744630602,136.01250250641596L85.53199022346072,135.88934786648377L85.69246300061545,135.7661932265516L86.33435410923427,135.27357165423388L86.49482688638899,135.1504170143017L86.81577244069842,134.90410773443733L87.13671799500784,134.65779845457297L87.29719077216255,134.5346408020517L87.45766354931725,134.41148616211953L87.61813632647197,134.28833152218735L87.77860910362666,134.16517688225517L87.93908188078139,134.042022242323L88.0995546579361,133.9188676023908L88.26002743509082,133.7957099498696L88.42050021224551,133.67255530993742L88.74144576655495,133.42624603007306L88.90191854370964,133.30309139014088L89.06239132086436,133.1799367502087L89.22286409801907,133.05677909768747L89.54380965232849,132.8104698178231L89.7042824294832,132.68731517789092L90.02522798379262,132.44100589802656L90.18570076094734,132.31785125809438L90.34617353810204,132.19469360557315L90.50664631525676,132.07153896564097L90.66711909241147,131.9483843257088L90.82759186956618,131.8252296857766L90.98806464672089,131.70207504584442L91.1485374238756,131.57892040591224L91.3090102010303,131.45576275339104L91.46948297818501,131.33260811345886L92.11137408680386,130.83998955373013L92.27184686395856,130.71683491379795L92.43231964111328,130.5936772612767L92.75326519542271,130.34736798141233L92.91373797257741,130.22421334148015L93.55562908119626,129.73159176916243L93.87657463550568,129.48528248929807L94.03704741266039,129.3621278493659L94.19752018981511,129.2389732094337L94.67893852127924,128.8695062770481L94.83941129843393,128.7463516371159L94.99988407558865,128.62319699718373L95.16035685274336,128.50004235725154L95.32082962989807,128.37688771731936L95.48130240705278,128.25373006479816L95.6417751842075,128.13057542486598L95.8022479613622,128.0074207849338L95.96272073851691,127.8842661450016L96.12319351567163,127.76111150506942L96.28366629282633,127.63795686513724L96.44413906998105,127.51479921261603L96.60461184713576,127.39164457268384L96.76508462429047,127.26848993275166L97.0860301785999,127.0221806528873L97.4069757329093,126.77587137302294L97.56744851006403,126.65271372050172L97.72792128721872,126.52955908056954L97.88839406437344,126.40640444063736L98.36981239583757,126.03694052084082L98.53028517299228,125.91378588090863L98.69075795014699,125.79063124097645L98.8512307273017,125.66747660104427L99.33264905876584,125.29800665606963L99.49312183592055,125.17485201613745L99.81406739022997,124.92854273627309L99.97454016738467,124.8053880963409L100.29548572169409,124.55907881647654L100.45595849884882,124.43592417654436L100.61643127600352,124.31276953661218L100.77690405315823,124.18961489668L101.09784960746765,123.94329959163755L101.25832238462236,123.82014495170537L101.41879516177707,123.69699031177319L101.90021349324121,123.32752639197665L102.06068627039592,123.20437175204447L102.22115904755061,123.08121711211228L102.38163182470534,122.9580624721801L102.54210460186005,122.83490783224792L102.70257737901476,122.71175319231574L102.86305015616946,122.58859855238356L103.02352293332419,122.46544391245138L103.34446848763359,122.21912860740895L103.50494126478831,122.09597396747677L103.66541404194301,121.97281932754458L103.82588681909773,121.8496646876124L104.46777792771658,121.35704612788368L104.62825070487128,121.2338914879515L104.78872348202599,121.11073684801931L104.94919625918071,120.98758220808713L105.1096690363354,120.86442756815495L105.43061459064484,120.61811226311252L105.75156014495425,120.37180298324816L106.07250569926369,120.1254937033838L106.23297847641838,120.00233906345161L106.3934512535731,119.87918442351943L106.71439680788252,119.63287514365507L106.87486958503723,119.50972050372289L107.03534236219195,119.38656586379071L107.35628791650136,119.14025055874826L107.51676069365608,119.01709591881608L107.67723347081078,118.8939412788839L107.8377062479655,118.77078663895172L108.15865180227492,118.52447735908736L108.31912457942963,118.40132271915517L108.47959735658434,118.278168079223L108.96101568804848,117.90870415942645L109.12148846520317,117.78554951949427L109.2819612423579,117.66238885438399L109.4424340195126,117.53923421445181L109.6029067966673,117.41607957451963L109.76337957382202,117.29292493458745L109.92385235097673,117.16977029465527L110.24479790528615,116.9234610147909L110.40527068244087,116.80030637485872L110.56574345959557,116.67715173492654L110.72621623675029,116.55399709499436L110.886689013905,116.43084245506218L111.0471617910597,116.30768781513L111.52858012252385,115.93821787015538L111.68905289967854,115.8150632302232L112.00999845398798,115.56875395035884L112.17047123114267,115.44559931042666L112.3309440082974,115.32244467049448L112.65188956260681,115.07613539063011L112.81236233976152,114.95298075069793L112.97283511691624,114.82982611076575L113.45425344838037,114.46035616579111L113.61472622553507,114.33720152585893L113.77519900268979,114.21404688592675L113.9356717798445,114.09089224599457L114.0961445569992,113.96773760606239L114.25661733415392,113.8445829661302L114.41709011130864,113.72142832619802L114.57756288846333,113.59827368626584L114.73803566561804,113.47511904633366L115.05898121992746,113.2288097664693L115.21945399708218,113.10565512653712L115.37992677423689,112.98250048660493L115.5403995513916,112.85933982149467L115.70087232854631,112.73618518156249L115.86134510570102,112.61303054163031L116.18229066001044,112.36672126176595L116.66370899147458,111.9972573419694L117.30560010009341,111.50463878224068L117.62654565440283,111.25832347719825L117.78701843155756,111.13516883726606L117.94749120871226,111.01201419733388L118.10796398586697,110.8888595574017L118.26843676302168,110.76570491746952L118.42890954017639,110.64255027753734L118.5893823173311,110.51939563760516L118.74985509448581,110.39624099767298L118.91032787164053,110.2730863577408L119.07080064879523,110.14993171780861L119.23127342594995,110.02677707787643L119.39174620310466,109.90362243794425L119.55221898025935,109.78046779801207L119.87316453456879,109.53415249296964L120.0336373117235,109.41099785303746L120.51505564318762,109.04153393324091L120.83600119749705,108.79522465337655L120.99647397465175,108.67207001344437L121.15694675180647,108.54891537351219L121.31741952896118,108.42576073358L121.47789230611589,108.30260609364782L121.79883786042532,108.05629078860538L122.44072896904414,107.56367222887665L122.60120174619887,107.44051758894447L122.76167452335358,107.31736294901229L123.082620077663,107.07105366914793L123.24309285481772,106.94789902921575L123.40356563197243,106.82474438928357L123.56403840912712,106.70158974935138L123.88498396343654,106.45527444430893L124.20592951774597,106.20896516444456L124.6873478492101,105.83950124464802L125.32923895782895,105.3468826849193L125.97113006644778,104.8542581000125L126.1316028436025,104.73110346008032L126.29207562075722,104.60794882014814L126.61302117506663,104.36163954028378L126.77349395222134,104.2384849003516L126.93396672937605,104.11533026041941L127.09443950653076,103.99217562048723L127.25491228368547,103.86902098055505L127.57585783799489,103.62271170069069L127.73633061514961,103.4995570607585L127.8968033923043,103.37639639564823L128.05727616945904,103.25324175571605L128.21774894661374,103.13008711578387L128.37822172376843,103.00693247585168L128.69916727807785,102.76062319598732L128.85964005523257,102.63746855605514L129.0201128323873,102.51431391612296L129.34105838669672,102.2680046362586L129.66200394100613,102.02169535639423L129.82247671816083,101.89854071646205L129.98294949531555,101.77538005135179L130.14342227247025,101.65222541141961L130.6248406039344,101.28276149162306L130.7853133810891,101.15960685169088L131.10625893539853,100.91329757182652L131.26673171255322,100.79014293189434L131.42720448970795,100.66698829196216L131.58767726686264,100.54383365202997L131.74815004401736,100.42067901209779L132.06909559832678,100.17436370705536L132.2295683754815,100.05120906712318L132.55051392979092,99.80489978725882L132.71098670694562,99.68174514732664L132.87145948410034,99.55859050739446L133.03193226125506,99.43543586746227L133.19240503840976,99.3122812275301L133.6738233698739,98.94281730773355L133.8342961470286,98.81966266780137L133.99476892418332,98.69650200269112L134.155241701338,98.57334736275894L134.47618725564746,98.32703808289457L134.95760558711157,97.95757416309803L135.1180783642663,97.83441952316585L135.278551141421,97.71126488323367L135.4390239185757,97.58811024330149L135.5994966957304,97.4649556033693L135.75996947288513,97.34180096343712L136.24138780434927,96.9723310184625L136.40186058150397,96.84917637853032L136.72280613581339,96.60286709866595L136.8832789129681,96.47971245873377L137.0437516901228,96.35655781880159L137.20422446727753,96.23340317886941L137.36469724443225,96.11024853893723L137.84611557589636,95.74078461914068L138.0065883530511,95.6176299792085L138.16706113020578,95.49446931409823L138.3275339073605,95.37131467416604L139.29037057028876,94.63238683457296L139.61131612459818,94.38607755470859L139.7717889017529,94.26292291477641L139.93226167890762,94.13976827484423L140.09273445606232,94.01661363491205L140.25320723321704,93.8934529698018L140.57415278752646,93.64714368993744L140.73462556468115,93.52398905000526L140.89509834183588,93.40083441007307L141.05557111899057,93.27767977014089L141.2160438961453,93.15452513020871L141.37651667330002,93.03137049027653L141.69746222760944,92.78506121041217L141.85793500476413,92.66190657047999L142.01840778191882,92.5387519305478L142.17888055907355,92.41559729061562L142.49982611338297,92.16928198557316L142.6602988905377,92.04612734564098L142.8207716676924,91.9229727057088L142.9812444448471,91.79981806577662L143.30218999915652,91.55350878591226L143.46266277631122,91.43035414598008L143.62313555346594,91.3071995060479L143.78360833062067,91.18404486611571L143.9440811077754,91.06089022618353L144.10455388493008,90.93773558625135L144.4254994392395,90.6914202812089L144.90691777070364,90.32195636141236L145.06739054785834,90.19880172148018L145.38833610216776,89.95249244161582L146.0302272107866,89.45987388188709L146.19069998794131,89.33671924195491L146.51164554225073,89.09040393691248L146.67211831940546,88.9672492969803L146.99306387371485,88.72094001711594L147.3140094280243,88.47463073725157L147.6349549823337,88.22832145738721L147.79542775948843,88.10516681745503L147.95590053664313,87.98201217752285L148.27684609095255,87.73570289765848L148.43731886810724,87.61254223254824L148.597791645262,87.48938759261605L148.7582644224167,87.36623295268387L148.91873719957138,87.24307831275169L149.0792099767261,87.11992367281951L149.23968275388083,86.99676903288733L149.40015553103555,86.87361439295515L149.56062830819025,86.75045975302297L149.72110108534494,86.62730511309078L149.88157386249964,86.5041504731586L150.20251941680908,86.25784119329424L150.6839377482732,85.8883712483196L150.84441052542795,85.76521660838742L151.00488330258264,85.64206196845524L151.32582885689203,85.39575268859087L151.48630163404678,85.2725980486587L151.64677441120148,85.14944340872651L151.8072471883562,85.02628876879433L151.9677199655109,84.90313412886215L152.77008385128445,84.28735490402316L152.93055662843918,84.16420026409098L153.4119749599033,83.79473634429444L153.57244773705798,83.67158170436225L153.73292051421274,83.54842706443007L153.89339329136743,83.42527242449789L154.05386606852213,83.30211778456571L154.53528439998627,82.93265386476916L154.695757177141,82.80949319965892L154.85622995429569,82.68633855972674L155.01670273145038,82.56318391979455L155.17717550860513,82.44002927986237L155.33764828575983,82.31687463993019L155.49812106291452,82.19371999999801L155.65859384006924,82.07056536006583L155.81906661722394,81.94741072013365L155.97953939437866,81.82425608020147L156.14001217153339,81.70110144026928L156.30048494868808,81.5779468003371L156.62143050299753,81.33163149529466L156.78190328015222,81.20847685536248L156.94237605730692,81.0853222154303L157.10284883446164,80.96216757549811L157.26332161161633,80.83901293556593L157.42379438877106,80.71585829563375L157.58426716592578,80.59270365570157L157.74473994308048,80.46954901576939L157.90521272023517,80.3463943758372L158.3866310516993,79.97693045604066L158.70757660600873,79.7306151509982L158.86804938316345,79.60746051106602L159.18899493747287,79.36115123120166L159.5099404917823,79.1148419513373L159.670413268937,78.99168731140512L159.8308860460917,78.86853267147293L159.99135882324643,78.74537803154075L160.15183160040112,78.62222339160857L160.47277715471057,78.37591411174421L160.63324993186527,78.25275947181203L161.2751410404841,77.76013488690523L161.43561381763882,77.63698024697305L161.59608659479352,77.51382560704087L161.75655937194827,77.39067096710869L161.91703214910297,77.26751632717651L162.23797770341235,77.02120704731215L162.39845048056708,76.89805240737996L162.71939603487652,76.6517431275156L162.87986881203122,76.52858246240535L163.36128714349536,76.15911854260881L163.52175992065006,76.03596390267663L163.68223269780478,75.91280926274445L163.84270547495947,75.78965462281226L164.0031782521142,75.66649998288008L164.16365102926892,75.5433453429479L164.32412380642361,75.42019070301572L164.4845965835783,75.29703606308354L164.64506936073303,75.17388142315136L164.80554213788776,75.05072678321918L164.96601491504245,74.927572143287L165.12648769219717,74.80441750335481L165.4474332465066,74.55810822349045L165.768378800816,74.31179894362609L165.9288515779707,74.18863225333773L166.24979713228015,73.94232297347337L166.41026990943485,73.81916833354119L166.57074268658957,73.696013693609L166.89168824089896,73.44970441374464L167.0521610180537,73.32654977381246L167.3731065723631,73.0802404939481L167.53357934951782,72.95708585401592L167.85452490382724,72.71077657415155L168.17547045813666,72.46446729428719L168.6568887896008,72.09500337449064L168.8173615667555,71.97184873455846L169.29877989821964,71.60238481476192L169.61972545252905,71.35607553489756L169.78019822968375,71.23292089496537L169.9406710068385,71.1097662550332L170.2616165611479,70.86344492481268L170.4220893383026,70.7402902848805L170.5825621154573,70.61713564494832L171.06398044692145,70.24767172515178L171.22445322407614,70.1245170852196L171.5453987783856,69.87820780535523L171.866344332695,69.63189852549087L172.0268171098497,69.50874388555869L172.50823544131384,69.13927996576214L172.8291809956233,68.89297068589778L172.98965377277798,68.7698160459656L173.15012654993268,68.64666140603342L173.4710721042421,68.40035212616905L173.63154488139685,68.27719748623687L173.79201765855154,68.15404284630469L173.95249043570624,68.03088820637251L174.11296321286093,67.90772151608417L174.27343599001568,67.78456687615198L174.43390876717038,67.6614122362198L174.5943815443251,67.53825759628762L174.7548543214798,67.41510295635544L174.9153270986345,67.29194831642326L175.07579987578924,67.16879367649108L175.39674543009863,66.92248439662671L175.55721820725333,66.79932975669453L175.87816376156277,66.55302047683017L176.1991093158722,66.30671119696581L176.3595820930269,66.18355655703363L176.84100042449103,65.81409263723708L177.00147320164575,65.6909379973049L177.32241875595517,65.44462871744054L177.4828915331099,65.32147407750836L177.6433643102646,65.19831943757617L177.80383708741928,65.07516479764399L177.96430986457403,64.95201015771181L178.28525541888342,64.70568882749129L178.44572819603815,64.5825341875591L178.76667375034756,64.33622490769474L178.9271465275023,64.21307026776256L179.24809208181168,63.96676098789819L179.4085648589664,63.84360634796601L179.56903763612112,63.72045170803383L179.72951041327582,63.597297068101646L179.88998319043054,63.474142428169465L180.05045596758524,63.35098778823728L180.21092874473996,63.2278331483051L180.37140152189468,63.10467850837292L181.01329263051352,62.612059948644195L181.1737654076682,62.48890530871201L181.33423818482294,62.36575066877983L181.49471096197763,62.24259602884765L181.65518373913235,62.11944138891547L181.81565651628708,61.99628674898329L181.97612929344177,61.873132109051106L182.13660207059647,61.749977469118924L182.2970748477512,61.62682282918674L182.93896595637003,61.13419221910188L183.09943873352472,61.011037579169695L183.25991151067947,60.887882939237514L183.42038428783417,60.76472829930533L183.58085706498886,60.64157365937315L183.9018026192983,60.39526437950879L184.062275396453,60.27210973957661L184.22274817360773,60.148955099644425L184.54369372791712,59.90264581978006L184.70416650507187,59.77949117984788L185.02511205938126,59.53318189998352L185.3460576136907,59.286872620119155L185.50653039084543,59.16371798018697L185.66700316800012,59.04056334025479L186.14842149946426,58.67109942045825L186.30889427661896,58.547944780526066L186.46936705377365,58.424778090237716L186.62983983092838,58.301623450305534L186.79031260808307,58.17846881037335L186.95078538523782,58.05531417044117L187.11125816239252,57.93215953050899L187.4322037167019,57.68585025064463L187.59267649385666,57.562695610712446L188.07409482532077,57.1932316909159L188.23456760247547,57.07007705098372L188.87645871109433,56.577458491254994L189.19740426540375,56.33114921139063L189.35787704255847,56.20799457145845L189.51834981971317,56.08483993152627L189.67882259686786,55.96168529159409L189.8392953740226,55.838530651661905L189.9997681511773,55.715376011729724L190.48118648264145,55.34591209193318L190.64165925979614,55.22274540164485L190.80213203695087,55.09959076171267L190.96260481410556,54.97643612178049L191.12307759126026,54.853281481848306L191.4440231455697,54.60697220198394L191.76496869987912,54.36066292211958L191.92544147703381,54.2375082821874L192.08591425418854,54.11435364225522L192.40685980849796,53.868044362390854L192.56733258565265,53.74488972245867L192.7278053628074,53.62173508252649L192.8882781399621,53.49858044259431L193.0487509171168,53.37542580266213L193.20922369427151,53.25227116272995L193.3696964714262,53.129116522797766L193.53016924858093,53.005961882865584L193.69064202573566,52.8828072429334L193.85111480289035,52.75965260300122L194.4930059115092,52.267034043272496L194.8139514658186,52.020712713051964L194.97442424297333,51.89755807311978L195.13489702012805,51.7744034331876L195.29536979728275,51.65124879325542L195.45584257443744,51.52809415332324L195.93726090590158,51.158630233526694L196.258206460211,50.91232095366233L196.73962479167514,50.542857033865786L196.90009756882984,50.419702393933605L197.22104312313928,50.17339311406924L197.38151590029398,50.05023847413706L197.7024614546034,49.8039291942727L198.34435256322223,49.31131063454397L198.50482534037695,49.18815599461179L198.66529811753168,49.06500135467961L198.8257708946864,48.94183466439129L198.9862436718411,48.818680024459105L199.62813478045993,48.32606146473038L199.94908033476935,48.07975218486602L200.10955311192407,47.956597544933835L200.4304986662335,47.71028826506947L200.59097144338818,47.58713362513729L201.07238977485233,47.21766970534075L201.23286255200705,47.094515065408565L201.39333532916174,46.971360425476384L201.7142808834712,46.72505114561202L202.03522643778058,46.47874186574766L202.1956992149353,46.355587225815476L202.35617199209003,46.232432585883295L202.67711754639944,45.98612330601893L202.83759032355414,45.86296866608675L203.15853587786359,45.61664733586622L203.31900865501828,45.49349269593404L203.47948143217297,45.370338056001856L203.80042698648242,45.12402877613749L203.96089976363712,45.00087413620531L204.12137254079184,44.87771949627313L204.28184531794653,44.75456485634095L204.44231809510123,44.63141021640877L204.60279087225598,44.508255576476586L205.0842092037201,44.13879165668004L205.24468198087482,44.01563701674786L205.56562753518423,43.7693277368835L205.72610031233893,43.646173096951316L205.88657308949362,43.523018457019134L206.04704586664838,43.39986381708695L206.36799142095776,43.15355453722259L206.5284641981125,43.03039989729041L206.68893697526718,42.90724525735823L206.8494097524219,42.784090617426045L207.33082808388602,42.41461464727333L207.49130086104077,42.29146000734115L207.65177363819546,42.16830536740897L208.45413752396902,41.55253216774806L208.7750830782784,41.3062228878837L209.09602863258786,41.059913608019336L209.25650140974255,40.936758968087155L209.41697418689728,40.81360432815497L209.89839251836142,40.44414040835843L210.0588652955161,40.32098576842625L210.2193380726708,40.197831128494066L210.37981084982556,40.074676488561884L210.54028362698025,39.9515218486297L210.70075640413498,39.82836720869752L210.86122918128967,39.70521256876534L211.02170195844437,39.58205792883316L211.3426475127538,39.335736598612655L211.5031202899085,39.212581958680474L211.82406584421793,38.96627267881611L211.98453862137265,38.84311803888393L212.14501139852737,38.71996339895175L212.30548417568207,38.59680875901957L212.7869025071462,38.22734483922302L212.9473752843009,38.10419019929084L213.26832083861032,37.85788091942648L213.42879361576504,37.734726279494296L213.58926639291977,37.611571639562115L213.74973917007446,37.48841699962993L213.91021194722916,37.36526235969775L214.0706847243839,37.24210771976557L214.2311575015386,37.11895307983339L214.3916302786933,36.99579843990121L214.55210305584802,36.872643799969026L214.71257583300272,36.749489160036845L215.03352138731216,36.50317988017248L215.19399416446686,36.3800252402403L215.51493971877628,36.13370391001977L215.675412495931,36.01054927008759L215.99635805024042,35.764239990223224L216.1568308273951,35.64108535029104L216.47777638170456,35.39477607042668L216.63824915885925,35.2716214304945L216.79872193601395,35.14846679056232L216.95919471316867,35.025312150630135L217.1196674903234,34.902157510697954L217.2801402674781,34.77900287076577L217.6010858217875,34.53269359090141L217.76155859894223,34.40953895096923L217.92203137609695,34.28638431103705L218.24297693040634,34.040075031172684L218.40344970756107,33.9169203912405L218.72439526187048,33.67061111137614L218.8848680390252,33.54745647144396L219.0453408161799,33.42430183151178L219.2058135933346,33.301147191579595L219.36628637048935,33.177992551647414L219.52675914764404,33.054825861359085L219.68723192479874,32.9316712214269L220.3291230334176,32.43905266169818L220.4895958105723,32.315898021765996L220.650068587727,32.192743381833814L220.97101414203644,31.94643410196945L221.13148691919113,31.82327946203727L221.29195969634586,31.70012482210509L221.6129052506553,31.453815542240726L221.9338508049647,31.207506262376363L222.25479635927414,30.961196982512L222.57574191358353,30.714887702647637L222.89668746789295,30.468578422783274L223.0571602450477,30.345423782851093L223.2176330222024,30.22226914291891L223.3781057993571,30.09911450298673L223.69905135366653,29.8527931727662L223.85952413082123,29.72963853283402L224.01999690797595,29.60648389290184L224.18046968513065,29.483329252969657L224.34094246228534,29.360174613037476L224.5014152394401,29.237019973105294L224.9828335709042,28.86755605330875L225.14330634805893,28.74440141337657L225.62472467952304,28.374937493580024L225.78519745667774,28.251782853647843L225.9456702338325,28.12862821371566L226.26661578814188,27.8823189338513L226.4270885652966,27.759164293919117L226.90850689676074,27.389700374122572L227.06897967391544,27.26654573419039L227.22945245107013,27.14339109425821L227.55039800537958,26.897081814393847L227.71087078253427,26.773915124105518L228.0318163368437,26.527605844241155L228.1922891139984,26.404451204308973L228.35276189115314,26.28129656437679L228.51323466830783,26.15814192444461L228.83418022261728,25.911832644580247L229.3155985540814,25.542368724783703L229.47607133123608,25.41921408485152L229.95748966270023,25.049750165054977L230.11796243985492,24.926595525122796L230.27843521700967,24.803440885190614L230.43890799416437,24.680286245258433L230.92032632562848,24.31082232546189L231.24127187993793,24.064513045597526L231.40174465709262,23.941358405665344L231.56221743424732,23.818203765733163L231.72269021140204,23.69504912580098L231.88316298855676,23.571882435512634L232.04363576571146,23.448727795580453L232.20410854286618,23.32557315564827L232.36458132002087,23.20241851571609L232.68552687433032,22.956109235851727L232.84599965148502,22.832954595919546L233.0064724286397,22.709799955987364L233.16694520579443,22.586645316055183L233.48789076010385,22.34033603619082L233.80883631441327,22.094026756326457L233.96930909156802,21.970872116394276L234.4507274230321,21.60140819659773L234.61120020018683,21.47825355666555L234.93214575449628,21.231944276801187L235.09261853165097,21.108789636869005L235.25309130880566,20.985634996936824L235.41356408596036,20.862480357004642L235.5740368631151,20.73932571707246L235.7345096402698,20.61617107714028L236.21592797173395,20.24669510698757L236.37640074888867,20.12354046705539L236.85781908035278,19.754076547258844L237.0182918575075,19.630921907326663L237.1787646346622,19.50776726739448L237.33923741181692,19.3846126274623L237.49971018897162,19.261457987530118L237.66018296612634,19.138303347597937L237.98112852043576,18.891994067733574L238.14160129759046,18.768839427801392L238.4625468518999,18.52253014793703L238.6230196290546,18.399375508004848L238.943965183364,18.153066228140485L239.26491073767346,17.906756948276122L239.42538351482816,17.78360230834394L239.58585629198285,17.66044766841176L239.74632906913757,17.537293028479578L240.067274623447,17.290971698259067L240.22774740060171,17.167817058326886L240.5486929549111,16.921507778462523L240.70916573206586,16.79835313853034L241.03011128637525,16.55204385866598L241.19058406352997,16.428889218733797L241.5115296178394,16.182579938869434L241.6720023949941,16.059425298937253L241.8324751721488,15.936270659005071L241.9929479493035,15.81311601907289L242.47436628076764,15.443652099276346L242.63483905792236,15.320497459344164L242.79531183507706,15.197342819411983L242.95578461223178,15.074188179479801L243.1162573893865,14.95103353954762L243.2767301665412,14.827878899615438L243.75814849800534,14.458414979818894L243.91862127516004,14.335260339886712L244.07909405231476,14.212093649598366L244.23956682946945,14.088939009666184L244.40003960662418,13.965784369734003L244.5605123837789,13.842629729801821L244.7209851609336,13.71947508986964L244.8814579380883,13.596320449937458L245.04193071524304,13.473165810005277L245.36287626955243,13.226856530140914L245.68382182386185,12.980547250276551L246.165240155326,12.611083330480007L246.48618570963544,12.364774050615644L246.96760404109955,11.9953101308191L247.4490223725637,11.625846211022555L247.60949514971838,11.502691571090374L247.9304407040278,11.25638229122601L248.09091348118253,11.13322765129383L248.41185903549194,10.886906321073319L248.57233181264664,10.763751681141137L248.7328045898014,10.640597041208956L249.05375014411078,10.394287761344593L249.2142229212655,10.271133121412412L249.53516847557492,10.024823841548049L249.69564125272964,9.901669201615867L249.85611402988434,9.778514561683686L250.01658680703903,9.655359921751504L250.17705958419378,9.532205281819323L250.49800513850317,9.28589600195496L250.8189506928126,9.039586722090597L250.97942346996732,8.916432082158416L251.13989624712204,8.793277442226234L251.30036902427673,8.670122802294053L251.46084180143143,8.546968162361871L251.62131457858615,8.42381352242969L251.78178735574087,8.300658882497508L252.4236784643597,7.808028272412617L252.58415124151443,7.684873632480436L252.74462401866913,7.561718992548254L252.90509679582382,7.438564352616073L253.06556957297855,7.315409712683891L253.5469879044427,6.945945792887347L253.70746068159738,6.8227911529551655L253.8679334587521,6.699636513022984L254.50982456737094,6.207017953294258L254.67029734452566,6.083863313362077L254.83077012168036,5.960708673429895L254.99124289883508,5.837554033497714L255.31218845314447,5.591244753633351L255.47266123029922,5.4680901137011695L255.7936067846086,5.221780833836807L255.95407956176334,5.098626193904625L256.27502511607275,4.852316914040262L256.4354978932275,4.729150223751934L256.75644344753687,4.482840943887571L256.9169162246916,4.35968630395539L257.23786177900104,4.113377024091027L257.3983345561557,3.9902223841588453L257.5588073333105,3.867067744226664L257.71928011046515,3.7439131042944824L257.8797528876199,3.620758464362301L258.0402256647746,3.4976038244301195L258.20069844192926,3.374449184497938L258.5216439962387,3.128139904633575L259.0030623277028,2.758675984837031L259.32400788201227,2.512366704972668L259.484480659167,2.3892120650404864L259.64495343632166,2.266057425108305L259.9658989906311,2.019748145243942L260.2868445449405,1.7734388653795792L260.4473173220952,1.6502842254473977L260.9287356535594,1.2808082552946871L261.08920843071405,1.1576536153625057L261.2496812078688,1.0344989754303242L261.4101539850235,0.9113443354981428L261.8915723164876,0.5418804157015984L262.05204509364233,0.41872577576941694L262.21251787079706,0.2955711358372355L262.3729906479518,0.17241649590505403L262.53346342510645,0.04926185597287258" fill="none"></path></g></g></g></g></g></g><g transform="translate(41, 176)" clip-path="url(#clip_1)"><clipPath id="clip_1"><rect width="288" height="23"></rect></clipPath><g><g><line x1="0" y1="0" x2="0" y2="5" style="visibility: inherit;" fill="rgb(0, 0, 0)" stroke="rgb(204, 204, 204)" stroke-width="1px"></line><line x1="32.09455543094211" y1="0" x2="32.09455543094211" y2="5" style="visibility: inherit;" fill="rgb(0, 0, 0)" stroke="rgb(204, 204, 204)" stroke-width="1px"></line><line x1="64.18911086188422" y1="0" x2="64.18911086188422" y2="5" style="visibility: inherit;" fill="rgb(0, 0, 0)" stroke="rgb(204, 204, 204)" stroke-width="1px"></line><line x1="96.28366629282633" y1="0" x2="96.28366629282633" y2="5" style="visibility: inherit;" fill="rgb(0, 0, 0)" stroke="rgb(204, 204, 204)" stroke-width="1px"></line><line x1="128.37822172376843" y1="0" x2="128.37822172376843" y2="5" style="visibility: inherit;" fill="rgb(0, 0, 0)" stroke="rgb(204, 204, 204)" stroke-width="1px"></line><line x1="160.47277715471057" y1="0" x2="160.47277715471057" y2="5" style="visibility: inherit;" fill="rgb(0, 0, 0)" stroke="rgb(204, 204, 204)" stroke-width="1px"></line><line x1="192.56733258565265" y1="0" x2="192.56733258565265" y2="5" style="visibility: inherit;" fill="rgb(0, 0, 0)" stroke="rgb(204, 204, 204)" stroke-width="1px"></line><line x1="224.6618880165948" y1="0" x2="224.6618880165948" y2="5" style="visibility: inherit;" fill="rgb(0, 0, 0)" stroke="rgb(204, 204, 204)" stroke-width="1px"></line><line x1="256.75644344753687" y1="0" x2="256.75644344753687" y2="5" style="visibility: inherit;" fill="rgb(0, 0, 0)" stroke="rgb(204, 204, 204)" stroke-width="1px"></line><line x1="288.850998878479" y1="0" x2="288.850998878479" y2="5" style="visibility: inherit;" fill="rgb(0, 0, 0)" stroke="rgb(204, 204, 204)" stroke-width="1px"></line></g><g transform="translate(0, 8)"><text style="text-anchor: middle; visibility: hidden; font-family: Roboto, sans-serif; font-size: 12px; font-weight: 200;" x="0" y="0" dx="0em" dy="0.95em" fill="rgb(33, 33, 33)" stroke="none" stroke-width="1px">-2k</text><text style="text-anchor: middle; visibility: inherit; font-family: Roboto, sans-serif; font-size: 12px; font-weight: 200;" x="32.09455543094211" y="0" dx="0em" dy="0.95em" fill="rgb(33, 33, 33)" stroke="none" stroke-width="1px">0</text><text style="text-anchor: middle; visibility: inherit; font-family: Roboto, sans-serif; font-size: 12px; font-weight: 200;" x="64.18911086188422" y="0" dx="0em" dy="0.95em" fill="rgb(33, 33, 33)" stroke="none" stroke-width="1px">2k</text><text style="text-anchor: middle; visibility: inherit; font-family: Roboto, sans-serif; font-size: 12px; font-weight: 200;" x="96.28366629282633" y="0" dx="0em" dy="0.95em" fill="rgb(33, 33, 33)" stroke="none" stroke-width="1px">4k</text><text style="text-anchor: middle; visibility: inherit; font-family: Roboto, sans-serif; font-size: 12px; font-weight: 200;" x="128.37822172376843" y="0" dx="0em" dy="0.95em" fill="rgb(33, 33, 33)" stroke="none" stroke-width="1px">6k</text><text style="text-anchor: middle; visibility: inherit; font-family: Roboto, sans-serif; font-size: 12px; font-weight: 200;" x="160.47277715471057" y="0" dx="0em" dy="0.95em" fill="rgb(33, 33, 33)" stroke="none" stroke-width="1px">8k</text><text style="text-anchor: middle; visibility: inherit; font-family: Roboto, sans-serif; font-size: 12px; font-weight: 200;" x="192.56733258565265" y="0" dx="0em" dy="0.95em" fill="rgb(33, 33, 33)" stroke="none" stroke-width="1px">10k</text><text style="text-anchor: middle; visibility: inherit; font-family: Roboto, sans-serif; font-size: 12px; font-weight: 200;" x="224.6618880165948" y="0" dx="0em" dy="0.95em" fill="rgb(33, 33, 33)" stroke="none" stroke-width="1px">12k</text><text style="text-anchor: middle; visibility: inherit; font-family: Roboto, sans-serif; font-size: 12px; font-weight: 200;" x="256.75644344753687" y="0" dx="0em" dy="0.95em" fill="rgb(33, 33, 33)" stroke="none" stroke-width="1px">14k</text><text style="text-anchor: middle; visibility: hidden; font-family: Roboto, sans-serif; font-size: 12px; font-weight: 200;" x="288.850998878479" y="0" dx="0em" dy="0.95em" fill="rgb(33, 33, 33)" stroke="none" stroke-width="1px">16k</text></g><line x1="0" y1="0" x2="288.850998878479" y2="0" fill="rgb(0, 0, 0)" stroke="rgb(204, 204, 204)" stroke-width="1px"></line></g></g></g></g></svg>