<svg viewBox="0 0 330 200" xmlns="http://www.w3.org/2000/svg"><g><g><g><g><g><line x1="72.29800224304199" y1="176.89999961853027" x2="67.29800224304199" y2="176.89999961853027" style="visibility: inherit;" fill="rgb(0, 0, 0)" stroke="rgb(204, 204, 204)" stroke-width="1px"></line><line x1="72.29800224304199" y1="159.20999965667724" x2="67.29800224304199" y2="159.20999965667724" style="visibility: inherit;" fill="rgb(0, 0, 0)" stroke="rgb(204, 204, 204)" stroke-width="1px"></line><line x1="72.29800224304199" y1="141.51999969482424" x2="67.29800224304199" y2="141.51999969482424" style="visibility: inherit;" fill="rgb(0, 0, 0)" stroke="rgb(204, 204, 204)" stroke-width="1px"></line><line x1="72.29800224304199" y1="123.82999973297119" x2="67.29800224304199" y2="123.82999973297119" style="visibility: inherit;" fill="rgb(0, 0, 0)" stroke="rgb(204, 204, 204)" stroke-width="1px"></line><line x1="72.29800224304199" y1="106.13999977111816" x2="67.29800224304199" y2="106.13999977111816" style="visibility: inherit;" fill="rgb(0, 0, 0)" stroke="rgb(204, 204, 204)" stroke-width="1px"></line><line x1="72.29800224304199" y1="88.44999980926514" x2="67.29800224304199" y2="88.44999980926514" style="visibility: inherit;" fill="rgb(0, 0, 0)" stroke="rgb(204, 204, 204)" stroke-width="1px"></line><line x1="72.29800224304199" y1="70.75999984741212" x2="67.29800224304199" y2="70.75999984741212" style="visibility: inherit;" fill="rgb(0, 0, 0)" stroke="rgb(204, 204, 204)" stroke-width="1px"></line><line x1="72.29800224304199" y1="53.06999988555907" x2="67.29800224304199" y2="53.06999988555907" style="visibility: inherit;" fill="rgb(0, 0, 0)" stroke="rgb(204, 204, 204)" stroke-width="1px"></line><line x1="72.29800224304199" y1="35.379999923706066" x2="67.29800224304199" y2="35.379999923706066" style="visibility: inherit;" fill="rgb(0, 0, 0)" stroke="rgb(204, 204, 204)" stroke-width="1px"></line><line x1="72.29800224304199" y1="17.689999961853022" x2="67.29800224304199" y2="17.689999961853022" style="visibility: inherit;" fill="rgb(0, 0, 0)" stroke="rgb(204, 204, 204)" stroke-width="1px"></line><line x1="72.29800224304199" y1="0" x2="67.29800224304199" y2="0" style="visibility: inherit;" fill="rgb(0, 0, 0)" stroke="rgb(204, 204, 204)" stroke-width="1px"></line></g><g transform="translate(62.29800224304199, 0)"><text style="text-anchor: end; visibility: hidden; font-family: Roboto, sans-serif; font-size: 12px; font-weight: 200;" x="0" y="176.89999961853027" dx="0em" dy="0.3em" fill="rgb(33, 33, 33)" stroke="none" stroke-width="1px">-2e-5</text><text style="text-anchor: end; visibility: inherit; font-family: Roboto, sans-serif; font-size: 12px; font-weight: 200;" x="0" y="159.20999965667724" dx="0em" dy="0.3em" fill="rgb(33, 33, 33)" stroke="none" stroke-width="1px">0</text><text style="text-anchor: end; visibility: hidden; font-family: Roboto, sans-serif; font-size: 12px; font-weight: 200;" x="0" y="141.51999969482424" dx="0em" dy="0.3em" fill="rgb(33, 33, 33)" stroke="none" stroke-width="1px">2e-5</text><text style="text-anchor: end; visibility: inherit; font-family: Roboto, sans-serif; font-size: 12px; font-weight: 200;" x="0" y="123.82999973297119" dx="0em" dy="0.3em" fill="rgb(33, 33, 33)" stroke="none" stroke-width="1px">4e-5</text><text style="text-anchor: end; visibility: hidden; font-family: Roboto, sans-serif; font-size: 12px; font-weight: 200;" x="0" y="106.13999977111816" dx="0em" dy="0.3em" fill="rgb(33, 33, 33)" stroke="none" stroke-width="1px">6e-5</text><text style="text-anchor: end; visibility: inherit; font-family: Roboto, sans-serif; font-size: 12px; font-weight: 200;" x="0" y="88.44999980926514" dx="0em" dy="0.3em" fill="rgb(33, 33, 33)" stroke="none" stroke-width="1px">8e-5</text><text style="text-anchor: end; visibility: hidden; font-family: Roboto, sans-serif; font-size: 12px; font-weight: 200;" x="0" y="70.75999984741212" dx="0em" dy="0.3em" fill="rgb(33, 33, 33)" stroke="none" stroke-width="1px">1e-4</text><text style="text-anchor: end; visibility: inherit; font-family: Roboto, sans-serif; font-size: 12px; font-weight: 200;" x="0" y="53.06999988555907" dx="0em" dy="0.3em" fill="rgb(33, 33, 33)" stroke="none" stroke-width="1px">1.2e-4</text><text style="text-anchor: end; visibility: hidden; font-family: Roboto, sans-serif; font-size: 12px; font-weight: 200;" x="0" y="35.379999923706066" dx="0em" dy="0.3em" fill="rgb(33, 33, 33)" stroke="none" stroke-width="1px">1.4e-4</text><text style="text-anchor: end; visibility: inherit; font-family: Roboto, sans-serif; font-size: 12px; font-weight: 200;" x="0" y="17.689999961853022" dx="0em" dy="0.3em" fill="rgb(33, 33, 33)" stroke="none" stroke-width="1px">1.6e-4</text><text style="text-anchor: end; visibility: hidden; font-family: Roboto, sans-serif; font-size: 12px; font-weight: 200;" x="0" y="0" dx="0em" dy="0.3em" fill="rgb(33, 33, 33)" stroke="none" stroke-width="1px">1.8e-4</text></g><line x1="72.29800224304199" y1="0" x2="72.29800224304199" y2="176.89999961853027" fill="rgb(0, 0, 0)" stroke="rgb(204, 204, 204)" stroke-width="1px"></line></g></g><g transform="translate(72, 0)" clip-path="url(#clip_0)"><clipPath id="clip_0"><rect width="257" height="176"></rect></clipPath><g><g><g><line x1="0" y1="0" x2="0" y2="176.89999961853027" fill="rgb(0, 0, 0)" stroke="rgb(66, 66, 66)" stroke-width="1px" opacity="0.25"></line><line x1="28.633555306328667" y1="0" x2="28.633555306328667" y2="176.89999961853027" fill="rgb(0, 0, 0)" stroke="rgb(66, 66, 66)" stroke-width="1px" opacity="0.25"></line><line x1="57.26711061265733" y1="0" x2="57.26711061265733" y2="176.89999961853027" fill="rgb(0, 0, 0)" stroke="rgb(66, 66, 66)" stroke-width="1px" opacity="0.25"></line><line x1="85.900665918986" y1="0" x2="85.900665918986" y2="176.89999961853027" fill="rgb(0, 0, 0)" stroke="rgb(66, 66, 66)" stroke-width="1px" opacity="0.25"></line><line x1="114.53422122531467" y1="0" x2="114.53422122531467" y2="176.89999961853027" fill="rgb(0, 0, 0)" stroke="rgb(66, 66, 66)" stroke-width="1px" opacity="0.25"></line><line x1="143.16777653164334" y1="0" x2="143.16777653164334" y2="176.89999961853027" fill="rgb(0, 0, 0)" stroke="rgb(66, 66, 66)" stroke-width="1px" opacity="0.25"></line><line x1="171.801331837972" y1="0" x2="171.801331837972" y2="176.89999961853027" fill="rgb(0, 0, 0)" stroke="rgb(66, 66, 66)" stroke-width="1px" opacity="0.25"></line><line x1="200.4348871443007" y1="0" x2="200.4348871443007" y2="176.89999961853027" fill="rgb(0, 0, 0)" stroke="rgb(66, 66, 66)" stroke-width="1px" opacity="0.25"></line><line x1="229.06844245062933" y1="0" x2="229.06844245062933" y2="176.89999961853027" fill="rgb(0, 0, 0)" stroke="rgb(66, 66, 66)" stroke-width="1px" opacity="0.25"></line><line x1="257.701997756958" y1="0" x2="257.701997756958" y2="176.89999961853027" fill="rgb(0, 0, 0)" stroke="rgb(66, 66, 66)" stroke-width="1px" opacity="0.25"></line></g><g><line x1="0" y1="176.89999961853027" x2="257.701997756958" y2="176.89999961853027" fill="rgb(0, 0, 0)" stroke="rgb(66, 66, 66)" stroke-width="1px" opacity="0.25"></line><line x1="0" y1="159.20999965667724" x2="257.701997756958" y2="159.20999965667724" fill="rgb(0, 0, 0)" stroke="rgb(66, 66, 66)" stroke-width="1px" opacity="0.25"></line><line x1="0" y1="141.51999969482424" x2="257.701997756958" y2="141.51999969482424" fill="rgb(0, 0, 0)" stroke="rgb(66, 66, 66)" stroke-width="1px" opacity="0.25"></line><line x1="0" y1="123.82999973297119" x2="257.701997756958" y2="123.82999973297119" fill="rgb(0, 0, 0)" stroke="rgb(66, 66, 66)" stroke-width="1px" opacity="0.25"></line><line x1="0" y1="106.13999977111816" x2="257.701997756958" y2="106.13999977111816" fill="rgb(0, 0, 0)" stroke="rgb(66, 66, 66)" stroke-width="1px" opacity="0.25"></line><line x1="0" y1="88.44999980926514" x2="257.701997756958" y2="88.44999980926514" fill="rgb(0, 0, 0)" stroke="rgb(66, 66, 66)" stroke-width="1px" opacity="0.25"></line><line x1="0" y1="70.75999984741212" x2="257.701997756958" y2="70.75999984741212" fill="rgb(0, 0, 0)" stroke="rgb(66, 66, 66)" stroke-width="1px" opacity="0.25"></line><line x1="0" y1="53.06999988555907" x2="257.701997756958" y2="53.06999988555907" fill="rgb(0, 0, 0)" stroke="rgb(66, 66, 66)" stroke-width="1px" opacity="0.25"></line><line x1="0" y1="35.379999923706066" x2="257.701997756958" y2="35.379999923706066" fill="rgb(0, 0, 0)" stroke="rgb(66, 66, 66)" stroke-width="1px" opacity="0.25"></line><line x1="0" y1="17.689999961853022" x2="257.701997756958" y2="17.689999961853022" fill="rgb(0, 0, 0)" stroke="rgb(66, 66, 66)" stroke-width="1px" opacity="0.25"></line><line x1="0" y1="0" x2="257.701997756958" y2="0" fill="rgb(0, 0, 0)" stroke="rgb(66, 66, 66)" stroke-width="1px" opacity="0.25"></line></g></g></g><g><g><line x1="0" y1="159.20999965667724" x2="257.701997756958" y2="159.20999965667724" fill="rgb(0, 0, 0)" stroke="rgb(153, 153, 153)" stroke-width="1.5px"></line></g></g><g><g><line x1="28.633555306328667" y1="0" x2="28.633555306328667" y2="176.89999961853027" fill="rgb(0, 0, 0)" stroke="rgb(153, 153, 153)" stroke-width="1.5px"></line></g></g><g><g><g><g><g><path style="fill: none;" stroke="rgb(255, 112, 67)" stroke-width="2px" d="M38.08262855741713,-0.8958393250078049L38.22579633394877,2.0422432470031184L38.36896411048041,4.58632641165287L38.51213188701205,6.89269192425556L38.79846744007534,9.781526725064065L38.94163521660699,12.212676645910973L39.22797076967028,15.032075693409766L39.51430632273356,18.039313343819263L39.80064187579685,21.092715360757985L39.94380965232849,23.5259946168585L40.08697742886014,25.578092577280085L40.23014520539178,27.363197755246365L40.51648075845507,29.524587884250852L40.65964853498671,31.349778300296276L40.94598408805,33.455691193182346L41.08915186458164,35.20269548164617L41.232319641113286,36.71978444415811L41.51865519417657,38.5631460888901L41.66182297070821,40.11644134665962L41.9481585237715,41.94044199712452L42.377661853366426,44.29352944850804L42.520829629898074,46.104449939693055L42.950332959493,48.339398822652214L43.093500736024644,50.04818497447076L43.523004065619574,52.138167487259565L43.66617184215122,53.73609265002862L43.952507395214504,55.36296181347919L44.095675171746144,56.66708703366734L44.23884294827779,57.763657302685516L44.38201072480943,58.73263898548309L44.52517850134108,59.62592731063696L44.66834627787272,60.46724562195402L44.81151405440437,61.272632463611004L45.09784960746765,62.33114146669079L45.24101738399929,63.24918605378259L45.38418516053094,64.06859291515441L45.52735293706258,64.82547578562395L45.95685626665752,66.07962588775598L46.10002404318915,67.08368552121243L46.67269514931573,68.66292718723808L46.81586292584737,69.84730684476897L47.10219847891066,71.01663735981496L47.2453662554423,71.94498190450236L47.38853403197394,72.72626102829437L47.53170180850559,73.41205185717303L47.67486958503723,74.0398469432767L47.96120513810052,74.8474816235878L48.247540691163806,75.75189164771305L48.39070846769545,76.50471870335564L48.53387624422709,77.14958544096915L48.677044020758736,77.730929639625L48.820211797290376,78.28050837545298L48.963379573822024,78.81203693323322L49.24971512688531,79.5060147838529L49.392882903416954,80.10232241709258L49.536050679948595,80.64259957946881L49.679218456480235,81.15047607191357L49.82238623301188,81.63563258854036L50.25188956260681,82.44663677606721L50.82456066873338,83.59310036081497L51.11089622179667,84.59968667553558L51.25406399832831,85.35792516707187L51.39723177485996,85.96451122658665L51.5403995513916,86.48008008455058L51.68356732792324,86.94154574564224L51.96990288098653,87.50106829065435L52.11307065751817,87.97860665454775L52.25623843404982,88.4085067727503L52.54257398711311,88.94149342809004L52.82890954017639,89.53911732668185L53.11524509323968,90.16175656887135L53.25841286977132,90.67459586574047L53.40158064630297,91.1165972211217L53.687916199366256,91.63920339454855L53.8310839758979,92.07782595076212L53.97425175242954,92.4610205611044L54.11741952896118,92.81137028133168L54.26058730549283,93.14765063950826L54.546922858556115,93.58998100286973L54.690090635087756,93.97810324298902L54.833258411619404,94.32824580774427L54.976426188151045,94.65304177888558L55.119593964682686,94.96703945635507L55.26276174121433,95.27012017855313L55.40592951774597,95.56367233908361L55.835432847340904,96.07407046835107L55.978600623872545,96.48997170572113L56.121768400404186,96.84693007608057L56.26493617693583,97.16503206520312L56.69443950653076,97.66911315609052L56.98077505959405,98.17731774389101L57.12394283612569,98.5796186126952L57.26711061265733,98.92280493223471L57.410278389188974,99.22747977786582L57.69661394225226,99.60424547924855L57.83978171878391,99.92702401234966L57.98294949531555,100.21727123585671L58.1261172718472,120.57975932243109L58.41245282491048,132.66983307160436L58.55562060144212,139.8921926861806L58.69878837797377,144.30646449497397L58.84195615450541,146.89538097424617L58.98512393103706,148.375682151093L59.27145948410035,149.30896858181578L59.55779503716363,149.80853765306733L59.70096281369527,150.09601866379518L59.98729836675856,150.23510015111387L60.1304661432902,150.31258036066438L60.27363391982185,150.38644063615172L60.41680169635349,150.40872329080563L60.55996947288513,150.41985748332334L60.84630502594842,150.45513998878818L60.98947280248006,150.494976870235L61.13264057901171,150.4858486834573L61.562143908606636,150.45556613273058L61.84847946166992,150.45422340329668L61.991647238201566,150.46610326801533L62.134815014733206,150.4673722307215L62.277982791264854,150.47852096350076L62.421150567796495,150.48345071436714L62.56431834432814,150.47978667021997L62.707486120859784,150.46810766243155L62.850653897391425,150.45746125650533L62.993821673923065,150.44676832870107L63.280157226986354,150.44374541216473L63.423325003518,150.46138514705706L63.70966055658129,150.45628225078377L63.85282833311293,150.46718154824592L63.99599610964457,150.4819821647613L64.13916388617622,150.48486392636195L64.28233166270786,150.48373622736463L64.4254994392395,150.48152053793405L64.85500276883442,150.47612673088733L64.99817054536608,150.46955938812422L65.14133832189772,150.48100067296994L65.28450609842936,150.4888365735778L65.57084165149264,150.5159931553655L65.7140094280243,150.53415631995495L65.85717720455592,150.55207222360136L66.00034498108758,150.57069280740689L66.28668053415088,150.58132295969642L66.4298483106825,150.58151806326572L67.14568719334072,150.59150473779016L67.43202274640402,150.61017741819552L67.57519052293566,150.63120848574312L67.86152607599894,150.65207336246544L68.0046938525306,150.67421702689165L68.14786162906222,150.68948088066296L68.29102940559387,150.70904778551014L68.57736495865717,150.7320891365724L68.7205327351888,150.74947733034512L68.86370051172045,150.75733182968048L69.0068682882521,150.7625156140668L69.15003606478372,150.76370196671357L69.29320384131537,150.7801542526408L69.43637161784702,150.80023149586995L69.57953939437867,150.81711257465997L69.86587494744195,150.81664664095766L70.0090427239736,150.81081349309554L70.29537827703687,150.81531432302353L70.43854605356852,150.82091276467884L71.0112171596951,150.8251673412546L71.15438493622673,150.82691563913806L71.29755271275839,150.83126575093533L71.44072048929002,150.83488009097425L71.58388826582167,150.84169293454906L71.72705604235331,150.84963813004074L72.29972714847989,150.85274486653586L72.44289492501153,150.85830229037506L72.58606270154317,150.8675172600117L72.72923047807481,150.87698449772594L72.87239825460647,150.8831986720884L73.0155660311381,150.8908454823262L73.30190158420139,150.9046798944933L73.44506936073303,150.92030616762523L73.58823713726468,150.93131335217407L73.73140491379631,150.9419955710192L73.87457269032797,150.9467976150984L74.0177404668596,150.94590372768067L74.30407601992289,150.94836315981286L74.44724379645453,150.9564584613046L74.59041157298618,150.96075960769923L74.73357934951781,150.97119042150405L74.87674712604947,150.97582263758486L75.16308267911276,150.98478656393385L75.59258600870768,150.99586781294425L75.87892156177097,151.00774483119497L76.0220893383026,151.01685641996235L76.16525711483426,151.02697726615096L76.3084248913659,151.03414382322842L76.45159266789754,151.0426848076577L77.0242637740241,151.05682693931084L77.16743155055576,151.0712348867143L77.45376710361906,151.08825041991014L77.74010265668234,151.09885585005335L77.88327043321398,151.11094613478218L78.02643820974562,151.1209833741347L78.16960598627726,151.1253183074914L78.3127737628089,151.13163613933102L78.45594153934056,151.12787950671725L78.59910931587218,151.13074632173235L78.74227709240384,151.13227591744032L78.88544486893548,151.13549375276395L79.17178042199876,151.14749775259028L79.3149481985304,151.15749126548192L79.45811597506206,151.16878192858167L79.6012837515937,151.1799923748345L79.88761930465698,151.191447831853L80.03078708118862,151.20187419226426L80.3171226342519,151.21392171277807L80.46029041078356,151.2277280359996L80.6034581873152,151.23925729519377L80.74662596384685,151.25009283455137L80.88979374037848,151.25731430007102L81.03296151691013,151.26621547903719L81.17612929344178,151.27608619434352L81.31929706997342,151.28266794915893L81.46246484650506,151.2913114391587L81.6056326230367,151.2999453975522L82.17830372916328,151.3210097604618L82.32147150569492,151.33845479448829L82.46463928222657,151.35230789768667L82.75097483528985,151.36759400252387L82.8941426118215,151.38239036627562L83.46681371794807,151.4140993858634L83.75314927101135,151.44212689320887L83.896317047543,151.46142721145236L84.03948482407465,151.47430642512893L84.46898815366957,151.48632005260913L84.61215593020121,151.4983568481445L84.75532370673285,151.51190639214207L84.8984914832645,151.52056962849528L85.04165925979615,151.52387035999786L85.18482703632779,151.52903223009494L85.32799481285943,151.53812892579944L85.47116258939107,151.54422792743793L85.61433036592271,151.55312171107076L85.75749814245437,151.56381303110945L85.900665918986,151.57313252419488L86.04383369551765,151.5816179806147L86.18700147204929,151.59154463087756L86.33016924858094,151.60057650864508L86.61650480164423,151.613831924767L86.90284035470751,151.6286763983183L87.04600813123915,151.6408951560099L87.18917590777079,151.6521566220765L87.33234368430244,151.6628340597913L87.76184701389737,152.61031057300409L87.90501479042901,153.10945257531992L88.04818256696065,153.52341314927386L88.19135034349229,153.7849090761995L88.62085367308723,153.89621132064974L88.76402144961887,153.91765429632574L89.05035700268216,153.9972487266936L89.19352477921379,154.03038486316703L89.47986033227708,154.05920605458465L89.62302810880874,154.04444264039248L89.76619588534037,154.04032504341683L89.90936366187202,154.01797174693147L90.1956992149353,154.01830891264683L90.33886699146694,154.04326263093677L90.48203476799858,154.06547425091014L90.91153809759352,154.10387956944726L91.05470587412516,154.11128091156272L91.1978736506568,154.1190844706207L91.34104142718846,154.12895674406178L91.48420920372008,154.1502759569159L91.62737698025174,154.17864449512138L91.77054475678338,154.19747273017114L91.91371253331504,154.20040839893431L92.2000480863783,154.2184975216167L92.34321586290996,154.2283213017068L92.48638363944158,154.25347260835824L92.62955141597324,154.28473392462223L93.20222252209982,154.3251112213841L93.34539029863146,154.32950666759646L93.4885580751631,154.3362633529597L93.63172585169474,154.3432532778246L93.77489362822638,154.35605386166912L94.06122918128968,154.35557678684808L94.34756473435296,154.35208079418817L94.63390028741625,154.3598518456374L94.77706806394788,154.36090636605934L94.92023584047953,154.36850817276306L95.20657139354283,154.36802456298858L95.34973917007446,154.35436189609996L95.49290694660611,154.3502800131415L95.7792424996694,154.3422330510823L95.92241027620103,154.33261647720263L96.06557805273268,154.32710492159234L96.20874582926433,154.32893567621883L96.49508138232761,154.3486992547081L96.63824915885925,154.36811647846088L96.7814169353909,154.38243548871336L97.21092026498583,154.39810008489468L97.35408804151747,154.41493693027414L97.49725581804911,154.4268009396472L97.64042359458075,154.43068272893845L97.7835913711124,154.42980849033037L97.92675914764405,154.4241518903093L98.06992692417568,154.42112009281416L98.35626247723897,154.4140823988494L98.49943025377063,154.41592001150065L98.64259803030225,154.4194491162256L98.78576580683391,154.42318368055473L98.92893358336555,154.42993898167612L99.07210135989719,154.43598606731533L99.50160468949213,154.4481034982074L99.64477246602377,154.45593497882103L99.93110801908705,154.4623248170155L100.07427579561869,154.469354148524L100.21744357215034,154.4760740635707L100.50377912521363,154.47958167335193L100.64694690174527,154.48179789661168L100.79011467827692,154.48162170379547L101.21961800787184,154.48439542949882L101.36278578440347,154.48980774933125L101.50595356093513,154.4925467300555L101.64912133746677,154.49476192017252L101.79228911399842,154.5031881968248L101.93545689053005,154.50787279048032L102.0786246670617,154.5119038943837L102.22179244359334,154.52001016541354L102.36496022012498,154.52844326408245L102.65129577318827,154.53742175068336L102.79446354971992,154.54316328246L102.93763132625156,154.55074531701916L103.0807991027832,154.55908123567204L103.22396687931484,154.56533627783392L103.36713465584648,154.57415072944744L103.65347020890977,154.58120403768433L104.08297353850472,154.5917789347056L104.65564464463128,154.60076342789932L104.94198019769456,154.6072264530822L105.08514797422622,154.6150523383905L105.22831575075786,154.62312381631241L105.3714835272895,154.62842395134402L105.51465130382114,154.62947047521297L105.65781908035278,154.63161831370263L105.80098685688444,154.63415938153935L105.94415463341606,154.63754326260224L106.08732240994772,154.64107903534315L106.23049018647936,154.6451731665253L106.373657963011,154.64909679761004L106.51682573954264,154.65445623333085L106.65999351607428,154.66345072786137L106.94632906913756,154.67103439708103L107.08949684566922,154.67580871784287L107.51900017526414,154.68396400431402L107.80533572832744,154.68821345685754L107.94850350485908,154.6928551760136L108.09167128139072,154.6971252186297L108.23483905792236,154.70451650680505L108.37800683445401,154.71221235126393L108.6643423875173,154.72176015922153L109.23701349364386,154.73821342377923L109.38018127017551,154.75078012263188L109.52334904670715,154.75934999635243L109.80968459977043,154.76879249992413L109.95285237630209,154.77790425756467L110.09602015283373,154.7840901669372L110.23918792936537,154.7909051122942L110.52552348242865,154.80262330403866L110.81185903549193,154.81592392639084L111.24136236508687,154.8262711468901L111.81403347121345,154.8417129340451L112.38670457734003,154.86303780901451L112.52987235387165,154.87948203218457L112.67304013040331,154.8912341923439L112.9593756834666,154.90281903593757L113.10254345999823,154.91011601565006L113.24571123652989,154.91901954560544L113.38887901306153,154.92463903727042L113.53204678959317,154.9297871144799L113.81838234265645,154.93326901412865L113.9615501191881,154.93823067705765L114.10471789571974,154.94290409488815L114.24788567225139,154.9463068158342L114.39105344878303,154.95239964884195L114.53422122531467,154.95695279090455L114.82055677837795,154.96395211222134L114.9637245549096,154.96939940395552L115.10689233144124,154.97665896761077L115.39322788450453,154.9865797166071L115.67956343756782,154.99417259649292L115.82273121409945,155.000389670562L115.9658989906311,155.0064449307922L116.10906676716274,155.01296718170013L116.53857009675768,155.02694272949378L116.68173787328932,155.03852300409295L116.9680734263526,155.8796996567561L117.11124120288424,156.25714220628262L117.2544089794159,156.36427687582156L117.39757675594754,156.48939293600517L117.54074453247918,156.62139529213724L117.82708008554246,156.70276517601238L117.97024786207412,156.73728619180514L118.2565834151374,156.76177825916562L118.39975119166904,156.74353915458988L118.5429189682007,156.72584669438362L118.68608674473232,156.73050648028484L118.82925452126398,156.72795478333353L119.2587578508589,156.7155806901801L119.40192562739054,156.71959596839827L119.5450934039222,156.70647373704125L119.68826118045382,156.7026722729824L119.97459673351712,156.70859491454877L120.40410006311204,156.72056994447027L120.5472678396437,156.72927014034792L120.69043561617534,156.71759121743642L120.83360339270698,156.71686065013796L120.97677116923862,156.7131753964911L121.11993894577026,156.71368794455125L121.5494422753652,156.73239408545777L121.69261005189684,156.73594108303578L121.97894560496012,156.739491626201L122.12211338149177,156.7470224532746L122.26528115802341,156.75348988583858L122.40844893455505,156.75178433847933L122.5516167110867,156.7481744682101L122.98112004068163,156.7488231489278L123.12428781721327,156.74797012866114L123.26745559374491,156.7497225964612L123.41062337027655,156.7446806244061L124.26963002946641,156.74556521964394L124.55596558252971,156.7392057986909L124.69913335906134,156.73169925796591L124.84230113559299,156.7274271754624L124.98546891212463,156.72256304361338L125.12863668865629,156.72404216027962L125.41497224171957,156.72019987789892L125.55814001825121,156.71867562753872L125.70130779478285,156.71240570568432L125.84447557131449,156.70694958495318L125.98764334784613,156.7066000812198L126.13081112437779,156.7068633139954L126.41714667744107,156.70821368702303L126.56031445397271,156.70621196263897L126.70348223050435,156.70850191081828L126.846650007036,156.70786596624302L127.13298556009929,156.70798549019568L127.27615333663093,156.70483152872833L127.41932111316258,156.70514446576504L127.56248888969421,156.70382879500406L127.8488244427575,156.70184880941568L127.99199221928914,156.7016615514518L128.1351599958208,156.7021065987356L128.27832777235244,156.70139437248005L128.42149554888408,156.7001235729337L128.56466332541572,156.70012523842L128.850998878479,156.6935923496627L129.28050220807395,156.691137596774L129.42366998460557,156.6890104069872L129.71000553766885,156.6913640041052L130.28267664379544,156.69601406582547L130.42584442032708,156.69360937949736L130.71217997339036,156.69461257247778L130.855347749922,156.69653748354878L131.14168330298529,156.70012178289375L131.4280188560486,156.69750037659705L131.71435440911185,156.69940315067083L131.85752218564352,156.70439787999757L132.00068996217516,156.70942602939493L132.28702551523844,156.71424472180257L132.43019329177008,156.7175567440284L132.57336106830175,156.719771374831L132.7165288448334,156.72083589212423L132.859696621365,156.72180281730942L133.00286439789664,156.7255775965643L133.1460321744283,156.73111713084313L133.28919995095995,156.73536870180516L133.4323677274916,156.73841775862232L133.57553550402324,156.7419823067375L133.71870328055488,156.74533768285556L134.00503883361816,156.7501258521162L134.43454216321308,156.75161043720723L134.57770993974475,156.7548329614143L134.7208777162764,156.75872321540453L135.00721326933964,156.76109332662705L135.1503810458713,156.76403049084047L135.29354882240295,156.7666316678076L135.4367165989346,156.76836484765232L135.57988437546624,156.7719474549935L136.29572325812444,156.78226216722732L136.4388910346561,156.78808263780004L136.86839436425103,156.78893230826006L137.01156214078267,156.79249008379813L137.15472991731434,156.79633782126893L137.29789769384595,156.80106938086934L137.4410654703776,156.80486327692392L137.87056879997255,156.8084322821475L138.0137365765042,156.81194293632797L138.15690435303583,156.81567552059352L138.30007212956744,156.81920218805203L138.4432399060991,156.8217358579609L138.58640768263075,156.8247220056096L138.7295754591624,156.82637275489836L138.87274323569403,156.8296706832926L139.01591101222567,156.8278708673372L139.15907878875734,156.82761585880672L139.30224656528898,156.82448518918702L139.4454143418206,156.8222434986704L139.7317498948839,156.8235369131141L139.87491767141555,156.82756124260982L140.0180854479472,156.8310239556872L140.16125322447883,156.83482656151293L140.30442100101047,156.83636859590501L140.44758877754214,156.83719945478256L140.59075655407375,156.84038265462638L140.7339243306054,156.84383011611354L140.87709210713703,156.84832633681208L141.30659543673198,156.85392901162783L141.59293098979526,156.8617113803971L141.7360987663269,156.86704583887152L142.0224343193902,156.8725935716218L142.30876987245347,156.8737837469888L142.45193764898514,156.87708519851077L142.59510542551678,156.8809811384803L142.7382732020484,156.88476365207094L142.88144097858003,156.8885795507349L143.16777653164334,156.8922649682104L143.31094430817498,156.89572641142885L143.88361541430154,156.90370478878745L144.02678319083319,156.90909225523603L144.16995096736483,156.91278447717264L144.3131187438965,156.91637750808553L144.45628652042814,156.91949303317122L144.74262207349142,156.9234068529722L144.88578985002306,156.92671919541024L145.17212540308634,156.9297037142459L145.31529317961798,156.93224151646245L145.74479650921293,156.9362549298819L145.88796428574457,156.94007969141552L146.0311320622762,156.9425378512923L146.17429983880783,157.4271422113687L146.3174676153395,157.61395992131588L146.46063539187114,157.72621996404607L146.60380316840278,157.71051897973896L146.74697094493442,157.66669886268497L146.89013872146606,157.65649603524906L147.03330649799773,157.6333203214303L147.17647427452937,157.65963870402234L147.31964205106098,157.68289895338825L147.6059776041243,157.7148872487636L147.89231315718757,157.7502046231656L148.0354809337192,157.769788162803L148.3218164867825,157.79003205144787L148.46498426331414,157.80731466484337L148.60815203984578,157.81618856282142L148.89448759290906,157.83080286894005L149.03765536944073,157.83051204009396L149.323990922504,157.82427880198512L149.46715869903562,157.82590967616085L149.75349425209893,157.83086909234578L150.0398298051622,157.8364305599072L150.46933313475716,157.8417956148979L150.61250091128878,157.83783885051224L151.04200424088373,157.84011269167095L151.328339793947,157.84692443708514L151.47150757047865,157.8521246795618L151.61467534701032,157.8554681398298L151.90101090007357,157.85931768916944L152.0441786766052,157.8558291180321L152.18734645313685,157.8457809091319L152.6168497827318,157.8418726295504L152.76001755926342,157.83506333705913L153.04635311232673,157.82638066266935L153.33268866539,157.8195336442277L153.47585644192165,157.81204759597287L153.90535977151657,157.80391129440792L154.19169532457988,157.80260323376191L154.33486310111152,157.80305688538817L154.47803087764316,157.80562022488922L154.76436643070645,157.81117314842243L154.90753420723811,157.81702025074256L155.05070198376973,157.8206176047575L155.19386976030137,157.82460054559343L155.337037536833,157.82705502794158L155.48020531336468,157.82908861876172L155.62337308989632,157.828159569589L155.76654086642796,157.8267178103308L155.9097086429596,157.8234945555046L156.05287641949124,157.8235803705805L156.19604419602288,157.824573707417L156.48237974908616,157.8268542639831L156.6255475256178,157.82868555778245L156.91188307868111,157.83334683230453L157.19821863174437,157.8343229701639L157.341386408276,157.83754567384912L157.77088973787096,157.84512153387737L157.9140575144026,157.84789577592906L158.2003930674659,157.851885055392L158.34356084399752,157.8560651815482L158.48672862052916,157.85762324430314L158.6298963970608,157.85769350140149L158.77306417359247,157.85217165041735L159.05939972665576,157.84537564172015L159.2025675031874,157.84047814303702L159.48890305625068,157.83477246316116L159.63207083278232,157.8305141185921L159.9184063858456,157.83076011955768L160.06157416237724,157.8310617317185L160.2047419389089,157.83184305860365L160.34790971544055,157.8334639450267L160.4910774919722,157.8351847342454L160.6342452685038,157.83671375334288L160.77741304503547,157.83789550643453L160.9205808215671,157.84016804332038L161.4932519276937,157.8459273914418L161.63641970422532,157.85089359288543L161.77958748075696,157.85328421643584L161.9227552572886,157.85722810651785L162.06592303382027,157.86063394835273L162.2090908103519,157.86275274979226L162.35225858688355,157.86391185037374L162.4954263634152,157.86568917269878L162.63859413994683,157.86843887366354L163.2112652460734,157.87168270807717L163.35443302260504,157.87459193305557L163.4976007991367,157.87571739947643L163.64076857566835,157.87616546297383L163.7839363522,157.87530815423028L164.07027190526327,157.87388856380244L164.2134396817949,157.869709974363L164.35660745832655,157.86804704871795L164.64294301138983,157.86635807133368L164.7861107879215,157.8664581214657L165.07244634098475,157.86883898420373L165.35878189404806,157.8723379500461L165.5019496705797,157.87363601883698L165.64511744711135,157.87352952479688L166.07462077670627,157.8749606146512L166.2177885532379,157.87628013685853L166.36095632976955,157.8775076196981L166.5041241063012,157.8799400468061L166.64729188283283,157.88046738910148L166.7904596593645,157.8822851358968L166.93362743589614,157.88141980873368L167.2199629889594,157.882042848239L167.36313076549106,157.8829431429764L167.792634095086,157.88462792874378L167.93580187161763,157.88463428590924L168.5084729777442,157.88964064092676L168.7948085308075,157.89315547956863L168.93797630733914,157.89676584483908L169.08114408387078,157.89934378051944L169.22431186040242,157.90184103753532L169.3674796369341,157.9032289008035L169.5106474134657,157.90468349733874L169.94015074306066,157.90512040529993L170.0833185195923,157.90647857033863L170.22648629612394,157.90816794462768L170.36965407265558,157.908749500147L170.5128218491872,157.90822918710523L170.7991574022505,157.90977245873512L171.08549295531378,157.91125296798458L171.22866073184542,157.91212168522395L171.3718285083771,157.91428294383152L171.65816406144035,157.91843030092613L171.801331837972,157.9222194272543L171.94449961450366,157.92524107997127L172.0876673910353,157.92722171857756L172.23083516756694,157.9283717697912L172.37400294409858,157.92853275525138L172.51717072063022,157.92700484411114L172.6603384971619,157.92772941280785L172.8035062736935,157.92782383227328L172.94667405022514,157.92759663445386L173.51934515635173,157.929952576303L173.80568070941501,157.93211673167676L173.94884848594666,157.93459816577615L174.0920162624783,157.9365504687643L174.23518403900994,157.93877426973427L174.37835181554158,157.94077330597227L174.80785514513653,157.9433801900443L175.09419069819978,157.94315068286616L175.52369402779473,157.94172340809348L175.66686180432637,158.082520251122L175.95319735738968,158.0573811668882L176.0963651339213,158.02405750010087L176.38270068698458,158.0796642831112L176.95537179311117,158.1137063417441L177.0985395696428,158.13286344499886L177.24170734617445,158.14219695945727L177.3848751227061,158.15287776097975L177.52804289923773,158.1731659876427L178.10071400536432,158.2147275431321L178.38704955842758,158.2486683418043L178.53021733495925,158.26994876557097L178.81655288802253,158.29291247390137L178.95972066455417,158.30732247218506L179.38922399414912,158.31173011587353L179.53239177068073,158.31470396267835L179.67555954721237,158.32015916838012L179.96189510027568,158.32975324244822L180.24823065333896,158.34261123371303L180.3913984298706,158.33889079927084L180.53456620640225,158.33893572995697L180.82090175946553,158.33229803728716L180.96406953599717,158.32740929138822L181.25040508906048,158.32756870420076L181.39357286559212,158.3285597428037L181.53674064212376,158.3328335493993L181.82307619518704,158.3364371802528L181.96624397171868,158.33508552963013L182.10941174825032,158.33375542892213L182.25257952478196,158.3310907674367L182.3957473013136,158.3245543085634L182.53891507784527,158.32159628268488L182.96841840744017,158.31865952237703L183.11158618397184,158.3169361199217L183.39792173703512,158.32026709407765L183.54108951356676,158.32321355972266L183.6842572900984,158.32610340282167L183.82742506663007,158.3284926522948L184.11376061969332,158.33025252633504L184.25692839622496,158.33077212523622L184.4000961727566,158.32976925555406L184.54326394928827,158.3308841856866L184.97276727888317,158.33320608342154L185.11593505541484,158.33542985490888L185.25910283194648,158.33945801324884L185.9749417146047,158.34239908661002L186.26127726766796,158.34647965615238L186.54761282073127,158.34960441803068L186.69078059726291,158.3519584044234L186.83394837379456,158.35512686615596L187.26345170338948,158.3557124695021L187.40661947992112,158.35465632895816L187.54978725645276,158.35411712705667L187.69295503298443,158.35282255666016L187.83612280951607,158.35342805730474L187.9792905860477,158.35402899164902L188.12245836257935,158.35279537753112L188.265626139111,158.35104594852186L188.55196169217427,158.35010163359L188.69512946870591,158.35031704859193L188.9814650217692,158.3525683913582L189.12463279830087,158.35397643349756L189.2678005748325,158.35514645691026L189.41096835136412,158.35707766759657L189.84047168095907,158.3584234684052L189.9836394574907,158.35793980975086L190.269975010554,158.35823637897468L190.41314278708566,158.3549792468395L190.55631056361727,158.35334481610784L190.69947834014891,158.3527986400671L190.84264611668056,158.35425085622464L190.98581389321222,158.3558227395139L191.12898166974387,158.35748046070094L191.2721494462755,158.35821807225736L191.41531722280715,158.36018076447152L191.5584849993388,158.36274365947398L191.84482055240207,158.36489054465918L191.9879883289337,158.36624077916068L192.274323881997,158.36660760864584L192.41749165852866,158.36691006170724L192.70382721159194,158.3687290277967L192.84699498812356,158.36857958653715L193.13333054118687,158.37114972874235L193.2764983177185,158.37380738241544L193.41966609425015,158.37613711948072L193.5628338707818,158.3769808377836L193.70600164731346,158.3778578388771L193.84916942384507,158.3783710074746L194.13550497690835,158.38111328913587L194.27867275344002,158.38296288738437L194.42184052997166,158.38464257767416L194.70817608303494,158.38411132181588L194.85134385956658,158.38490365185288L195.13767941262986,158.38620354880504L195.2808471891615,158.3868313658478L195.42401496569315,158.3881375354755L195.5671827422248,158.39034042441185L195.71035051875646,158.39126966756422L195.8535182952881,158.39071848291422L195.99668607181974,158.38975284138007L196.5693571779463,158.39092329188404L196.71252495447794,158.39227913601437L196.85569273100958,158.3939600386154L197.1420282840729,158.3952796803528L197.2851960606045,158.3963046748884L197.42836383713615,158.39741030448275L197.71469939019946,158.39946330593284L198.00103494326274,158.4021799369245L198.28737049632602,158.40499175027855L198.5737060493893,158.40719400682988L198.86004160245258,158.41020983004725L199.00320937898425,158.41276247309733L199.1463771555159,158.41415692064402L199.28954493204753,158.41561021872272L199.57588048511082,158.4161672360425L199.71904826164246,158.4168692199771L199.8622160381741,158.4178906492593L200.00538381470574,158.4191742958451L200.14855159123738,158.4197655946588L200.29171936776905,158.42083476404846L200.72122269736394,158.42320711613243L200.8643904738956,158.42503315363783L201.29389380349053,158.42633903875327L201.43706158002217,158.42691258876715L201.58022935655384,158.42744154071772L201.8665649096171,158.42754961461355L202.00973268614874,158.4252557770109L202.4392360157437,158.42625014266557L202.58240379227533,158.42719426350996L202.72557156880694,158.42824597908756L203.01190712187025,158.4300916445629L203.1550748984019,158.43177675822386L203.44141045146517,158.43335244840392L203.58457822799684,158.43425677532719L203.72774600452848,158.43451884033072L203.8709137810601,158.4357122486591L204.1572493341234,158.437400268027L204.58675266371833,158.43939695984997L204.72992044024997,158.44090263610505L205.1594237698449,158.4880213416846L205.30259154637653,158.5327585509675L205.4457593229082,158.55705487886584L205.58892709943984,158.57081748816123L206.01843042903477,158.57923879914148L206.30476598209805,158.57799380318679L206.4479337586297,158.5719157283072L206.59110153516133,158.56426068068822L206.73426931169297,158.56531610429525L206.87743708822464,158.5621551590639L207.02060486475628,158.5653109682008L207.1637726412879,158.57649818180946L207.30694041781953,158.5871612348518L207.59327597088284,158.59883668841027L207.73644374741448,158.6115048927889L207.87961152394612,158.62191629549903L208.02277930047777,158.63197310370268L208.30911485354105,158.639989589984L208.59545040660433,158.64159629023717L208.738618183136,158.64230023233065L209.16812151273092,158.64066471888816L209.31128928926256,158.6365775374114L209.59762484232584,158.63582723951245L209.74079261885748,158.6386698476916L209.88396039538912,158.63782191344953L210.02712817192076,158.6403154134052L210.17029594845243,158.6437250740949L210.31346372498408,158.64577424919054L210.742967054579,158.64774891448775L210.88613483111064,158.64961739396273L211.31563816070556,158.65597791220904L211.45880593723723,158.66044618808868L211.60197371376887,158.66222504555972L211.74514149030048,158.66337990410273L211.88830926683212,158.66385378813243L212.0314770433638,158.66367574191543L212.31781259642707,158.66362498421515L212.46098037295872,158.66354372869986L212.747315926022,158.65365005956332L212.89048370255364,158.649769444103L213.17681925561692,158.65034587644502L213.46315480868023,158.6501004061911L213.60632258521187,158.64815827974522L213.7494903617435,158.6488051639157L213.89265813827512,158.64739716300764L214.17899369133843,158.64838704704653L214.32216146787007,158.64929821156312L214.60849702093336,158.6494015186125L214.75166479746503,158.6494680278625L215.03800035052828,158.65017172373084L215.18116812705992,158.64476112968882L215.46750368012323,158.64426502029792L215.61067145665487,158.64350409313568L215.7538392331865,158.6429807073156L215.89700700971815,158.64371346386417L216.32651033931307,158.6434233024003L216.46967811584472,158.6429846024432L216.61284589237636,158.6438200775208L216.75601366890803,158.64510903788724L216.89918144543967,158.64506805122275L217.0423492219713,158.64602999410488L217.47185255156623,158.6459252493232L217.61502032809787,158.64731614065823L217.7581881046295,158.64806502185183L217.90135588116115,158.64717162619652L218.04452365769282,158.64654008070718L218.18769143422446,158.64632968528258L218.33085921075607,158.64738154210337L218.47402698728771,158.64899446494434L218.61719476381938,158.65053345721768L218.90353031688267,158.65207408546848L219.18986586994595,158.65218084151994L219.61936919954087,158.6550710016374L219.90570475260418,158.65669476765615L220.3352080821991,158.6568201937836L220.76471141179402,158.657475778292L220.90787918832567,158.65771252307053L221.19421474138895,158.65967388956346L221.33738251792062,158.6617602787717L221.62371807098387,158.66412552874803L221.7668858475155,158.66588532226567L221.91005362404718,158.66632364371029L222.19638917711046,158.6669404328347L222.3395569536421,158.66781256234484L222.6258925067054,158.66879131854364L222.76906028323702,158.66841146480277L222.91222805976867,158.6685017721004L223.0553958363003,158.6671923969027L223.19856361283198,158.6661435563782L223.48489916589526,158.66574788389187L223.77123471895854,158.6659087626356L223.91440249549018,158.66624461318025L224.05757027202182,158.66695566090954L224.20073804855346,158.66770380732623L224.3439058250851,158.66699628097598L224.48707360161674,158.66648564900078L224.6302413781484,158.6664212075703L225.20291248427498,158.66739067702332L225.34608026080662,158.66828217175495L225.48924803733826,158.6696611759454L225.6324158138699,158.67070708666452L225.77558359040154,158.6718736535199L226.20508691999646,158.67386541655347L226.3482546965281,158.67551794387526L226.49142247305977,158.67694418400103L227.06409357918633,158.6783875572746L227.20726135571797,158.67873006655117L227.35042913224962,158.6795677677378L227.49359690878126,158.67981638397424L227.77993246184454,158.68023868394437L227.9231002383762,158.68085082765086L228.2094357914395,158.68132955004253L228.3526035679711,158.68190167875872L228.6389391210344,158.68287103780384L228.78210689756605,158.68356947920074L229.06844245062933,158.68374057292377L229.211610227161,158.6838851409016L229.49794578022426,158.68453272276594L229.6411135567559,158.68544573179852L229.78428133328757,158.68588405183684L229.9274491098192,158.68674716211407L230.07061688635085,158.68778709496144L230.2137846628825,158.68861942682912L230.35695243941413,158.68933453869755L230.6432879924774,158.69065445160243L231.07279132207233,158.69251860794478L231.35912687513564,158.6937015983736L231.50229465166728,158.69448379295642L231.6454624281989,158.69527384314844L231.9317979812622,158.69628069943752L232.2181335343255,158.69637054967615L232.36130131085713,158.6970498779651L232.79080464045205,158.69722352133084L232.9339724169837,158.69774169643418L233.07714019351536,158.6974206472099L233.220307970047,158.69756727353428L233.64981129964193,158.6974942993829L233.7929790761736,158.6969640249266L233.9361468527052,158.69612361257094L234.07931462923685,158.69609437162697L234.2224824057685,158.69625378552303" fill="none"></path></g></g></g></g><g opacity="0.2"><g><g><g><path style="fill: none;" stroke="rgb(255, 112, 67)" stroke-width="2px" d="M37.653125227822194,-2.1438243208649514L37.79629300435384,0.13398645560235495L38.08262855741713,4.357068486466544L38.22579633394877,6.4493671042559955L38.36896411048041,8.402451158230841L38.51213188701205,10.352240192943803L38.79846744007534,14.114778926114726L38.94163521660699,15.859401527099434L39.22797076967028,19.261174264601017L39.51430632273356,22.550169819397023L39.80064187579685,25.672818386143845L39.94380965232849,27.175913500998647L40.08697742886014,28.656239517907068L40.23014520539178,30.040855522192953L40.51648075845507,32.76667307775559L40.65964853498671,34.087563924363394L40.94598408805,36.61456053251071L41.08915186458164,37.823201914341595L41.232319641113286,38.99541788792587L41.51865519417657,41.3281885559879L41.66182297070821,42.446384233313864L41.9481585237715,44.67644297282185L42.377661853366426,47.82316062558322L42.520829629898074,48.82083067647057L42.950332959493,51.691822147090996L43.093500736024644,52.61136420219852L43.523004065619574,55.273141256442784L43.66617184215122,56.13298039418215L43.952507395214504,57.80326555865509L44.095675171746144,58.62327486394953L44.23884294827779,59.4085127062128L44.38201072480943,60.18611150967947L44.52517850134108,60.96585979836776L44.66834627787272,61.72922308892958L44.81151405440437,62.48071272609651L45.09784960746765,63.918904971310496L45.24101738399929,64.62625293442028L45.38418516053094,65.29770320721211L45.52735293706258,65.96080009132831L45.95685626665752,67.960851040954L46.10002404318915,68.58977497139713L46.67269514931573,71.03178968627653L46.81586292584737,71.62387633106532L47.10219847891066,72.77063313238395L47.2453662554423,73.33749872153344L47.38853403197394,73.8981797139824L47.53170180850559,74.440738100491L47.67486958503723,74.98153957243223L47.96120513810052,76.05893364405439L48.247540691163806,77.10850668390093L48.39070846769545,77.6339592868195L48.53387624422709,78.1168855473894L48.677044020758736,78.60294593760878L48.820211797290376,79.10487647919497L48.963379573822024,79.60932976990354L49.24971512688531,80.54698155978244L49.392882903416954,80.9967838669521L49.536050679948595,81.45301532303314L49.679218456480235,81.91229081058071L49.82238623301188,82.36336736348056L50.25188956260681,83.66314305735743L50.82456066873338,85.31279573793661L51.11089622179667,86.10956614761648L51.25406399832831,86.4952829043763L51.39723177485996,86.87439031585885L51.5403995513916,87.25343337149646L51.68356732792324,87.63374423727974L51.96990288098653,88.3403521081725L52.11307065751817,88.69491420038783L52.25623843404982,89.05335695005415L52.54257398711311,89.7409734110996L52.82890954017639,90.43555317456959L53.11524509323968,91.09571543215567L53.25841286977132,91.44385481104412L53.40158064630297,91.77959925419353L53.687916199366256,92.4231126546888L53.8310839758979,92.73575978508254L53.97425175242954,93.03581247661786L54.11741952896118,93.33689486167252L54.26058730549283,93.65207117677313L54.546922858556115,94.25347654791194L54.690090635087756,94.56028660316792L54.833258411619404,94.85345965487717L54.976426188151045,95.14023573559753L55.119593964682686,95.43803597255929L55.26276174121433,95.72474126185018L55.40592951774597,96.00400057987936L55.835432847340904,96.83966766225225L55.978600623872545,97.1138235617762L56.121768400404186,97.38236763161976L56.26493617693583,97.64218504888692L56.69443950653076,98.42523479242159L56.98077505959405,98.93962462559178L57.12394283612569,99.18306991590146L57.26711061265733,99.43758441154402L57.410278389188974,99.68449204631247L57.69661394225226,100.1693940313226L57.83978171878391,100.41119181200133L57.98294949531555,100.65264207111728L58.1261172718472,151.12349145229268L58.41245282491048,150.8049436953643L58.55562060144212,150.72573210804495L58.69878837797377,150.92787220816405L58.84195615450541,150.77875569315447L58.98512393103706,150.5961339163633L59.27145948410035,150.7088982278999L59.55779503716363,150.55789125994468L59.70096281369527,150.52724017988697L59.98729836675856,150.44372238209186L60.1304661432902,150.42880067499013L60.27363391982185,150.49723104938275L60.41680169635349,150.4421472727865L60.55996947288513,150.43655877209991L60.84630502594842,150.5080637469854L60.98947280248006,150.55473219240528L61.13264057901171,150.47215640329074L61.562143908606636,150.4101423066405L61.84847946166992,150.4522093091458L61.991647238201566,150.48392306509336L62.134815014733206,150.46927567478076L62.277982791264854,150.49524406266966L62.421150567796495,150.49084534066674L62.56431834432814,150.47429060399918L62.707486120859784,150.45058915074895L62.850653897391425,150.44149164761598L62.993821673923065,150.4307289369947L63.280157226986354,150.43921103736025L63.423325003518,150.48784474939552L63.70966055658129,150.44862790637384L63.85282833311293,150.48353049443912L63.99599610964457,150.50418308953442L64.13916388617622,150.48918656876293L64.28233166270786,150.48204467886865L64.4254994392395,150.47819700378815L64.85500276883442,150.46803602031724L64.99817054536608,150.4597083739796L65.14133832189772,150.49816260023854L65.28450609842936,150.5005904244896L65.57084165149264,150.55672802804705L65.7140094280243,150.56140106683912L65.85717720455592,150.57894607907096L66.00034498108758,150.59862368311514L66.28668053415088,150.5972681881307L66.4298483106825,150.5818107186197L67.14568719334072,150.60648474957685L67.43202274640402,150.6381864388035L67.57519052293566,150.66275508706454L67.86152607599894,150.683370677549L68.0046938525306,150.70743252353097L68.14786162906222,150.71237666131992L68.29102940559387,150.73839814278088L68.57736495865717,150.76665116316582L68.7205327351888,150.77555962100422L68.86370051172045,150.76911357868354L69.0068682882521,150.7702912906463L69.15003606478372,150.7654814956837L69.29320384131537,150.80483268153174L69.43637161784702,150.83034736071366L69.57953939437867,150.84243419284496L69.86587494744195,150.81594774040417L70.0090427239736,150.8020637713024L70.29537827703687,150.82206556791553L70.43854605356852,150.82931042716177L71.0112171596951,150.83154920611827L71.15438493622673,150.8295380859633L71.29755271275839,150.83779091863119L71.44072048929002,150.84030160103265L71.58388826582167,150.85191219991125L71.72705604235331,150.8615559232783L72.29972714847989,150.85740497127847L72.44289492501153,150.86663842613393L72.58606270154317,150.88133971446666L72.72923047807481,150.89118535429728L72.87239825460647,150.89251993363212L73.0155660311381,150.9023156976829L73.30190158420139,150.92543151274398L73.44506936073303,150.94374557732309L73.58823713726468,150.94782412899735L73.73140491379631,150.95801889928686L73.87457269032797,150.95400068121725L74.0177404668596,150.94456289655406L74.30407601992289,150.95205230801113L74.44724379645453,150.96860141354225L74.59041157298618,150.96721132729115L74.73357934951781,150.9868366422113L74.87674712604947,150.98277096170602L75.16308267911276,150.99823245345735L75.59258600870768,151.0124896864599L75.87892156177097,151.025560358571L76.0220893383026,151.03052380311343L76.16525711483426,151.0421585354339L76.3084248913659,151.04489365884464L76.45159266789754,151.0554962843016L77.0242637740241,151.0780401367906L77.16743155055576,151.09284680781948L77.45376710361906,151.11377371970391L77.74010265668234,151.11476399526822L77.88327043321398,151.12908156187538L78.02643820974562,151.1360392331635L78.16960598627726,151.13182070752646L78.3127737628089,151.14111288709043L78.45594153934056,151.1222445577966L78.59910931587218,151.135046544255L78.74227709240384,151.1345703110023L78.88544486893548,151.14032050574937L79.17178042199876,151.16550375232976L79.3149481985304,151.1724815348194L79.45811597506206,151.18571792323127L79.6012837515937,151.19680804421378L79.88761930465698,151.20863101738075L80.03078708118862,151.21751373288117L80.3171226342519,151.2319929935488L80.46029041078356,151.24843752083189L80.6034581873152,151.25655118398504L80.74662596384685,151.26634614358775L80.88979374037848,151.26814649835046L81.03296151691013,151.27956724748645L81.17612929344178,151.29089226730306L81.31929706997342,151.29254058138207L81.46246484650506,151.30427667415833L81.6056326230367,151.31289633514248L82.17830372916328,151.35260630482617L82.32147150569492,151.36462234552803L82.46463928222657,151.37308755248426L82.75097483528985,151.3905231597797L82.8941426118215,151.40458491190316L83.46681371794807,151.46166291524509L83.75314927101135,151.48416815422712L83.896317047543,151.49037768881757L84.03948482407465,151.4936252456438L84.46898815366957,151.50434049382943L84.61215593020121,151.51641204144755L84.75532370673285,151.5322307081384L84.8984914832645,151.53356448302517L85.04165925979615,151.5288214572517L85.18482703632779,151.53677503524054L85.32799481285943,151.55177396935622L85.47116258939107,151.55337642989568L85.61433036592271,151.56646238651996L85.75749814245437,151.5798500111675L85.900665918986,151.58711176382303L86.04383369551765,151.59434616524445L86.18700147204929,151.60643460627188L86.33016924858094,151.61412432529636L86.61650480164423,151.63371504894985L86.90284035470751,151.6509431086453L87.04600813123915,151.6592232925473L87.18917590777079,151.66904882117635L87.33234368430244,151.67885021636354L87.76184701389737,154.03152534282324L87.90501479042901,153.85816557879372L88.04818256696065,154.14435401020478L88.19135034349229,154.17715296658798L88.62085367308723,154.06316468732507L88.76402144961887,153.94981875983967L89.05035700268216,154.11664037224543L89.19352477921379,154.0800890678771L89.47986033227708,154.10243784171112L89.62302810880874,154.02229751910423L89.76619588534037,154.03414864795337L89.90936366187202,153.9844418022034L90.1956992149353,154.01881466121986L90.33886699146694,154.08069320837168L90.48203476799858,154.09879168087016L90.91153809759352,154.16148754725296L91.05470587412516,154.1223829247359L91.1978736506568,154.13078980920767L91.34104142718846,154.14376515422342L91.48420920372008,154.18225477619708L91.62737698025174,154.22119730242963L91.77054475678338,154.22571508274572L91.91371253331504,154.20481190207911L92.2000480863783,154.24563120564028L92.34321586290996,154.24305697184195L92.48638363944158,154.29119956833537L92.62955141597324,154.33162589901826L93.20222252209982,154.38567716652696L93.34539029863146,154.33609983691497L93.4885580751631,154.3463983810045L93.63172585169474,154.35373816512202L93.77489362822638,154.3752547374359L94.06122918128968,154.35486117461656L94.34756473435296,154.34683680519828L94.63390028741625,154.37150842281125L94.77706806394788,154.36248814669221L94.92023584047953,154.37991088281865L95.20657139354283,154.3672991483269L95.34973917007446,154.333867895767L95.49290694660611,154.3441571887038L95.7792424996694,154.33016260799351L95.92241027620103,154.31819161638313L96.06557805273268,154.3188375881769L96.20874582926433,154.33168180815858L96.49508138232761,154.37834462244197L96.63824915885925,154.39724231409005L96.7814169353909,154.40391400409212L97.21092026498583,154.4215969791666L97.35408804151747,154.4401921983434L97.49725581804911,154.44459695370676L97.64042359458075,154.4365054128753L97.7835913711124,154.42849713241827L97.92675914764405,154.41566699027769L98.06992692417568,154.41657239657147L98.35626247723897,154.40352585790222L98.49943025377063,154.41867643047757L98.64259803030225,154.424742773313L98.78576580683391,154.4287855270485L98.92893358336555,154.44007193335813L99.07210135989719,154.4450566957742L99.50160468949213,154.46627964454544L99.64477246602377,154.46768219974152L99.93110801908705,154.47190957430723L100.07427579561869,154.47989814578676L100.21744357215034,154.48615393614077L100.50377912521363,154.48484308802378L100.64694690174527,154.4851222315013L100.79011467827692,154.4813574145712L101.21961800787184,154.48855601805386L101.36278578440347,154.49792622907984L101.50595356093513,154.49665520114192L101.64912133746677,154.49808470534805L101.79228911399842,154.51582761180316L101.93545689053005,154.51489968096365L102.0786246670617,154.51795055023874L102.22179244359334,154.53216957195832L102.36496022012498,154.54109291208587L102.65129577318827,154.55088948058471L102.79446354971992,154.551775580125L102.93763132625156,154.5621183688579L103.0807991027832,154.57158511365134L103.22396687931484,154.5747188410768L103.36713465584648,154.58737240686776L103.65347020890977,154.59178400003967L104.08297353850472,154.6076412802375L104.65564464463128,154.61424016768993L104.94198019769456,154.6169209908565L105.08514797422622,154.626791166353L105.22831575075786,154.6352310331953L105.3714835272895,154.63637415389138L105.51465130382114,154.6310402610164L105.65781908035278,154.63484007143717L105.80098685688444,154.63797098329442L105.94415463341606,154.64261908419655L106.08732240994772,154.64638269445453L106.23049018647936,154.65131436329852L106.373657963011,154.65498224423715L106.51682573954264,154.66249538691204L106.65999351607428,154.6769424696572L106.94632906913756,154.68240990091047L107.08949684566922,154.68297019898566L107.51900017526414,154.69619693402078L107.80533572832744,154.69458763567278L107.94850350485908,154.69981775474776L108.09167128139072,154.70353028255383L108.23483905792236,154.71560343906808L108.37800683445401,154.72375611795223L108.6643423875173,154.73608187115795L109.23701349364386,154.7628933206158L109.38018127017551,154.76963017091086L109.52334904670715,154.77220480693325L109.80968459977043,154.78295625528165L109.95285237630209,154.7915718940255L110.09602015283373,154.79336903099596L110.23918792936537,154.80112753032978L110.52552348242865,154.82020059165538L110.81185903549193,154.83587485991907L111.24136236508687,154.841791977639L111.81403347121345,154.86487561477762L112.38670457734003,154.89502512146865L112.52987235387165,154.9041483669396L112.67304013040331,154.90886243258285L112.9593756834666,154.92019630132813L113.10254345999823,154.9210614852188L113.24571123652989,154.9323748405385L113.38887901306153,154.93306827476792L113.53204678959317,154.9375092302941L113.81838234265645,154.93849186360183L113.9615501191881,154.94567317145115L114.10471789571974,154.94991422163392L114.24788567225139,154.95141089725323L114.39105344878303,154.9615388983536L114.53422122531467,154.9637825039985L114.82055677837795,154.9744510941965L114.9637245549096,154.97757034155686L115.10689233144124,154.98754831309367L115.39322788450453,155.00146084010163L115.67956343756782,155.00556191632162L115.82273121409945,155.00971528166565L115.9658989906311,155.0155278211375L116.10906676716274,155.02275055806203L116.53857009675768,155.04790605118427L116.68173787328932,155.0558934159917L116.9680734263526,157.1414646357508L117.11124120288424,156.8233060305724L117.2544089794159,156.52497888013002L117.39757675594754,156.67706702628055L117.54074453247918,156.81939882633534L117.82708008554246,156.82482000182506L117.97024786207412,156.78906771549433L118.2565834151374,156.79851636020635L118.39975119166904,156.7161804977263L118.5429189682007,156.69930800407425L118.68608674473232,156.73749615913667L118.82925452126398,156.7241272379066L119.2587578508589,156.6970195504499L119.40192562739054,156.72561888572554L119.5450934039222,156.68679039000577L119.68826118045382,156.6969700768941L119.97459673351712,156.71747887689833L120.40410006311204,156.73853248935254L120.5472678396437,156.74232043416438L120.69043561617534,156.70007283306919L120.83360339270698,156.71576479919025L120.97677116923862,156.7076475160208L121.11993894577026,156.71445676664146L121.5494422753652,156.76045329681756L121.69261005189684,156.74126157940282L121.97894560496012,156.7448174409488L122.12211338149177,156.75831869388506L122.26528115802341,156.7631910346845L122.40844893455505,156.74922601744046L122.5516167110867,156.74275966280624L122.98112004068163,156.7497961700044L123.12428781721327,156.74669059826113L123.26745559374491,156.75235129816127L123.41062337027655,156.7371176663235L124.26963002946641,156.74689211250063L124.55596558252971,156.7296666672614L124.69913335906134,156.72043944687843L124.84230113559299,156.72101905170712L124.98546891212463,156.7152668458399L125.12863668865629,156.726260835279L125.41497224171957,156.7144364543279L125.55814001825121,156.71638925199838L125.70130779478285,156.7030008229028L125.84447557131449,156.69876540385644L125.98764334784613,156.7060758256197L126.13081112437779,156.70725816315883L126.41714667744107,156.7102392465645L126.56031445397271,156.70320937606286L126.70348223050435,156.71193683308732L126.846650007036,156.70691204938015L127.13298556009929,156.70816477612468L127.27615333663093,156.70010058652733L127.41932111316258,156.7056138713201L127.56248888969421,156.7018552888625L127.8488244427575,156.69887883103317L127.99199221928914,156.70138066450596L128.1351599958208,156.70277416966132L128.27832777235244,156.7003260330967L128.42149554888408,156.69821737361423L128.56466332541572,156.70012773664942L128.850998878479,156.6837930165268L129.28050220807395,156.687455467441L129.42366998460557,156.68581962230695L129.71000553766885,156.69489439978219L130.28267664379544,156.70298915840587L130.42584442032708,156.69000235000524L130.71217997339036,156.6961173619484L130.855347749922,156.69942485015525L131.14168330298529,156.7054982319112L131.4280188560486,156.693568267152L131.71435440911185,156.7022573117815L131.85752218564352,156.7118899739877L132.00068996217516,156.716968253491L132.28702551523844,156.72147276041406L132.43019329177008,156.7225247773671L132.57336106830175,156.72309332103492L132.7165288448334,156.72243266806402L132.859696621365,156.72325320508725L133.00286439789664,156.73123976544662L133.1460321744283,156.7394264322614L133.28919995095995,156.74174605824814L133.4323677274916,156.74299134384808L133.57553550402324,156.7473291289103L133.71870328055488,156.7503707470327L134.00503883361816,156.7573081060072L134.43454216321308,156.7538373148438L134.57770993974475,156.75966674772494L134.7208777162764,156.76455859638986L135.00721326933964,156.76464849346078L135.1503810458713,156.76843623716064L135.29354882240295,156.77053343325824L135.4367165989346,156.77096461741945L135.57988437546624,156.77732136600525L136.29572325812444,156.79773423557808L136.4388910346561,156.79681334365912L136.86839436425103,156.79020681395008L137.01156214078267,156.7978267471052L137.15472991731434,156.8021094274752L137.29789769384595,156.8081667202699L137.4410654703776,156.81055412100585L137.87056879997255,156.81378578998286L138.0137365765042,156.8172089175986L138.15690435303583,156.82127439699187L138.30007212956744,156.8244921892398L138.4432399060991,156.82553636282427L138.58640768263075,156.82920122708262L138.7295754591624,156.82884887883148L138.87274323569403,156.83461757588398L139.01591101222567,156.8251711434041L139.15907878875734,156.827233346011L139.30224656528898,156.81978918475744L139.4454143418206,156.81888096289546L139.7317498948839,156.82547703477968L139.87491767141555,156.8335977368534L140.0180854479472,156.83621802530328L140.16125322447883,156.84053047025157L140.30442100101047,156.8386816474931L140.44758877754214,156.83844574309893L140.59075655407375,156.84515745439208L140.7339243306054,156.84900130834424L140.87709210713703,156.8550706678599L141.30659543673198,156.86233302385148L141.59293098979526,156.87338493355102L141.7360987663269,156.87504752658313L142.0224343193902,156.88091517074724L142.30876987245347,156.8755690100393L142.45193764898514,156.88203737579371L142.59510542551678,156.8868250484346L142.7382732020484,156.89043742245693L142.88144097858003,156.8943033987308L143.16777653164334,156.8977930944237L143.31094430817498,156.90091857625652L143.88361541430154,156.91567235482532L144.02678319083319,156.91717345490898L144.16995096736483,156.91832281007754L144.3131187438965,156.9217670544549L144.45628652042814,156.92416632079977L144.74262207349142,156.9292775826736L144.88578985002306,156.93168770906732L145.17212540308634,156.93418049249937L145.31529317961798,156.9360482197873L145.74479650921293,156.94227505001106L145.88796428574457,156.94581683371598L146.0311320622762,156.94622509110744L146.17429983880783,158.15404875148332L146.3174676153395,157.8941864862367L146.46063539187114,157.89461002814133L146.60380316840278,157.68696750327828L146.74697094493442,157.600968687104L146.89013872146606,157.64119179409522L147.03330649799773,157.59855675070216L147.17647427452937,157.69911627791035L147.31964205106098,157.71778932743712L147.6059776041243,157.7628696918266L147.89231315718757,157.80318068476862L148.0354809337192,157.79916347225907L148.3218164867825,157.8203978844152L148.46498426331414,157.8332385849366L148.60815203984578,157.8294994097885L148.89448759290906,157.852724328118L149.03765536944073,157.8300757968249L149.323990922504,157.81492894482182L149.46715869903562,157.8283559874244L149.75349425209893,157.8383082166232L150.0398298051622,157.84477276124932L150.46933313475716,157.849843197384L150.61250091128878,157.83190370393373L151.04200424088373,157.84352345340906L151.328339793947,157.85714205520637L151.47150757047865,157.8599250432768L151.61467534701032,157.86048333023183L151.90101090007357,157.86509201317892L152.0441786766052,157.85059626132602L152.18734645313685,157.83070859578166L152.6168497827318,157.83601021017816L152.76001755926342,157.82484939832221L153.04635311232673,157.8133566510847L153.33268866539,157.80926311656526L153.47585644192165,157.8008185235906L153.90535977151657,157.79170684206053L154.19169532457988,157.80064114279293L154.33486310111152,157.8037373628275L154.47803087764316,157.80946523414084L154.76436643070645,157.81950253372221L154.90753420723811,157.82579090422274L155.05070198376973,157.8260136357799L155.19386976030137,157.83057495684736L155.337037536833,157.83073675146383L155.48020531336468,157.8321390049919L155.62337308989632,157.82676599582987L155.76654086642796,157.82455517144354L155.9097086429596,157.81865967326527L156.05287641949124,157.82370909319434L156.19604419602288,157.82606371267175L156.48237974908616,157.83027509883226L156.6255475256178,157.83143249848143L156.91188307868111,157.84033874408766L157.19821863174437,157.83578717695298L157.341386408276,157.84237972937694L157.77088973787096,157.85648532391977L157.9140575144026,157.85205713900658L158.2003930674659,157.85786897458638L158.34356084399752,157.86233537078252L158.48672862052916,157.85996033843554L158.6298963970608,157.857798887049L158.77306417359247,157.8438888739412L159.05939972665576,157.83518162867432L159.2025675031874,157.83313189501237L159.48890305625068,157.82621394334734L159.63207083278232,157.8241266017385L159.9184063858456,157.83112912100606L160.06157416237724,157.83151414995973L160.2047419389089,157.83301504893137L160.34790971544055,157.8358952746613L160.4910774919722,157.83776591807344L160.6342452685038,157.83900728198907L160.77741304503547,157.839668136072L160.9205808215671,157.84357684864918L161.4932519276937,157.85456641362393L161.63641970422532,157.8583428950509L161.77958748075696,157.85687015176143L161.9227552572886,157.86314394164083L162.06592303382027,157.86574271110507L162.2090908103519,157.86593095195158L162.35225858688355,157.86565050124597L162.4954263634152,157.86835515618637L162.63859413994683,157.8725634251106L163.2112652460734,157.87654845969766L163.35443302260504,157.87895577052313L163.4976007991367,157.8774055991077L163.64076857566835,157.87683755821993L163.7839363522,157.87402219111502L164.07027190526327,157.87175917816063L164.2134396817949,157.8634420902038L164.35660745832655,157.86555266025042L164.64294301138983,157.86382460525726L164.7861107879215,157.86660819666375L165.07244634098475,157.8724102783108L165.35878189404806,157.87758639880963L165.5019496705797,157.87558312202327L165.64511744711135,157.87336978373673L166.07462077670627,157.87710724943273L166.2177885532379,157.87825942016948L166.36095632976955,157.87934884395744L166.5041241063012,157.88358868746812L166.64729188283283,157.88125840254457L166.7904596593645,157.88501175608977L166.93362743589614,157.880121817989L167.2199629889594,157.882977407497L167.36313076549106,157.88429358508242L167.792634095086,157.8871551073949L167.93580187161763,157.88464382165742L168.5084729777442,157.89715017345304L168.7948085308075,157.89842773753148L168.93797630733914,157.9021813927447L169.08114408387078,157.90321068404L169.22431186040242,157.9055869230591L169.3674796369341,157.90531069570582L169.5106474134657,157.9068653921416L169.94015074306066,157.90577576724166L170.0833185195923,157.90851581789678L170.22648629612394,157.91070200606123L170.36965407265558,157.909621833426L170.5128218491872,157.90744871754256L170.7991574022505,157.91208736617997L171.08549295531378,157.91347373185877L171.22866073184542,157.913424761083L171.3718285083771,157.91752483174292L171.65816406144035,157.92465133656802L171.801331837972,157.9279031167466L171.94449961450366,157.9297735590467L172.0876673910353,157.930192676487L172.23083516756694,157.9300968466116L172.37400294409858,157.92877423344171L172.51717072063022,157.9247129774008L172.6603384971619,157.92881626585293L172.8035062736935,157.9279654614714L172.94667405022514,157.92725583772472L173.51934515635173,157.93348648907678L173.80568070941501,157.93536296473738L173.94884848594666,157.93832031692523L174.0920162624783,157.9394789232465L174.23518403900994,157.94210997118924L174.37835181554158,157.9437718603293L174.80785514513653,157.9472905161524L175.09419069819978,157.9428064220989L175.52369402779473,157.9395824959345L175.66686180432637,158.29371551566476L175.95319735738968,158.0196725405375L176.0963651339213,157.97407199991994L176.38270068698458,158.16307445762675L176.95537179311117,158.16476942969334L177.0985395696428,158.16159909988107L177.24170734617445,158.15619723114486L177.3848751227061,158.16889896326353L177.52804289923773,158.20359832763714L178.10071400536432,158.2770698763662L178.38704955842758,158.29957953981258L178.53021733495925,158.301869401221L178.81655288802253,158.32735803639693L178.95972066455417,158.32893746961062L179.38922399414912,158.3183415814062L179.53239177068073,158.31916473288564L179.67555954721237,158.32834197693276L179.96189510027568,158.34414435355035L180.24823065333896,158.3618982206103L180.3913984298706,158.33331014760756L180.53456620640225,158.3390031259862L180.82090175946553,158.3223414982824L180.96406953599717,158.32007617253987L181.25040508906048,158.3278078234196L181.39357286559212,158.33004630070806L181.53674064212376,158.33924425929277L181.82307619518704,158.34184262653298L181.96624397171868,158.33305805369613L182.10941174825032,158.33176027786013L182.25257952478196,158.32709377520857L182.3957473013136,158.31474962025345L182.53891507784527,158.3171592438671L182.96841840744017,158.31425438191528L183.11158618397184,158.31435101623873L183.39792173703512,158.32526355531155L183.54108951356676,158.32763325819013L183.6842572900984,158.33043816747028L183.82742506663007,158.3320765265045L184.11376061969332,158.33289233739535L184.25692839622496,158.33155152358805L184.4000961727566,158.3282649510308L184.54326394928827,158.3325565808855L184.97276727888317,158.33668893002388L185.11593505541484,158.3387655121399L185.25910283194648,158.34550025075882L185.9749417146047,158.34681069665177L186.26127726766796,158.3526005104659L186.54761282073127,158.3542915608482L186.69078059726291,158.3554893840125L186.83394837379456,158.35987955875476L187.26345170338948,158.35659087452134L187.40661947992112,158.35307211814222L187.54978725645276,158.35330832420442L187.69295503298443,158.35088070106536L187.83612280951607,158.35433630827163L187.9792905860477,158.3549303931654L188.12245836257935,158.35094495635434L188.265626139111,158.34842180500792L188.55196169217427,158.3486851611922L188.69512946870591,158.35064017109485L188.9814650217692,158.3559454055076L189.12463279830087,158.35608849670663L189.2678005748325,158.3569014920293L189.41096835136412,158.35997448362608L189.84047168095907,158.3604421696181L189.9836394574907,158.3572143217694L190.269975010554,158.35868123281043L190.41314278708566,158.35009354863672L190.55631056361727,158.35089317001035L190.69947834014891,158.35197937600603L190.84264611668056,158.3564291804609L190.98581389321222,158.35818056444785L191.12898166974387,158.3599670424815L191.2721494462755,158.35932448959198L191.41531722280715,158.3631248027928L191.5584849993388,158.36658800197765L191.84482055240207,158.36811087243697L191.9879883289337,158.36826613091293L192.274323881997,158.36715785287356L192.41749165852866,158.3673637412994L192.70382721159194,158.37145747693083L192.84699498812356,158.36835542464783L193.13333054118687,158.37500494205017L193.2764983177185,158.37779386292507L193.41966609425015,158.37963172507867L193.5628338707818,158.37824641523792L193.70600164731346,158.37917334051735L193.84916942384507,158.37914076037083L194.13550497690835,158.38522671162778L194.27867275344002,158.3857372847571L194.42184052997166,158.3871621131089L194.70817608303494,158.38331443802844L194.85134385956658,158.38609214690845L195.13767941262986,158.38815339423329L195.2808471891615,158.38777309141196L195.42401496569315,158.390096789917L195.5671827422248,158.3936447578164L195.71035051875646,158.39266353229277L195.8535182952881,158.38989170593922L195.99668607181974,158.3883043790789L196.5693571779463,158.39267896763997L196.71252495447794,158.39431290220986L196.85569273100958,158.39648139251696L197.1420282840729,158.3972591429589L197.2851960606045,158.3978421666918L197.42836383713615,158.3990687488743L197.71469939019946,158.402542808108L198.00103494326274,158.406254883412L198.28737049632602,158.40920947030966L198.5737060493893,158.4104973916569L198.86004160245258,158.4147335648733L199.00320937898425,158.41659143767245L199.1463771555159,158.41624859196403L199.28954493204753,158.4177901658408L199.57588048511082,158.41700276202215L199.71904826164246,158.417922195879L199.8622160381741,158.4194227931826L200.00538381470574,158.42109976572382L200.14855159123738,158.42065254287937L200.29171936776905,158.42243851813296L200.72122269736394,158.42676564425838L200.8643904738956,158.42777220989595L201.29389380349053,158.42829786642645L201.43706158002217,158.427772913788L201.58022935655384,158.42823496864358L201.8665649096171,158.42771172545727L202.00973268614874,158.42181502060694L202.4392360157437,158.4277416911476L202.58240379227533,158.42861044477652L202.72557156880694,158.429823552454L203.01190712187025,158.43286014277598L203.1550748984019,158.43430442871525L203.44141045146517,158.43571598367402L203.58457822799684,158.4356132657121L203.72774600452848,158.43491193783606L203.8709137810601,158.43750236115164L204.1572493341234,158.43993229707888L204.58675266371833,158.4423919975844L204.72992044024997,158.44316115048767L205.1594237698449,158.558699400054L205.30259154637653,158.5998643648918L205.4457593229082,158.59349937071337L205.58892709943984,158.59146140210433L206.01843042903477,158.59187076561187L206.30476598209805,158.57612630925476L206.4479337586297,158.56279861598784L206.59110153516133,158.55277810925975L206.73426931169297,158.5668992397058L206.87743708822464,158.55741374121692L207.02060486475628,158.57004468190615L207.1637726412879,158.59327900222237L207.30694041781953,158.6031558144154L207.59327597088284,158.61634986874802L207.73644374741448,158.63050719935686L207.87961152394612,158.63753339956423L208.02277930047777,158.64705831600813L208.30911485354105,158.652014319406L208.59545040660433,158.64400634061695L208.738618183136,158.64335614547088L209.16812151273092,158.63821144872446L209.31128928926256,158.63044676519618L209.59762484232584,158.63470179266403L209.74079261885748,158.64293375996033L209.88396039538912,158.63655001208645L210.02712817192076,158.64405566333878L210.17029594845243,158.64883956512938L210.31346372498408,158.64884801183402L210.742967054579,158.65071091243357L210.88613483111064,158.65242011317525L211.31563816070556,158.6655186895785L211.45880593723723,158.6671486019081L211.60197371376887,158.66489333176634L211.74514149030048,158.6651121919172L211.88830926683212,158.664564614177L212.0314770433638,158.66340867258992L212.31781259642707,158.66354884766474L212.46098037295872,158.66342184542694L212.747315926022,158.63880955585856L212.89048370255364,158.64394852091252L213.17681925561692,158.65121052495806L213.46315480868023,158.64973220081015L213.60632258521187,158.6452450900764L213.7494903617435,158.6497754901715L213.89265813827512,158.6452851616455L214.17899369133843,158.6498718731049L214.32216146787007,158.650664958338L214.60849702093336,158.6495564791866L214.75166479746503,158.64956779173747L215.03800035052828,158.65122726753336L215.18116812705992,158.6366452386258L215.46750368012323,158.64352085621155L215.61067145665487,158.64236270239232L215.7538392331865,158.64219562858545L215.89700700971815,158.64481259868708L216.32651033931307,158.64298806020452L216.46967811584472,158.64232655250754L216.61284589237636,158.64507329013716L216.75601366890803,158.6470424784369L216.89918144543967,158.64500657122605L217.0423492219713,158.64747290842806L217.47185255156623,158.64576813215072L217.61502032809787,158.64940247766074L217.7581881046295,158.64918834364224L217.90135588116115,158.6458315327136L218.04452365769282,158.6455927624732L218.18769143422446,158.64601409214566L218.33085921075607,158.6489593273346L218.47402698728771,158.6514138492057L218.61719476381938,158.65284194562776L218.90353031688267,158.65438502784465L219.18986586994595,158.65234097559716L219.61936919954087,158.65940624181354L219.90570475260418,158.6591304166843L220.3352080821991,158.65700833297478L220.76471141179402,158.65845915505457L220.90787918832567,158.65806764023841L221.19421474138895,158.66261593930284L221.33738251792062,158.66488986258406L221.62371807098387,158.66767340371254L221.7668858475155,158.66852501254215L221.91005362404718,158.6669811258772L222.19638917711046,158.66786561652134L222.3395569536421,158.66912075661006L222.6258925067054,158.6702594528418L222.76906028323702,158.6678416841915L222.91222805976867,158.6686372330468L223.0553958363003,158.66522833410613L223.19856361283198,158.66457029559143L223.48489916589526,158.66515437516244L223.77123471895854,158.66615008075115L223.91440249549018,158.66674838899726L224.05757027202182,158.6680222325034L224.20073804855346,158.66882602695134L224.3439058250851,158.6659349914506L224.48707360161674,158.665719701038L224.6302413781484,158.6663245454246L225.20291248427498,158.6688448812028L225.34608026080662,158.66961941385247L225.48924803733826,158.67172968223107L225.6324158138699,158.67227595274318L225.77558359040154,158.673623503803L226.20508691999646,158.67685306110383L226.3482546965281,158.67799673485797L226.49142247305977,158.6790835441897L227.06409357918633,158.6805526171849L227.20726135571797,158.67924383046605L227.35042913224962,158.68082431951782L227.49359690878126,158.6801893083289L227.77993246184454,158.6808721338995L227.9231002383762,158.6817690432106L228.2094357914395,158.68204763363008L228.3526035679711,158.68275987183296L228.6389391210344,158.68432507637155L228.78210689756605,158.68461714129606L229.06844245062933,158.6839972135083L229.211610227161,158.68410199286836L229.49794578022426,158.6855040955624L229.6411135567559,158.68681524534742L229.78428133328757,158.68654153189433L229.9274491098192,158.68804182752993L230.07061688635085,158.6893469942325L230.2137846628825,158.68986792463065L230.35695243941413,158.6904072065002L230.6432879924774,158.6926343209598L231.07279132207233,158.69531484245834L231.35912687513564,158.69547608401675L231.50229465166728,158.6956570848307L231.6454624281989,158.6964589184365L231.9317979812622,158.69779098387113L232.2181335343255,158.69650532503405L232.36130131085713,158.69806887039854L232.79080464045205,158.69748398637947L232.9339724169837,158.6985189590892L233.07714019351536,158.69693907337347L233.220307970047,158.69778721302083L233.64981129964193,158.6973848381558L233.7929790761736,158.69616861324212L233.9361468527052,158.69486299403752L234.07931462923685,158.69605051021102L234.2224824057685,158.6964929063671" fill="none"></path></g></g></g></g></g></g><g transform="translate(72, 176)" clip-path="url(#clip_1)"><clipPath id="clip_1"><rect width="257" height="23"></rect></clipPath><g><g><line x1="0" y1="0" x2="0" y2="5" style="visibility: inherit;" fill="rgb(0, 0, 0)" stroke="rgb(204, 204, 204)" stroke-width="1px"></line><line x1="28.633555306328667" y1="0" x2="28.633555306328667" y2="5" style="visibility: inherit;" fill="rgb(0, 0, 0)" stroke="rgb(204, 204, 204)" stroke-width="1px"></line><line x1="57.26711061265733" y1="0" x2="57.26711061265733" y2="5" style="visibility: inherit;" fill="rgb(0, 0, 0)" stroke="rgb(204, 204, 204)" stroke-width="1px"></line><line x1="85.900665918986" y1="0" x2="85.900665918986" y2="5" style="visibility: inherit;" fill="rgb(0, 0, 0)" stroke="rgb(204, 204, 204)" stroke-width="1px"></line><line x1="114.53422122531467" y1="0" x2="114.53422122531467" y2="5" style="visibility: inherit;" fill="rgb(0, 0, 0)" stroke="rgb(204, 204, 204)" stroke-width="1px"></line><line x1="143.16777653164334" y1="0" x2="143.16777653164334" y2="5" style="visibility: inherit;" fill="rgb(0, 0, 0)" stroke="rgb(204, 204, 204)" stroke-width="1px"></line><line x1="171.801331837972" y1="0" x2="171.801331837972" y2="5" style="visibility: inherit;" fill="rgb(0, 0, 0)" stroke="rgb(204, 204, 204)" stroke-width="1px"></line><line x1="200.4348871443007" y1="0" x2="200.4348871443007" y2="5" style="visibility: inherit;" fill="rgb(0, 0, 0)" stroke="rgb(204, 204, 204)" stroke-width="1px"></line><line x1="229.06844245062933" y1="0" x2="229.06844245062933" y2="5" style="visibility: inherit;" fill="rgb(0, 0, 0)" stroke="rgb(204, 204, 204)" stroke-width="1px"></line><line x1="257.701997756958" y1="0" x2="257.701997756958" y2="5" style="visibility: inherit;" fill="rgb(0, 0, 0)" stroke="rgb(204, 204, 204)" stroke-width="1px"></line></g><g transform="translate(0, 8)"><text style="text-anchor: middle; visibility: hidden; font-family: Roboto, sans-serif; font-size: 12px; font-weight: 200;" x="0" y="0" dx="0em" dy="0.95em" fill="rgb(33, 33, 33)" stroke="none" stroke-width="1px">-2k</text><text style="text-anchor: middle; visibility: inherit; font-family: Roboto, sans-serif; font-size: 12px; font-weight: 200;" x="28.633555306328667" y="0" dx="0em" dy="0.95em" fill="rgb(33, 33, 33)" stroke="none" stroke-width="1px">0</text><text style="text-anchor: middle; visibility: inherit; font-family: Roboto, sans-serif; font-size: 12px; font-weight: 200;" x="57.26711061265733" y="0" dx="0em" dy="0.95em" fill="rgb(33, 33, 33)" stroke="none" stroke-width="1px">2k</text><text style="text-anchor: middle; visibility: inherit; font-family: Roboto, sans-serif; font-size: 12px; font-weight: 200;" x="85.900665918986" y="0" dx="0em" dy="0.95em" fill="rgb(33, 33, 33)" stroke="none" stroke-width="1px">4k</text><text style="text-anchor: middle; visibility: inherit; font-family: Roboto, sans-serif; font-size: 12px; font-weight: 200;" x="114.53422122531467" y="0" dx="0em" dy="0.95em" fill="rgb(33, 33, 33)" stroke="none" stroke-width="1px">6k</text><text style="text-anchor: middle; visibility: inherit; font-family: Roboto, sans-serif; font-size: 12px; font-weight: 200;" x="143.16777653164334" y="0" dx="0em" dy="0.95em" fill="rgb(33, 33, 33)" stroke="none" stroke-width="1px">8k</text><text style="text-anchor: middle; visibility: inherit; font-family: Roboto, sans-serif; font-size: 12px; font-weight: 200;" x="171.801331837972" y="0" dx="0em" dy="0.95em" fill="rgb(33, 33, 33)" stroke="none" stroke-width="1px">10k</text><text style="text-anchor: middle; visibility: inherit; font-family: Roboto, sans-serif; font-size: 12px; font-weight: 200;" x="200.4348871443007" y="0" dx="0em" dy="0.95em" fill="rgb(33, 33, 33)" stroke="none" stroke-width="1px">12k</text><text style="text-anchor: middle; visibility: inherit; font-family: Roboto, sans-serif; font-size: 12px; font-weight: 200;" x="229.06844245062933" y="0" dx="0em" dy="0.95em" fill="rgb(33, 33, 33)" stroke="none" stroke-width="1px">14k</text><text style="text-anchor: middle; visibility: hidden; font-family: Roboto, sans-serif; font-size: 12px; font-weight: 200;" x="257.701997756958" y="0" dx="0em" dy="0.95em" fill="rgb(33, 33, 33)" stroke="none" stroke-width="1px">16k</text></g><line x1="0" y1="0" x2="257.701997756958" y2="0" fill="rgb(0, 0, 0)" stroke="rgb(204, 204, 204)" stroke-width="1px"></line></g></g></g></g></svg>